<svg width="14" height="14" viewBox="0 0 14 14" fill="none" xmlns="http://www.w3.org/2000/svg">
<path d="M6.95671 13.2837C10.4278 13.2837 13.2837 10.4278 13.2837 6.94911C13.2837 3.47796 10.4278 0.62207 6.94911 0.62207C3.47797 0.62207 0.62207 3.47796 0.62207 6.94911C0.62207 10.4278 3.47797 13.2837 6.95671 13.2837ZM6.95671 11.6051C4.37423 11.6051 2.30827 9.53158 2.30827 6.94911C2.30827 4.37424 4.37423 2.30067 6.94911 2.30067C9.53157 2.30067 11.6051 4.37424 11.6051 6.94911C11.6051 9.53158 9.53157 11.6051 6.95671 11.6051ZM5.15657 9.44042C5.35406 9.44042 5.52116 9.37207 5.65788 9.23535L6.94911 7.94412L8.25553 9.23535C8.38466 9.36446 8.55176 9.44042 8.75684 9.44042C9.14421 9.44042 9.44043 9.13661 9.44043 8.74924C9.44043 8.56695 9.36447 8.39985 9.23535 8.27072L7.92893 6.9643L9.23535 5.65028C9.37206 5.51356 9.44043 5.35405 9.44043 5.17935C9.44043 4.79199 9.14421 4.48817 8.75684 4.48817C8.55935 4.48817 8.39984 4.55652 8.26312 4.69324L6.94911 5.99208L5.65029 4.69324C5.51355 4.56413 5.35406 4.49576 5.15657 4.49576C4.76921 4.49576 4.46539 4.79199 4.46539 5.17935C4.46539 5.36165 4.54133 5.52874 4.67807 5.65787L5.98448 6.9643L4.67807 8.27831C4.54133 8.39985 4.46539 8.57454 4.46539 8.74924C4.46539 9.13661 4.76921 9.44042 5.15657 9.44042Z" fill="black"/>
</svg>
