<svg width="14" height="14" viewBox="0 0 14 14" fill="none" xmlns="http://www.w3.org/2000/svg">
<path d="M6.95671 13.2837C10.4278 13.2837 13.2837 10.4278 13.2837 6.94911C13.2837 3.47796 10.4278 0.62207 6.94911 0.62207C3.47797 0.62207 0.62207 3.47796 0.62207 6.94911C0.62207 10.4278 3.47797 13.2837 6.95671 13.2837ZM6.2883 9.95691C6.00727 9.95691 5.7794 9.82019 5.58192 9.57714L4.22233 7.95171C4.07801 7.77702 4.01725 7.61751 4.01725 7.42763C4.01725 7.04025 4.33626 6.72123 4.73123 6.72123C4.95909 6.72123 5.13378 6.81239 5.30849 7.01746L6.27312 8.22514L8.52138 4.64768C8.68847 4.37424 8.89356 4.24511 9.14421 4.24511C9.53157 4.24511 9.88096 4.51855 9.88096 4.91352C9.88096 5.07301 9.81261 5.24772 9.69867 5.41481L6.97949 9.56955C6.8124 9.8126 6.56934 9.95691 6.2883 9.95691Z" fill="black"/>
</svg>
