<?xml version="1.0" encoding="UTF-8"?>
<!--Generator: Apple Native CoreSVG 149-->
<!DOCTYPE svg
PUBLIC "-//W3C//DTD SVG 1.1//EN"
       "http://www.w3.org/Graphics/SVG/1.1/DTD/svg11.dtd">
<svg version="1.1" xmlns="http://www.w3.org/2000/svg" xmlns:xlink="http://www.w3.org/1999/xlink" width="3300" height="2200">
 <!--glyph: "uni100397.medium", point size: 100.000000, font version: "Version 16.0d18e1", template writer version: "8"-->
 <g id="Notes">
  <rect height="2200" id="artboard" style="fill:white;opacity:1" width="3300" x="0" y="0"/>
  <line id="" style="fill:none;stroke:black;opacity:1;stroke-width:0.5;" x1="263" x2="3036" y1="292" y2="292"/>
  <text style="stroke:none;fill:black;font-family:-apple-system,&quot;SF Pro Display&quot;,&quot;SF Pro Text&quot;,Helvetica,sans-serif;font-weight:bold;" transform="matrix(1 0 0 1 263 322)">Weight/Scale Variations</text>
  <text style="stroke:none;fill:black;font-family:-apple-system,&quot;SF Pro Display&quot;,&quot;SF Pro Text&quot;,Helvetica,sans-serif;text-anchor:middle;" transform="matrix(1 0 0 1 559.711 322)">Ultralight</text>
  <text style="stroke:none;fill:black;font-family:-apple-system,&quot;SF Pro Display&quot;,&quot;SF Pro Text&quot;,Helvetica,sans-serif;text-anchor:middle;" transform="matrix(1 0 0 1 856.422 322)">Thin</text>
  <text style="stroke:none;fill:black;font-family:-apple-system,&quot;SF Pro Display&quot;,&quot;SF Pro Text&quot;,Helvetica,sans-serif;text-anchor:middle;" transform="matrix(1 0 0 1 1153.13 322)">Light</text>
  <text style="stroke:none;fill:black;font-family:-apple-system,&quot;SF Pro Display&quot;,&quot;SF Pro Text&quot;,Helvetica,sans-serif;text-anchor:middle;" transform="matrix(1 0 0 1 1449.84 322)">Regular</text>
  <text style="stroke:none;fill:black;font-family:-apple-system,&quot;SF Pro Display&quot;,&quot;SF Pro Text&quot;,Helvetica,sans-serif;text-anchor:middle;" transform="matrix(1 0 0 1 1746.56 322)">Medium</text>
  <text style="stroke:none;fill:black;font-family:-apple-system,&quot;SF Pro Display&quot;,&quot;SF Pro Text&quot;,Helvetica,sans-serif;text-anchor:middle;" transform="matrix(1 0 0 1 2043.27 322)">Semibold</text>
  <text style="stroke:none;fill:black;font-family:-apple-system,&quot;SF Pro Display&quot;,&quot;SF Pro Text&quot;,Helvetica,sans-serif;text-anchor:middle;" transform="matrix(1 0 0 1 2339.98 322)">Bold</text>
  <text style="stroke:none;fill:black;font-family:-apple-system,&quot;SF Pro Display&quot;,&quot;SF Pro Text&quot;,Helvetica,sans-serif;text-anchor:middle;" transform="matrix(1 0 0 1 2636.69 322)">Heavy</text>
  <text style="stroke:none;fill:black;font-family:-apple-system,&quot;SF Pro Display&quot;,&quot;SF Pro Text&quot;,Helvetica,sans-serif;text-anchor:middle;" transform="matrix(1 0 0 1 2933.4 322)">Black</text>
  <line id="" style="fill:none;stroke:black;opacity:1;stroke-width:0.5;" x1="263" x2="3036" y1="1903" y2="1903"/>
  <g id="" transform="matrix(1 0 0 1 263 1933)">
   <path d="M9.24805 0.830078C13.5547 0.830078 17.1387-2.74414 17.1387-7.05078C17.1387-11.3574 13.5449-14.9316 9.23828-14.9316C4.94141-14.9316 1.36719-11.3574 1.36719-7.05078C1.36719-2.74414 4.95117 0.830078 9.24805 0.830078ZM9.24805-0.654297C5.70312-0.654297 2.87109-3.49609 2.87109-7.05078C2.87109-10.6055 5.69336-13.4473 9.23828-13.4473C12.793-13.4473 15.6348-10.6055 15.6445-7.05078C15.6543-3.49609 12.8027-0.654297 9.24805-0.654297ZM6.39648-6.31836L8.50586-6.31836L8.50586-4.19922C8.50586-3.75977 8.79883-3.45703 9.22852-3.45703C9.67773-3.45703 9.9707-3.75977 9.9707-4.19922L9.9707-6.31836L12.0996-6.31836C12.5391-6.31836 12.8418-6.61133 12.8418-7.04102C12.8418-7.48047 12.5391-7.7832 12.0996-7.7832L9.9707-7.7832L9.9707-9.89258C9.9707-10.3418 9.67773-10.6445 9.22852-10.6445C8.79883-10.6445 8.50586-10.3418 8.50586-9.89258L8.50586-7.7832L6.39648-7.7832C5.94727-7.7832 5.64453-7.48047 5.64453-7.04102C5.64453-6.61133 5.94727-6.31836 6.39648-6.31836Z"/>
  </g>
  <g id="" transform="matrix(1 0 0 1 281.506 1933)">
   <path d="M11.709 2.91016C17.1582 2.91016 21.6699-1.61133 21.6699-7.05078C21.6699-12.5 17.1484-17.0117 11.6992-17.0117C6.25977-17.0117 1.74805-12.5 1.74805-7.05078C1.74805-1.61133 6.26953 2.91016 11.709 2.91016ZM11.709 1.25C7.09961 1.25 3.41797-2.44141 3.41797-7.05078C3.41797-11.6602 7.08984-15.3516 11.6992-15.3516C16.3086-15.3516 20-11.6602 20.0098-7.05078C20.0195-2.44141 16.3184 1.25 11.709 1.25ZM7.98828-6.23047L10.8789-6.23047L10.8789-3.32031C10.8789-2.83203 11.2109-2.5 11.6895-2.5C12.1777-2.5 12.5195-2.83203 12.5195-3.32031L12.5195-6.23047L15.4297-6.23047C15.918-6.23047 16.25-6.5625 16.25-7.04102C16.25-7.5293 15.918-7.87109 15.4297-7.87109L12.5195-7.87109L12.5195-10.7617C12.5195-11.2695 12.1777-11.6016 11.6895-11.6016C11.2109-11.6016 10.8789-11.2598 10.8789-10.7617L10.8789-7.87109L7.98828-7.87109C7.48047-7.87109 7.14844-7.5293 7.14844-7.04102C7.14844-6.5625 7.49023-6.23047 7.98828-6.23047Z"/>
  </g>
  <g id="" transform="matrix(1 0 0 1 304.924 1933)">
   <path d="M14.9707 5.66406C21.9336 5.66406 27.6953-0.0976562 27.6953-7.05078C27.6953-14.0137 21.9238-19.7754 14.9609-19.7754C8.00781-19.7754 2.25586-14.0137 2.25586-7.05078C2.25586-0.0976562 8.01758 5.66406 14.9707 5.66406ZM14.9707 3.84766C8.93555 3.84766 4.08203-1.01562 4.08203-7.05078C4.08203-13.0957 8.92578-17.9492 14.9609-17.9492C21.0059-17.9492 25.8594-13.0957 25.8691-7.05078C25.8789-1.01562 21.0156 3.84766 14.9707 3.84766ZM10.0586-6.14258L14.0625-6.14258L14.0625-2.12891C14.0625-1.5918 14.4336-1.2207 14.9512-1.2207C15.4883-1.2207 15.8594-1.5918 15.8594-2.12891L15.8594-6.14258L19.8828-6.14258C20.4102-6.14258 20.791-6.51367 20.791-7.03125C20.791-7.56836 20.4199-7.94922 19.8828-7.94922L15.8594-7.94922L15.8594-11.9531C15.8594-12.5098 15.4883-12.8809 14.9512-12.8809C14.4336-12.8809 14.0625-12.5 14.0625-11.9531L14.0625-7.94922L10.0586-7.94922C9.50195-7.94922 9.13086-7.56836 9.13086-7.03125C9.13086-6.51367 9.51172-6.14258 10.0586-6.14258Z"/>
  </g>
  <text style="stroke:none;fill:black;font-family:-apple-system,&quot;SF Pro Display&quot;,&quot;SF Pro Text&quot;,Helvetica,sans-serif;font-weight:bold;" transform="matrix(1 0 0 1 263 1953)">Design Variations</text>
  <text style="stroke:none;fill:black;font-family:-apple-system,&quot;SF Pro Display&quot;,&quot;SF Pro Text&quot;,Helvetica,sans-serif;" transform="matrix(1 0 0 1 263 1971)">Symbols are supported in up to nine weights and three scales.</text>
  <text style="stroke:none;fill:black;font-family:-apple-system,&quot;SF Pro Display&quot;,&quot;SF Pro Text&quot;,Helvetica,sans-serif;" transform="matrix(1 0 0 1 263 1989)">For optimal layout with text and other symbols, vertically align</text>
  <text style="stroke:none;fill:black;font-family:-apple-system,&quot;SF Pro Display&quot;,&quot;SF Pro Text&quot;,Helvetica,sans-serif;" transform="matrix(1 0 0 1 263 2007)">symbols with the adjacent text.</text>
  <line id="" style="fill:none;stroke:#00AEEF;stroke-width:0.5;opacity:1.0;" x1="776" x2="776" y1="1919" y2="1933"/>
  <g id="" transform="matrix(1 0 0 1 776 1933)">
   <path d="M3.31055 0.126953C3.82812 0.126953 4.08203-0.0683594 4.26758-0.605469L5.52734-4.0625L11.2891-4.0625L12.5488-0.605469C12.7344-0.0683594 12.9883 0.126953 13.4961 0.126953C14.0137 0.126953 14.3457-0.185547 14.3457-0.673828C14.3457-0.839844 14.3164-0.986328 14.2383-1.20117L9.6582-13.3887C9.43359-13.9941 9.0332-14.2871 8.4082-14.2871C7.80273-14.2871 7.39258-13.9941 7.17773-13.3984L2.59766-1.19141C2.51953-0.976562 2.49023-0.830078 2.49023-0.664062C2.49023-0.175781 2.80273 0.126953 3.31055 0.126953ZM6.00586-5.53711L8.37891-12.1094L8.42773-12.1094L10.8008-5.53711Z"/>
  </g>
  <line id="" style="fill:none;stroke:#00AEEF;stroke-width:0.5;opacity:1.0;" x1="792.836" x2="792.836" y1="1919" y2="1933"/>
  <text style="stroke:none;fill:black;font-family:-apple-system,&quot;SF Pro Display&quot;,&quot;SF Pro Text&quot;,Helvetica,sans-serif;font-weight:bold;" transform="matrix(1 0 0 1 776 1953)">Margins</text>
  <text style="stroke:none;fill:black;font-family:-apple-system,&quot;SF Pro Display&quot;,&quot;SF Pro Text&quot;,Helvetica,sans-serif;" transform="matrix(1 0 0 1 776 1971)">Leading and trailing margins on the left and right side of each symbol</text>
  <text style="stroke:none;fill:black;font-family:-apple-system,&quot;SF Pro Display&quot;,&quot;SF Pro Text&quot;,Helvetica,sans-serif;" transform="matrix(1 0 0 1 776 1989)">can be adjusted by modifying the x-location of the margin guidelines.</text>
  <text style="stroke:none;fill:black;font-family:-apple-system,&quot;SF Pro Display&quot;,&quot;SF Pro Text&quot;,Helvetica,sans-serif;" transform="matrix(1 0 0 1 776 2007)">Modifications are automatically applied proportionally to all</text>
  <text style="stroke:none;fill:black;font-family:-apple-system,&quot;SF Pro Display&quot;,&quot;SF Pro Text&quot;,Helvetica,sans-serif;" transform="matrix(1 0 0 1 776 2025)">scales and weights.</text>
  <g id="" transform="matrix(1 0 0 1 1289 1933)">
   <path d="M2.8418 1.86523L4.54102 3.57422C5.40039 4.44336 6.38672 4.38477 7.31445 3.35938L17.4902-7.85156C17.7539-7.76367 18.0273-7.7832 18.3398-7.8418L19.4043-8.03711L20.0684-7.36328L20.0293-6.80664C19.9902-6.30859 20.1172-5.92773 20.6055-5.44922L21.3672-4.70703C21.8457-4.22852 22.4609-4.19922 22.9297-4.66797L25.8398-7.58789C26.3086-8.05664 26.2891-8.65234 25.8105-9.13086L25.0391-9.89258C24.5605-10.3711 24.1895-10.5273 23.7109-10.4883L23.1348-10.4395L22.4902-11.0742L22.7344-12.1973C22.8613-12.7637 22.7051-13.2031 22.1191-13.7891L19.9219-15.9766C16.582-19.2969 12.1484-19.2188 9.25781-16.3281C8.83789-15.918 8.80859-15.3418 9.04297-14.9512C9.27734-14.5898 9.73633-14.3555 10.3809-14.5215C11.8457-14.8633 13.3691-14.9219 14.7949-13.9844L14.209-12.5293C14.0137-12.0508 13.9844-11.6504 14.1113-11.2891L3.04688-0.898438C2.06055 0.0195312 1.98242 0.996094 2.8418 1.86523ZM10.752-15.957C13.1836-17.7344 16.4746-17.4316 18.7012-15.2051L21.1328-12.793C21.3672-12.5586 21.4062-12.373 21.3379-12.0312L21.0156-10.5469L22.5195-9.0625L23.5059-9.12109C23.7598-9.13086 23.8379-9.11133 24.0332-8.91602L24.6094-8.33984L22.168-5.89844L21.5918-6.47461C21.3965-6.66992 21.3672-6.74805 21.377-7.01172L21.4453-7.98828L19.9512-9.47266L18.4277-9.21875C18.1055-9.15039 17.959-9.17969 17.7148-9.41406L15.7129-11.416C15.459-11.6504 15.4297-11.8164 15.5859-12.1875L16.4648-14.2773C14.9023-15.7324 12.8711-16.3574 10.8398-15.7617C10.6836-15.7227 10.625-15.8496 10.752-15.957ZM5.27344 2.30469L4.10156 1.14258C3.63281 0.683594 3.74023 0.341797 4.14062-0.0195312L14.9512-10.1953L16.416-8.71094L6.42578 2.27539C6.07422 2.67578 5.74219 2.77344 5.27344 2.30469Z"/>
  </g>
  <text style="stroke:none;fill:black;font-family:-apple-system,&quot;SF Pro Display&quot;,&quot;SF Pro Text&quot;,Helvetica,sans-serif;font-weight:bold;" transform="matrix(1 0 0 1 1289 1953)">Exporting</text>
  <text style="stroke:none;fill:black;font-family:-apple-system,&quot;SF Pro Display&quot;,&quot;SF Pro Text&quot;,Helvetica,sans-serif;" transform="matrix(1 0 0 1 1289 1971)">Symbols should be outlined when exporting to ensure the</text>
  <text style="stroke:none;fill:black;font-family:-apple-system,&quot;SF Pro Display&quot;,&quot;SF Pro Text&quot;,Helvetica,sans-serif;" transform="matrix(1 0 0 1 1289 1989)">design is preserved when submitting to Xcode.</text>
  <text id="template-version" style="stroke:none;fill:black;font-family:-apple-system,&quot;SF Pro Display&quot;,&quot;SF Pro Text&quot;,Helvetica,sans-serif;text-anchor:end;" transform="matrix(1 0 0 1 3036 1933)">Template v.2.0</text>
  <text style="stroke:none;fill:black;font-family:-apple-system,&quot;SF Pro Display&quot;,&quot;SF Pro Text&quot;,Helvetica,sans-serif;text-anchor:end;" transform="matrix(1 0 0 1 3036 1951)">Requires Xcode 12 or greater</text>
  <text style="stroke:none;fill:black;font-family:-apple-system,&quot;SF Pro Display&quot;,&quot;SF Pro Text&quot;,Helvetica,sans-serif;text-anchor:end;" transform="matrix(1 0 0 1 3036 1969)">Generated from eyedropper</text>
  <text style="stroke:none;fill:black;font-family:-apple-system,&quot;SF Pro Display&quot;,&quot;SF Pro Text&quot;,Helvetica,sans-serif;text-anchor:end;" transform="matrix(1 0 0 1 3036 1987)">Typeset at 100 points</text>
  <text style="stroke:none;fill:black;font-family:-apple-system,&quot;SF Pro Display&quot;,&quot;SF Pro Text&quot;,Helvetica,sans-serif;" transform="matrix(1 0 0 1 263 726)">Small</text>
  <text style="stroke:none;fill:black;font-family:-apple-system,&quot;SF Pro Display&quot;,&quot;SF Pro Text&quot;,Helvetica,sans-serif;" transform="matrix(1 0 0 1 263 1156)">Medium</text>
  <text style="stroke:none;fill:black;font-family:-apple-system,&quot;SF Pro Display&quot;,&quot;SF Pro Text&quot;,Helvetica,sans-serif;" transform="matrix(1 0 0 1 263 1586)">Large</text>
 </g>
 <g id="Guides">
  <g id="H-reference" style="fill:#27AAE1;stroke:none;" transform="matrix(1 0 0 1 339 696)">
   <path d="M0.976562 0L3.66211 0L12.9883-24.4629L45.752-24.4629L55.127 0L57.7637 0L30.6152-70.459L28.125-70.459ZM29.3457-67.1387L29.4434-67.1387L44.873-26.709L13.8672-26.709Z"/>
  </g>
  <line id="Baseline-S" style="fill:none;stroke:#27AAE1;opacity:1;stroke-width:0.5;" x1="263" x2="3036" y1="696" y2="696"/>
  <line id="Capline-S" style="fill:none;stroke:#27AAE1;opacity:1;stroke-width:0.5;" x1="263" x2="3036" y1="625.541" y2="625.541"/>
  <g id="H-reference" style="fill:#27AAE1;stroke:none;" transform="matrix(1 0 0 1 339 1126)">
   <path d="M0.976562 0L3.66211 0L12.9883-24.4629L45.752-24.4629L55.127 0L57.7637 0L30.6152-70.459L28.125-70.459ZM29.3457-67.1387L29.4434-67.1387L44.873-26.709L13.8672-26.709Z"/>
  </g>
  <line id="Baseline-M" style="fill:none;stroke:#27AAE1;opacity:1;stroke-width:0.5;" x1="263" x2="3036" y1="1126" y2="1126"/>
  <line id="Capline-M" style="fill:none;stroke:#27AAE1;opacity:1;stroke-width:0.5;" x1="263" x2="3036" y1="1055.54" y2="1055.54"/>
  <g id="H-reference" style="fill:#27AAE1;stroke:none;" transform="matrix(1 0 0 1 339 1556)">
   <path d="M0.976562 0L3.66211 0L12.9883-24.4629L45.752-24.4629L55.127 0L57.7637 0L30.6152-70.459L28.125-70.459ZM29.3457-67.1387L29.4434-67.1387L44.873-26.709L13.8672-26.709Z"/>
  </g>
  <line id="Baseline-L" style="fill:none;stroke:#27AAE1;opacity:1;stroke-width:0.5;" x1="263" x2="3036" y1="1556" y2="1556"/>
  <line id="Capline-L" style="fill:none;stroke:#27AAE1;opacity:1;stroke-width:0.5;" x1="263" x2="3036" y1="1485.54" y2="1485.54"/>
  <line id="left-margin" style="fill:none;stroke:#00AEEF;stroke-width:0.5;opacity:1.0;" x1="1387.66" x2="1387.66" y1="1030.79" y2="1150.12"/>
  <line id="right-margin" style="fill:none;stroke:#00AEEF;stroke-width:0.5;opacity:1.0;" x1="1512.03" x2="1512.03" y1="1030.79" y2="1150.12"/>
 </g>
 <g id="Symbols">
  <g id="Black-L" transform="matrix(1 0 0 1 2844.26 1556)">
   <path d="M124.121-24.1211L126.66-26.6602C131.25-31.25 131.201-36.8164 126.514-41.6016L125.146-43.0176C136.426-52.4902 147.656-52.2949 155.957-60.6934C166.943-71.8262 165.967-89.1113 155.762-99.4141C145.654-109.717 128.223-110.742 117.041-99.7559C108.496-91.4062 108.74-80.2246 99.2188-68.9453L97.9492-70.3125C93.4082-75 87.6465-75.0488 82.959-70.4102L80.3223-67.9199C75.1953-62.9395 75.4395-57.959 80.5664-52.9297L82.666-50.7812L40.8691-8.88672C17.9688 14.0625 22.3145 21.0449 14.4531 31.25L23.4863 40.7715C33.5449 32.7148 42.2363 37.6953 64.7949 15.2832L106.982-26.5625L109.229-24.3652C114.404-19.2871 119.092-19.043 124.121-24.1211ZM41.4062 15.3809C40.0391 13.8184 40.1855 12.4512 41.8945 10.7422L93.0176-40.4785L97.0215-36.5234L45.8008 14.6973C44.1406 16.2598 42.5293 16.6016 41.4062 15.3809Z"/>
  </g>
  <g id="Heavy-L" transform="matrix(1 0 0 1 2549.8 1556)">
   <path d="M121.387-26.3184L123.73-28.6621C127.93-32.9102 127.93-38.0371 123.633-42.4316L122.119-43.9453C132.959-53.1738 144.043-53.3691 151.953-61.377C162.549-72.0703 161.084-88.3301 151.709-97.7539C142.48-107.178 126.123-108.643 115.332-98.0957C107.178-90.1855 107.129-79.1016 97.8027-68.2129L96.4355-69.7266C92.1875-74.0723 86.9629-74.0234 82.5684-69.8242L80.1758-67.5293C75.3418-62.9395 75.7324-58.3008 80.3711-53.7109L82.7148-51.416L39.502-8.1543C17.4805 13.8672 22.9492 18.6035 14.4531 29.8828L22.6074 38.4766C33.6426 29.8828 39.8926 36.0352 61.7188 14.3066L105.273-28.9062L107.666-26.5137C112.354-21.9238 116.748-21.5332 121.387-26.3184ZM39.4043 14.9414C37.7441 13.0859 37.9883 11.4258 39.9414 9.47266L91.6992-42.4316L96.5332-37.5977L44.6777 14.3066C42.8223 16.0645 40.8691 16.5039 39.4043 14.9414Z"/>
  </g>
  <g id="Bold-L" transform="matrix(1 0 0 1 2255.6 1556)">
   <path d="M118.359-28.7598L120.459-30.9082C124.17-34.7656 124.268-39.4043 120.312-43.3594L118.701-45.0195C129.053-54.0039 140.039-54.5898 147.461-62.1094C157.568-72.3145 155.566-87.5 147.217-95.8984C138.965-104.346 123.779-106.25 113.379-96.2402C105.762-88.8184 105.273-77.832 96.2402-67.4316L94.6777-69.0918C90.8203-72.998 86.1328-72.9492 82.1777-69.1895L80.0293-67.0898C75.5371-62.8418 76.0254-58.7402 80.2246-54.5898L82.7148-52.0996L37.9883-7.37305C16.9434 13.6719 23.6328 15.8691 14.4531 28.3203L21.6309 35.8887C33.7891 26.6602 37.2559 34.1309 58.3008 13.2324L103.32-31.4941L105.908-28.9551C110.059-24.8535 114.062-24.3164 118.359-28.7598ZM37.1582 14.4531C35.2051 12.2559 35.5469 10.2539 37.793 8.00781L90.2344-44.5801L96.0449-38.7695L43.4082 13.8184C41.3574 15.8203 38.9648 16.4062 37.1582 14.4531Z"/>
  </g>
  <g id="Semibold-L" transform="matrix(1 0 0 1 1960.63 1556)">
   <path d="M116.26-30.4688L118.164-32.4707C121.631-36.084 121.729-40.332 118.066-43.9941L116.309-45.752C126.416-54.5898 137.256-55.4199 144.385-62.5977C154.15-72.5098 151.807-86.9141 144.141-94.6289C136.523-102.393 122.119-104.639 112.061-94.9219C104.785-87.8418 104.053-76.9531 95.2148-66.8945L93.5059-68.6523C89.8926-72.3145 85.5957-72.168 81.9336-68.7012L79.8828-66.7969C75.6836-62.8418 76.2695-58.9844 80.0781-55.2246L82.7148-52.5879L36.9629-6.83594C16.5527 13.5742 24.0723 13.9648 14.4531 27.2461L20.8984 34.1309C33.8379 24.4629 35.4492 32.8125 55.957 12.4512L102.002-33.3008L104.688-30.6152C108.496-26.8555 112.256-26.2695 116.26-30.4688ZM35.6445 14.1113C33.4473 11.6699 33.8379 9.42383 36.2793 7.03125L89.209-46.0938L95.7031-39.5996L42.5293 13.5254C40.3809 15.6738 37.6953 16.3574 35.6445 14.1113Z"/>
  </g>
  <g id="Medium-L" transform="matrix(1 0 0 1 1665.21 1556)">
   <path d="M114.648-31.7383L116.455-33.6426C119.678-37.0605 119.824-41.0645 116.357-44.4824L114.551-46.2891C124.365-54.9805 135.156-56.0547 142.041-62.9883C151.611-72.6562 148.926-86.4746 141.797-93.7012C134.668-100.879 120.898-103.369 111.084-93.9453C104.053-87.1582 103.076-76.3184 94.3848-66.4551L92.5781-68.3105C89.209-71.7285 85.1562-71.582 81.6895-68.3594L79.7852-66.6016C75.7812-62.793 76.416-59.2285 79.9805-55.6641L82.7148-52.9785L36.1328-6.39648C16.3086 13.4766 24.4629 12.5488 14.4531 26.4648L20.4102 32.7637C33.9355 22.8027 34.082 31.8359 54.1504 11.9141L100.977-34.668L103.76-31.8848C107.324-28.3691 110.889-27.6855 114.648-31.7383ZM34.4727 13.8672C32.0801 11.2793 32.5684 8.83789 35.1562 6.25L88.4277-47.2168L95.4102-40.2344L41.8945 13.2812C39.5996 15.5273 36.7188 16.3086 34.4727 13.8672Z"/>
  </g>
  <g id="Regular-L" transform="matrix(1 0 0 1 1370.21 1556)">
   <path d="M112.598-33.3984L114.209-35.1562C117.139-38.3301 117.334-41.9922 114.111-45.1172L112.207-47.0215C121.729-55.5664 132.422-56.8848 138.965-63.4766C148.193-72.8516 145.215-85.8887 138.721-92.4316C132.227-98.9746 119.287-101.758 109.766-92.6758C103.076-86.2305 101.855-75.4395 93.3105-65.918L91.4062-67.8223C88.2812-71.0449 84.6191-70.8496 81.4453-67.9199L79.6875-66.3086C75.8789-62.7441 76.6602-59.4727 79.834-56.25L82.7148-53.418L35.1074-5.85938C15.918 13.3301 24.9023 10.6445 14.4531 25.3906L19.7266 31.0059C34.0332 20.6543 32.2754 30.5664 51.8066 11.1328L99.6582-36.4258L102.539-33.5449C105.762-30.3711 109.033-29.5898 112.598-33.3984ZM32.959 13.5254C30.3711 10.6934 30.9082 8.05664 33.6426 5.27344L87.4512-48.6816L95.0684-41.0645L41.0156 12.9395C38.5742 15.3809 35.4492 16.2109 32.959 13.5254Z"/>
  </g>
  <g id="Light-L" transform="matrix(1 0 0 1 1074.3 1556)">
   <path d="M111.67-33.9355L113.086-35.4492C115.869-38.4766 116.016-41.9922 112.988-45.0195L111.035-46.9727C120.361-55.3711 131.055-56.8359 137.5-63.3301C146.533-72.5098 143.604-85.3516 137.256-91.748C130.859-98.1445 118.164-100.879 108.838-91.9922C102.246-85.6445 100.879-74.9023 92.4805-65.5762L90.5273-67.5293C87.5-70.5078 83.9844-70.3125 80.957-67.5781L79.3945-66.1621C75.7324-62.8418 76.5137-59.6191 79.5898-56.5918L82.666-53.5156L35.1074-5.95703C16.2598 12.8906 24.7559 10.6445 14.4531 25.0977L19.2383 30.2246C33.252 20.0195 31.9336 29.4434 51.0742 10.4004L98.9258-37.207L102.051-34.082C105.127-31.0059 108.35-30.2246 111.67-33.9355ZM31.7871 13.8672C28.7598 10.5957 29.3945 7.56836 32.4707 4.44336L86.4746-49.6582L95.2148-40.9668L40.8691 13.2812C38.1836 15.9668 34.7168 16.9922 31.7871 13.8672Z"/>
  </g>
  <g id="Thin-L" transform="matrix(1 0 0 1 778.639 1556)">
   <path d="M110.449-34.6191L111.572-35.8887C114.16-38.7207 114.307-42.041 111.523-44.873L109.521-46.9238C118.604-55.127 129.297-56.8359 135.498-63.1348C144.336-72.0703 141.504-84.6191 135.303-90.8203C129.053-97.0703 116.65-99.7559 107.568-91.0645C101.172-84.9121 99.5605-74.1699 91.4062-65.0879L89.3066-67.0898C86.4746-69.873 83.2031-69.6289 80.3223-67.1387L79.0527-66.0156C75.5371-62.9883 76.3184-59.8145 79.1992-56.9824L82.5684-53.5645L35.1074-6.10352C16.748 12.2559 24.5117 10.5957 14.4531 24.6582L18.5547 29.1992C32.2266 19.2383 31.3965 27.9297 50.0977 9.375L97.9492-38.2324L101.416-34.7656C104.248-31.8848 107.422-31.1035 110.449-34.6191ZM30.2246 14.3066C26.6602 10.4492 27.3926 6.88477 30.957 3.32031L85.2051-50.9766L95.3613-40.8203L40.7227 13.6719C37.5977 16.7969 33.6914 18.0176 30.2246 14.3066Z"/>
  </g>
  <g id="Ultralight-L" transform="matrix(1 0 0 1 482.465 1556)">
   <path d="M109.863-34.9609L110.84-36.084C113.281-38.8672 113.428-42.041 110.742-44.8242L108.74-46.9238C117.676-54.9805 128.369-56.8359 134.521-63.0371C143.213-71.8262 140.43-84.2285 134.277-90.3809C128.125-96.5332 115.918-99.1699 106.934-90.625C100.635-84.5703 98.877-73.7793 90.8203-64.8438L88.7207-66.8457C85.9375-69.5312 82.7637-69.2871 79.9805-66.9434L78.8574-65.9668C75.4395-63.0371 76.2695-59.9121 79.0039-57.1777L82.5684-53.6133L35.1074-6.20117C16.9922 11.9629 24.3652 10.5469 14.4531 24.4629L18.2129 28.6621C31.7383 18.7988 31.1523 27.1484 49.6094 8.88672L97.4121-38.7695L101.074-35.1074C103.809-32.373 106.934-31.543 109.863-34.9609ZM29.4434 14.5508C25.5859 10.3516 26.3184 6.54297 30.1758 2.73438L84.5215-51.6113L95.4102-40.7715L40.625 13.8672C37.3047 17.1875 33.2031 18.5547 29.4434 14.5508Z"/>
  </g>
  <g id="Black-M" transform="matrix(1 0 0 1 2861.7 1126)">
   <path d="M99.4141-23.9258L101.562-26.0742C105.518-29.9805 105.469-34.8145 101.416-38.9648L100.537-39.9414C109.717-47.5098 118.604-46.9727 125.537-54.0039C134.473-63.0859 134.424-77.6855 125.342-86.8164C116.455-95.9473 101.66-96.1426 92.5293-87.1582C85.4004-80.127 85.9863-71.3379 78.3691-62.1094L77.5391-63.0371C73.6328-67.0898 68.6035-67.1387 64.5508-63.0859L62.3535-61.0352C58.0078-56.8359 58.0566-52.4414 62.5488-48.0469L64.1113-46.4844L33.4961-15.8203C14.7949 2.92969 16.4062 11.6699 11.2305 17.9688L19.1406 26.3672C25.4395 20.9473 35.6934 22.9492 54.0039 4.83398L84.8633-25.7812L86.5234-24.1211C91.0645-19.7266 95.166-19.6777 99.4141-23.9258ZM34.1309 4.73633C33.3008 3.71094 33.3496 2.83203 34.5215 1.66016L73.3887-37.2559L75.8789-34.7168L36.9629 4.19922C35.791 5.32227 34.8145 5.46875 34.1309 4.73633Z"/>
  </g>
  <g id="Heavy-M" transform="matrix(1 0 0 1 2567.23 1126)">
   <path d="M96.6797-26.2207L98.6328-28.1738C102.246-31.7383 102.197-36.1328 98.5352-39.8926L97.4609-41.0156C106.25-48.3398 114.99-48.1934 121.533-54.7852C130.078-63.4277 129.492-77.002 121.338-85.2051C113.379-93.4082 99.6582-94.043 90.918-85.498C84.1797-78.9062 84.4238-70.2148 77.0508-61.4258L76.0742-62.5C72.5098-66.1621 67.9688-66.1621 64.2578-62.5488L62.2559-60.6445C58.2031-56.7383 58.3984-52.7832 62.4023-48.8281L64.1113-47.1191L32.0312-15.0391C14.1602 2.88086 17.0898 9.0332 11.2305 16.5527L18.3105 24.0234C25.7812 17.9688 33.252 21.4355 50.8301 3.95508L83.2031-28.125L84.9609-26.3672C89.0137-22.4121 92.7734-22.2168 96.6797-26.2207ZM32.2754 4.19922C31.2012 2.92969 31.3477 1.85547 32.666 0.488281L72.168-39.1113L75.3418-35.9375L35.791 3.66211C34.4727 4.93164 33.2031 5.17578 32.2754 4.19922Z"/>
  </g>
  <g id="Bold-M" transform="matrix(1 0 0 1 2273.03 1126)">
   <path d="M93.6035-28.7109L95.3613-30.5176C98.5352-33.7402 98.584-37.6465 95.2637-40.9668L94.0918-42.1875C102.441-49.3164 110.986-49.5117 117.041-55.6152C125.146-63.8184 123.926-76.2695 116.846-83.3984C109.863-90.5273 97.3633-91.748 89.0625-83.6426C82.8613-77.5879 82.7148-68.9941 75.5859-60.6934L74.4629-61.8652C71.2402-65.1367 67.2852-65.1367 63.9648-61.9141L62.1582-60.2051C58.4473-56.6895 58.7891-53.1738 62.3047-49.707L64.1113-47.9004L30.3711-14.1113C13.4766 2.7832 17.9199 6.00586 11.2305 14.9414L17.3828 21.4844C26.123 14.6973 30.5176 19.6777 47.3145 2.97852L81.2988-30.7617L83.1543-28.9062C86.7188-25.3906 90.0391-25.0977 93.6035-28.7109ZM30.2246 3.56445C28.8574 2.05078 29.1016 0.732422 30.6641-0.830078L70.8496-41.1621L74.7559-37.2559L34.4238 3.07617C32.959 4.49219 31.3965 4.83398 30.2246 3.56445Z"/>
  </g>
  <g id="Semibold-M" transform="matrix(1 0 0 1 1978.06 1126)">
   <path d="M91.5039-30.4688L93.1152-32.1777C95.9961-35.1074 96.0449-38.6719 93.0176-41.6992L91.748-42.9688C99.7559-49.9512 108.252-50.3906 113.965-56.2012C121.777-64.1113 120.117-75.7324 113.77-82.1289C107.471-88.5254 95.8496-90.0879 87.8418-82.373C81.9824-76.6602 81.543-68.1641 74.5605-60.1562L73.3398-61.4258C70.4102-64.4531 66.7969-64.4043 63.7695-61.5234L62.0605-59.9121C58.6426-56.6406 59.0332-53.4668 62.207-50.293L64.1113-48.3887L29.248-13.4766C12.9883 2.73438 18.457 3.95508 11.2305 13.8672L16.748 19.6777C26.3672 12.4023 28.6133 18.457 44.873 2.29492L79.9805-32.5684L81.9336-30.6152C85.1562-27.4902 88.1836-27.0508 91.5039-30.4688ZM28.7598 3.125C27.2949 1.46484 27.5391-0.0488281 29.248-1.75781L69.9219-42.5781L74.3652-38.1836L33.4961 2.63672C31.9824 4.15039 30.127 4.58984 28.7598 3.125Z"/>
  </g>
  <g id="Medium-M" transform="matrix(1 0 0 1 1682.64 1126)">
   <path d="M89.8926-31.7871L91.4062-33.3984C94.0918-36.1816 94.1406-39.4531 91.3574-42.2363L89.9902-43.6035C97.7539-50.4395 106.152-51.123 111.621-56.6406C119.189-64.3066 117.236-75.3418 111.426-81.2012C105.664-87.0605 94.6289-88.8672 86.8652-81.3965C81.2988-75.9766 80.6641-67.5293 73.8281-59.7656L72.5098-61.1328C69.7266-63.916 66.4062-63.8184 63.623-61.1816L62.0117-59.668C58.7402-56.5918 59.2285-53.6621 62.1582-50.7812L64.1113-48.7793L28.3691-13.0371C12.6465 2.73438 18.8965 2.39258 11.2305 13.0371L16.2598 18.3105C26.5625 10.6934 27.1484 17.5781 43.0176 1.80664L79.0039-33.9355L81.0059-31.9336C83.9355-29.0527 86.7676-28.5645 89.8926-31.7871ZM27.6855 2.7832C26.0742 1.02539 26.3672-0.634766 28.1738-2.44141L69.2383-43.7012L74.0234-38.8672L32.8125 2.34375C31.2012 3.95508 29.1992 4.44336 27.6855 2.7832Z"/>
  </g>
  <g id="Regular-M" transform="matrix(1 0 0 1 1387.66 1126)">
   <path d="M87.793-33.4961L89.1602-35.0098C91.5527-37.5 91.6992-40.4297 89.1113-42.9688L87.6465-44.3848C95.1172-51.0742 103.418-52.002 108.545-57.2266C115.82-64.5508 113.477-74.8047 108.35-79.9316C103.271-85.1074 93.1152-87.3047 85.6445-80.127C80.3711-75.0488 79.4922-66.6992 72.8027-59.2285L71.3867-60.6934C68.8965-63.2324 65.918-63.1348 63.4277-60.7422L61.9629-59.375C58.9355-56.4941 59.5215-53.9551 62.0605-51.3672L64.1602-49.3164L27.2461-12.4023C12.1582 2.68555 19.4336 0.341797 11.2305 11.9141L15.625 16.5527C26.8066 8.39844 25.293 16.4062 40.625 1.12305L77.6855-35.7422L79.7852-33.6426C82.373-31.0547 84.9609-30.5176 87.793-33.4961ZM26.2695 2.39258C24.4629 0.439453 24.8535-1.41602 26.7578-3.36914L68.3594-45.1172L73.6328-39.7949L31.8848 1.9043C30.1758 3.66211 27.9297 4.19922 26.2695 2.39258Z"/>
  </g>
  <g id="Light-M" transform="matrix(1 0 0 1 1091.66 1126)">
   <path d="M86.9629-33.9844L88.1836-35.2539C90.3809-37.6953 90.5273-40.4785 88.0859-42.8711L86.6211-44.3848C93.8965-50.9277 102.197-52.002 107.227-57.0801C114.355-64.2578 112.061-74.3164 107.031-79.3457C102.051-84.375 92.0898-86.5234 84.8145-79.541C79.6387-74.5605 78.6133-66.2109 72.0703-58.8867L70.6055-60.4004C68.1641-62.793 65.3809-62.6465 62.9883-60.4492L61.7188-59.2773C58.7891-56.5918 59.375-54.0527 61.8164-51.6113L64.1113-49.3652L27.2461-12.5C12.5 2.24609 19.2871 0.341797 11.2305 11.6699L15.1367 15.8691C26.123 7.86133 24.9512 15.3809 39.9414 0.439453L77.0508-36.4258L79.3457-34.1309C81.7871-31.6895 84.3262-31.0547 86.9629-33.9844ZM25.1953 2.68555C23.0469 0.341797 23.4863-1.85547 25.7324-4.10156L67.4805-45.9961L73.7305-39.6973L31.7871 2.19727C29.7852 4.19922 27.2461 4.88281 25.1953 2.68555Z"/>
  </g>
  <g id="Thin-M" transform="matrix(1 0 0 1 795.875 1126)">
   <path d="M85.8887-34.6191L86.8164-35.6445C88.8672-37.8906 88.9648-40.4785 86.7676-42.7246L85.2539-44.3359C92.334-50.6836 100.586-51.9531 105.469-56.8848C112.354-63.8672 110.156-73.6328 105.273-78.5156C100.439-83.3984 90.7715-85.498 83.6914-78.7109C78.6621-73.877 77.4902-65.5273 71.0938-58.4473L69.5312-60.0098C67.2363-62.207 64.6484-62.0605 62.4023-60.0586L61.377-59.1309C58.5938-56.6895 59.2285-54.248 61.4746-52.002L64.0625-49.4141L27.2461-12.6465C12.8906 1.70898 19.043 0.292969 11.2305 11.2793L14.5508 14.9414C25.2441 7.12891 24.4629 14.0625 39.0625-0.439453L76.123-37.3535L78.7598-34.7168C81.0059-32.4707 83.4961-31.8359 85.8887-34.6191ZM23.7793 3.07617C21.1426 0.195312 21.6797-2.44141 24.3652-5.12695L66.3574-47.168L73.877-39.5996L31.6406 2.58789C29.2969 4.93164 26.3672 5.81055 23.7793 3.07617Z"/>
  </g>
  <g id="Ultralight-M" transform="matrix(1 0 0 1 499.653 1126)">
   <path d="M85.3516-34.9121L86.1328-35.8398C88.0859-37.9883 88.1836-40.4785 86.084-42.6758L84.5215-44.2871C91.5039-50.5859 99.8047-51.9531 104.59-56.8359C111.377-63.6719 109.18-73.291 104.395-78.125C99.6094-82.9102 90.0879-84.9609 83.1055-78.2715C78.1738-73.584 76.8555-65.2344 70.6055-58.252L68.9453-59.8145C66.7969-61.9141 64.3066-61.7188 62.1094-59.8633L61.1816-59.082C58.5449-56.7871 59.1309-54.3457 61.3281-52.1484L64.0137-49.4629L27.2461-12.6953C13.1348 1.41602 18.9453 0.244141 11.2305 11.084L14.2578 14.4531C24.7559 6.78711 24.2188 13.3789 38.623-0.878906L75.6836-37.793L78.4668-35.0586C80.6152-32.8613 83.0566-32.2266 85.3516-34.9121ZM23.0957 3.27148C20.166 0.146484 20.752-2.73438 23.6328-5.61523L65.7715-47.7539L73.9746-39.5508L31.543 2.7832C29.0527 5.27344 25.8789 6.29883 23.0957 3.27148Z"/>
  </g>
  <g id="Black-S" transform="matrix(1 0 0 1 2877.39 696)">
   <path d="M77.6855-26.5625L79.3457-28.2227C82.4219-31.25 82.373-35.0098 79.248-38.2324L78.5156-39.0137C85.6934-44.9219 92.627-44.5312 98.0469-50C105.029-57.0801 104.932-68.457 97.9004-75.5371C91.0156-82.6172 79.4922-82.8125 72.3633-75.7812C66.7969-70.3125 67.2363-63.4277 61.2793-56.25L60.6445-56.9824C57.6172-60.1074 53.7109-60.1562 50.5371-57.0312L48.8281-55.4199C45.459-52.1484 45.5078-48.7305 48.9746-45.3125L50.1953-44.0918L26.123-19.9707C11.5234-5.32227 12.8906 1.31836 8.78906 6.34766L14.9414 12.8418C19.9707 8.54492 27.7832 10.2539 42.041-3.90625L66.3574-28.0273L67.6758-26.709C71.1914-23.291 74.3652-23.2422 77.6855-26.5625ZM26.6113-3.95508C25.9277-4.78516 25.9766-5.46875 26.9043-6.39648L57.4219-36.9141L59.4238-34.9609L28.8574-4.39453C27.9297-3.51562 27.1484-3.36914 26.6113-3.95508Z"/>
  </g>
  <g id="Heavy-S" transform="matrix(1 0 0 1 2582.32 696)">
   <path d="M75.6836-28.2227L77.2461-29.7852C80.0293-32.6172 80.0293-36.0352 77.1484-38.9648L76.3184-39.7949C83.2031-45.6055 90.0391-45.459 95.1172-50.5859C101.807-57.373 101.318-67.9688 94.9707-74.3652C88.7695-80.7129 78.0762-81.2988 71.1914-74.5605C65.9668-69.4336 66.1621-62.6465 60.3516-55.7617L59.6191-56.5918C56.8359-59.4727 53.2715-59.4727 50.3906-56.6406L48.7793-55.127C45.6543-52.0996 45.8008-48.9746 48.9258-45.8984L50.1953-44.5801L25-19.3359C11.0352-5.32227 13.4766-0.732422 8.78906 5.27344L14.3555 11.1328C20.3125 6.34766 25.9277 9.17969 39.6973-4.49219L65.1367-29.7363L66.5039-28.3691C69.6777-25.293 72.6074-25.1465 75.6836-28.2227ZM25.293-4.39453C24.5117-5.37109 24.6094-6.20117 25.6348-7.22656L56.5918-38.2324L58.9844-35.8398L27.9785-4.83398C26.9531-3.85742 25.9766-3.66211 25.293-4.39453Z"/>
  </g>
  <g id="Bold-S" transform="matrix(1 0 0 1 2287.44 696)">
   <path d="M73.4375-30.127L74.8535-31.543C77.3438-34.082 77.3926-37.1582 74.7559-39.7949L73.8281-40.7227C80.4199-46.3379 87.1094-46.4355 91.8457-51.2695C98.2422-57.7148 97.2656-67.4805 91.6992-73.0469C86.2793-78.6133 76.4648-79.5898 69.9219-73.2422C65.0391-68.5059 64.9902-61.7676 59.3262-55.2246L58.4961-56.1523C55.957-58.7402 52.832-58.7402 50.1953-56.2012L48.7305-54.7852C45.8496-52.002 46.0938-49.2676 48.877-46.5332L50.2441-45.166L23.7305-18.6523C10.4492-5.32227 14.1113-3.02734 8.78906 4.10156L13.6719 9.27734C20.6543 3.90625 23.877 7.95898 37.0605-5.17578L63.7695-31.6406L65.1855-30.2246C68.0176-27.4902 70.6055-27.2461 73.4375-30.127ZM23.8281-4.93164C22.9004-6.00586 23.0469-6.98242 24.1699-8.1543L55.6641-39.7461L58.4961-36.9141L26.9531-5.32227C25.8789-4.29688 24.6582-4.00391 23.8281-4.93164Z"/>
  </g>
  <g id="Semibold-S" transform="matrix(1 0 0 1 1992 696)">
   <path d="M71.875-31.3965L73.1934-32.7637C75.4883-35.1074 75.5371-37.9395 73.1445-40.332L72.168-41.3574C78.4668-46.8262 85.1074-47.168 89.5996-51.709C95.8008-57.959 94.4336-67.0898 89.4531-72.1191C84.5215-77.1973 75.3418-78.418 69.043-72.3145C64.4043-67.8223 64.1602-61.1816 58.6426-54.834L57.7148-55.8594C55.3223-58.252 52.4902-58.2031 50.0977-55.9082L48.6816-54.5898C45.9961-51.9531 46.2891-49.4629 48.8281-46.9727L50.2441-45.5566L22.8516-18.1641C10.0586-5.32227 14.5508-4.58984 8.78906 3.27148L13.2324 7.95898C20.8984 2.19727 22.4609 7.12891 35.2539-5.61523L62.8418-32.959L64.3066-31.543C66.8457-29.0039 69.2383-28.7109 71.875-31.3965ZM22.8516-5.27344C21.7773-6.44531 21.9727-7.56836 23.1934-8.78906L55.0293-40.7715L58.2031-37.5977L26.2695-5.66406C25.1465-4.54102 23.7793-4.24805 22.8516-5.27344Z"/>
  </g>
  <g id="Medium-S" transform="matrix(1 0 0 1 1696.24 696)">
   <path d="M70.7031-32.373L71.9727-33.6914C74.1211-35.9375 74.1699-38.5254 71.9238-40.7715L70.8496-41.7969C77.002-47.2168 83.5938-47.7051 87.8906-52.0508C93.8965-58.1055 92.334-66.8457 87.7441-71.4355C83.2031-76.0742 74.5117-77.5391 68.3594-71.6309C63.9648-67.334 63.5254-60.7422 58.1055-54.5898L57.0801-55.6152C54.8828-57.9102 52.2461-57.8125 50-55.6641L48.6816-54.3945C46.0938-51.9043 46.4355-49.6094 48.7793-47.3145L50.2441-45.8496L22.2168-17.7734C9.76562-5.32227 14.8926-5.76172 8.78906 2.68555L12.8906 6.98242C21.0938 0.927734 21.3867 6.54297 33.8867-5.95703L62.1094-33.9844L63.623-32.4707C65.9668-30.1758 68.2129-29.7852 70.7031-32.373ZM22.0703-5.56641C20.9473-6.78711 21.1426-7.95898 22.4609-9.27734L54.5898-41.5527L57.959-38.1348L25.7324-5.9082C24.5605-4.78516 23.0957-4.44336 22.0703-5.56641Z"/>
  </g>
  <g id="Regular-S" transform="matrix(1 0 0 1 1400.77 696)">
   <path d="M69.1406-33.6426L70.3613-34.9121C72.2656-36.9629 72.3633-39.3066 70.3125-41.3574L69.1895-42.4316C75.0977-47.7051 81.5918-48.3887 85.6934-52.5391C91.4551-58.3496 89.5508-66.4551 85.5469-70.5566C81.4941-74.6582 73.4375-76.416 67.4805-70.7031C63.3301-66.6504 62.6953-60.1074 57.4219-54.1992L56.2988-55.3223C54.2969-57.4219 51.9043-57.3242 49.9023-55.3711L48.6328-54.1992C46.2402-51.8555 46.6797-49.8047 48.7305-47.7539L50.2441-46.2402L21.3379-17.2852C9.375-5.32227 15.2832-7.32422 8.78906 1.85547L12.4512 5.71289C21.3379-0.78125 19.9707 5.71289 32.1289-6.39648L61.1816-35.3027L62.7441-33.7402C64.7949-31.6895 66.8457-31.25 69.1406-33.6426ZM21.0938-5.9082C19.8242-7.22656 20.1172-8.49609 21.4844-9.86328L53.9551-42.5293L57.6172-38.8672L25.0488-6.25C23.8281-5.0293 22.2168-4.6875 21.0938-5.9082Z"/>
  </g>
  <g id="Light-S" transform="matrix(1 0 0 1 1104.7 696)">
   <path d="M68.457-34.082L69.4336-35.1562C71.2402-37.1094 71.3379-39.3066 69.3848-41.2598L68.2617-42.3828C74.0234-47.5586 80.5176-48.3887 84.5215-52.3926C90.1367-58.1055 88.3301-66.0156 84.375-70.0195C80.4199-73.9746 72.5098-75.6836 66.748-70.166C62.6465-66.2109 61.9141-59.668 56.7383-53.9062L55.6152-55.0781C53.6621-56.9824 51.416-56.8848 49.5117-55.127L48.4375-54.1016C46.0938-51.9531 46.582-49.9512 48.5352-47.998L50.2441-46.2891L21.3379-17.3828C9.66797-5.71289 15.1367-7.37305 8.78906 1.61133L12.0117 5.07812C20.752-1.26953 19.6777 4.78516 31.543-6.98242L60.5957-35.8887L62.3047-34.1797C64.3066-32.2266 66.3086-31.7383 68.457-34.082ZM20.1172-5.66406C18.6035-7.32422 18.8965-8.93555 20.5566-10.5469L53.1738-43.3105L57.7148-38.7695L24.9512-6.00586C23.4863-4.54102 21.6309-4.05273 20.1172-5.66406Z"/>
  </g>
  <g id="Thin-S" transform="matrix(1 0 0 1 808.839 696)">
   <path d="M67.4805-34.6191L68.2617-35.498C69.9219-37.2559 70.0195-39.3555 68.2129-41.1621L67.041-42.3828C72.6074-47.4121 79.1016-48.3398 82.959-52.2461C88.4277-57.7637 86.6699-65.4785 82.8125-69.2871C79.0039-73.1445 71.3379-74.8047 65.7715-69.4336C61.8164-65.6738 60.8887-59.1309 55.8594-53.5156L54.6387-54.7363C52.8809-56.4941 50.7812-56.3477 49.0234-54.7852L48.1445-54.0039C45.9473-52.0508 46.4355-50.0977 48.2422-48.291L50.1953-46.3379L21.3379-17.4805C10.0098-6.20117 14.9902-7.37305 8.78906 1.26953L11.5234 4.24805C19.9219-1.9043 19.2383 3.61328 30.7617-7.8125L59.8145-36.7188L61.8164-34.7168C63.623-32.9102 65.5762-32.4219 67.4805-34.6191ZM18.8965-5.32227C16.9434-7.42188 17.334-9.42383 19.3359-11.4258L52.1973-44.3359L57.8613-38.6719L24.8047-5.66406C23.0469-3.90625 20.8008-3.27148 18.8965-5.32227Z"/>
  </g>
  <g id="Ultralight-S" transform="matrix(1 0 0 1 512.543 696)">
   <path d="M66.9922-34.9121L67.6758-35.6445C69.1895-37.4023 69.2871-39.3555 67.627-41.0645L66.4062-42.334C71.875-47.2656 78.3691-48.3398 82.1777-52.1484C87.5-57.5684 85.791-65.1367 82.0312-68.9453C78.2227-72.7051 70.752-74.3164 65.2344-69.0918C61.377-65.332 60.3516-58.7891 55.4199-53.3203L54.1504-54.541C52.4414-56.2012 50.4883-56.0547 48.7305-54.5898L47.998-53.9062C45.8496-52.0996 46.3379-50.1953 48.0957-48.4375L50.1465-46.3867L21.3379-17.5781C10.2051-6.44531 14.8438-7.42188 8.78906 1.12305L11.2305 3.80859C19.5312-2.19727 19.043 3.02734 30.3711-8.20312L59.4238-37.1094L61.5234-35.0098C63.2812-33.252 65.1855-32.7637 66.9922-34.9121ZM18.2617-5.12695C16.0645-7.51953 16.5039-9.7168 18.7012-11.9141L51.6602-44.873L57.9102-38.623L24.707-5.51758C22.8027-3.61328 20.4102-2.83203 18.2617-5.12695Z"/>
  </g>
 </g>
</svg>
