<svg clip-rule="evenodd" fill-rule="evenodd" stroke-linecap="round" stroke-linejoin="round" viewBox="0 0 223 56" xmlns="http://www.w3.org/2000/svg" xmlns:xlink="http://www.w3.org/1999/xlink"><clipPath id="a"><path clip-rule="evenodd" d="m103.25 41c0-3.771 0-5.657 1.172-6.828 1.171-1.172 3.057-1.172 6.828-1.172s5.657 0 6.828 1.172c1.172 1.171 1.172 3.057 1.172 6.828s0 5.657-1.172 6.828c-1.171 1.172-3.057 1.172-6.828 1.172s-5.657 0-6.828-1.172c-1.172-1.171-1.172-3.057-1.172-6.828z"/></clipPath><path d="m218.35 35c0-3.311-2.689-6-6-6h-202.394c-3.311 0-6 2.689-6 6v12c0 3.311 2.689 6 6 6h202.394c3.311 0 6-2.689 6-6z" fill="#0b0b0b" fill-opacity=".05"/><g clip-path="url(#a)"><path d="m107.014 45.232c-1.289-1.023-2.268-2.504-2.753-4.232.929-3.319 3.692-5.727 6.955-5.727s6.026 2.408 6.954 5.727c-.928 3.319-3.691 5.727-6.954 5.727-.251 0-.499-.014-.745-.041m-3.312-1.595 2.356-2.356m0 0c.456.464 1.079.728 1.73.734.651.005 1.277-.248 1.741-.705s.728-1.079.734-1.73c.005-.651-.249-1.277-.705-1.742-.457-.464-1.079-.728-1.73-.733s-1.278.248-1.742.705c-.464.456-.728 1.079-.733 1.73s.248 1.277.705 1.741z" fill="none" stroke="#0b0b0b" stroke-width="1.5"/></g></svg>