<svg width="14" height="14" viewBox="0 0 14 14" fill="none" xmlns="http://www.w3.org/2000/svg">
<path d="M10.2122 7.6998L10.4325 7.47953C10.8198 7.08458 10.8274 6.60606 10.4173 6.1959L10.2729 6.05158C11.2983 5.1781 12.3389 5.16292 13.0757 4.41097C14.0707 3.40836 13.9188 1.88926 13.0529 1.02337C12.2098 0.157487 10.6831 0.00558647 9.66531 0.992991C8.90577 1.72975 8.89816 2.77793 8.01709 3.79573L7.88797 3.65142C7.493 3.24886 7.00689 3.24886 6.59673 3.64381L6.36887 3.86408C5.92073 4.29702 5.95872 4.72237 6.39166 5.14772L6.60432 5.3604L2.47999 9.48475C0.414006 11.5583 0.983666 11.9153 0.155762 13.0242L0.915315 13.8294C2.00147 12.9939 2.50277 13.6243 4.55354 11.5811L8.70827 7.46435L8.92854 7.68462C9.36909 8.10997 9.77165 8.14794 10.2122 7.6998ZM2.49517 11.6191C2.35086 11.452 2.37365 11.3001 2.54834 11.1178L7.44743 6.2035L7.88797 6.64403L2.98128 11.5583C2.81418 11.7178 2.62429 11.7634 2.49517 11.6191Z" fill="black"/>
</svg>
