<svg width="14" height="14" viewBox="0 0 14 14" fill="none" xmlns="http://www.w3.org/2000/svg">
<path d="M6.38742 13.6644H7.60269C8.17235 13.6644 8.63569 13.2998 8.7648 12.7605L8.97748 11.8415L9.04585 11.8187L9.85097 12.3048C10.3295 12.601 10.9143 12.5251 11.3093 12.1149L12.1524 11.2794C12.555 10.8616 12.6309 10.2844 12.3347 9.82107L11.841 9.02354L11.8638 8.96278L12.7752 8.74251C13.3145 8.60579 13.6715 8.14247 13.6715 7.5804V6.41829C13.6715 5.84863 13.3145 5.38531 12.7752 5.25618L11.8714 5.02831L11.841 4.96755L12.3423 4.17003C12.6385 3.6991 12.5626 3.12944 12.1524 2.70409L11.3169 1.86859C10.9219 1.46603 10.3371 1.38248 9.85856 1.6787L9.05344 2.16481L8.97748 2.13443L8.7648 1.21538C8.63569 0.676099 8.17235 0.311523 7.60269 0.311523H6.38742C5.81017 0.311523 5.34684 0.676099 5.21772 1.21538L5.00504 2.13443L4.93669 2.16481L4.13157 1.6787C3.65305 1.38248 3.06819 1.46603 2.67323 1.86859L1.83014 2.70409C1.41997 3.12944 1.35162 3.6991 1.64784 4.17003L2.14154 4.96755L2.11876 5.02831L1.20731 5.25618C0.668023 5.38531 0.311035 5.84863 0.311035 6.41829V7.5804C0.311035 8.14247 0.675619 8.61338 1.20731 8.74251L2.12636 8.96278L2.14914 9.02354L1.64784 9.82107C1.35162 10.2844 1.42758 10.8616 1.83773 11.2794L2.67323 12.1149C3.0758 12.5251 3.66064 12.601 4.13916 12.3048L4.94428 11.8187L5.00504 11.8415L5.21772 12.7605C5.34684 13.2998 5.81017 13.6644 6.38742 13.6644ZM6.63808 12.2212C6.55453 12.2212 6.51654 12.1833 6.50136 12.1149L6.15956 10.6642C5.7418 10.5806 5.33165 10.4059 4.96707 10.1629L3.69103 10.9452C3.63026 10.9908 3.5695 10.9832 3.50874 10.93L3.02263 10.4363C2.96187 10.3831 2.96946 10.3224 3.00743 10.2616L3.79736 8.98556C3.5695 8.62858 3.4024 8.23361 3.31885 7.81586L1.86052 7.47406C1.79215 7.45887 1.74659 7.42089 1.74659 7.33734V6.66135C1.74659 6.57019 1.78456 6.53222 1.86052 6.51704L3.31124 6.17524C3.4024 5.74988 3.57709 5.33214 3.78976 4.99793L2.99984 3.72189C2.96187 3.66113 2.95426 3.60037 3.01504 3.5396L3.50874 3.06109C3.5695 3.00032 3.62267 3.00032 3.69103 3.0383L4.95948 3.81303C5.2633 3.60796 5.72662 3.41047 6.15956 3.31933L6.50136 1.861C6.51654 1.79265 6.55453 1.75466 6.63808 1.75466H7.34446C7.42801 1.75466 7.46598 1.79265 7.48117 1.861L7.83057 3.31933C8.26351 3.41047 8.66607 3.59276 9.02306 3.81303L10.2839 3.04589C10.3599 3.00792 10.4054 3.00792 10.4738 3.06868L10.9599 3.5472C11.0207 3.60796 11.0131 3.66872 10.9751 3.72948L10.2004 4.99793C10.4054 5.33214 10.5801 5.74988 10.6713 6.16764L12.122 6.51704C12.198 6.53222 12.2359 6.57019 12.2359 6.66135V7.33734C12.2359 7.42089 12.198 7.45887 12.122 7.47406L10.6637 7.82346C10.5801 8.22602 10.413 8.64376 10.1928 8.98556L10.9751 10.254C11.0055 10.3148 11.0131 10.3755 10.9523 10.4287L10.4662 10.9224C10.4054 10.9832 10.3447 10.9832 10.2839 10.9376L9.02306 10.1629C8.65087 10.4059 8.2863 10.5654 7.83057 10.6642L7.48117 12.1149C7.46598 12.1833 7.42801 12.2212 7.34446 12.2212H6.63808ZM6.99506 9.22862C8.21793 9.22862 9.22814 8.21841 9.22814 6.98795C9.22814 5.76508 8.21793 4.76248 6.99506 4.76248C5.76459 4.76248 4.7544 5.76508 4.7544 6.98795C4.7544 8.22602 5.76459 9.22862 6.99506 9.22862ZM6.99506 7.95258C6.46337 7.95258 6.03802 7.51964 6.03802 6.98795C6.03802 6.47146 6.47097 6.03852 6.99506 6.03852C7.50396 6.03852 7.93691 6.47146 7.93691 6.98795C7.93691 7.51203 7.50396 7.95258 6.99506 7.95258Z" fill="black"/>
</svg>
