<svg width="1024" height="1024" viewBox="0 0 1024 1024" fill="none" xmlns="http://www.w3.org/2000/svg">
<path fill-rule="evenodd" clip-rule="evenodd" d="M370.308 701.419C359.032 715.389 338.409 717.719 324.241 706.6C267.323 661.953 223.871 597.414 202.532 521.989C200.916 516.27 200.916 510.216 202.532 504.496C243.879 358.33 367.929 253.515 513.239 253.515C658.58 253.515 782.598 358.33 823.953 504.496C825.569 510.216 825.569 516.27 823.953 521.989C782.598 668.148 658.58 772.971 513.239 772.971C501.907 772.971 490.709 772.332 479.669 771.085C461.671 769.059 448.716 752.962 450.765 735.157C452.814 717.353 469.094 704.543 487.1 706.577C495.697 707.543 504.413 708.034 513.239 708.034C626.934 708.034 722.638 626.025 758.083 513.239C722.638 400.46 626.934 318.444 513.239 318.444C399.575 318.444 303.847 400.46 268.394 513.239C283.516 561.345 309.552 603.772 343.335 636.692L401.648 579.033C390.001 559.226 383.768 536.552 383.87 513.254C384.012 479.002 397.842 446.183 422.349 421.966C446.848 397.741 480.04 384.074 514.689 383.942C549.33 383.801 582.631 397.211 607.32 421.241C619.684 433.264 629.503 447.585 636.24 463.395C642.97 479.189 646.469 496.151 646.54 513.286C646.61 530.435 643.246 547.421 636.642 563.262C630.038 579.118 620.322 593.518 608.061 605.634C595.807 617.758 581.237 627.358 565.201 633.887C549.164 640.417 531.986 643.736 514.657 643.666C497.321 643.596 480.166 640.128 464.193 633.466C458.519 631.105 453.042 628.355 447.786 625.238L373.665 698.528C372.444 699.673 372.531 699.603 371.175 700.756L370.308 701.419ZM468.385 559.335C474.468 565.444 481.71 570.306 489.693 573.633C497.683 576.96 506.257 578.698 514.933 578.729C523.601 578.768 532.191 577.108 540.205 573.843C548.219 570.586 555.5 565.779 561.631 559.717C567.762 553.663 572.616 546.463 575.925 538.531C579.227 530.607 580.906 522.114 580.874 513.543C580.835 504.972 579.085 496.494 575.721 488.601C572.356 480.7 567.446 473.532 561.26 467.524C548.912 455.509 532.269 448.801 514.949 448.871C497.62 448.941 481.025 455.774 468.779 467.883C456.525 479.991 449.606 496.401 449.536 513.527C449.465 530.661 456.242 547.125 468.385 559.335V559.335Z" fill="white" style="fill:white;fill-opacity:1;"/>
</svg>
