<svg width="143" height="80" viewBox="0 0 143 80" fill="none" xmlns="http://www.w3.org/2000/svg">
<g clip-path="url(#clip0_1_10)">
<mask id="mask0_1_10" style="mask-type:alpha" maskUnits="userSpaceOnUse" x="0" y="0" width="143" height="80">
<rect width="143" height="80" rx="9" fill="#D9D9D9"/>
</mask>
<g mask="url(#mask0_1_10)">
<path d="M1 19C1 10.5147 1 6.27208 3.63604 3.63604C6.27208 1 10.5147 1 19 1H124C132.485 1 136.728 1 139.364 3.63604C142 6.27208 142 10.5147 142 19V25H1V19Z" fill="white" fill-opacity="0.1"/>
<path d="M68.2349 16.7615C67.0887 15.8524 66.2182 14.536 65.7876 13C66.6131 10.0495 69.0691 7.90909 71.9695 7.90909C74.8705 7.90909 77.3258 10.0495 78.1513 13C77.3258 15.9505 74.8705 18.0909 71.9695 18.0909C71.7462 18.0909 71.5258 18.0785 71.3076 18.0538M68.3636 16.6364L70.4575 14.5425M70.4575 14.5425C70.8633 14.9551 71.4164 15.1896 71.9951 15.1944C72.5738 15.1991 73.1307 14.9738 73.5433 14.568C73.9559 14.1622 74.1903 13.6091 74.1951 13.0304C74.1999 12.4517 73.9746 11.8948 73.5687 11.4822C73.1629 11.0696 72.6098 10.8351 72.0311 10.8304C71.4524 10.8256 70.8955 11.0509 70.4829 11.4567C70.0703 11.8626 69.8359 12.4157 69.8311 12.9944C69.8263 13.5731 70.0516 14.13 70.4575 14.5425Z" stroke="white" stroke-width="1.5" stroke-linecap="round" stroke-linejoin="round"/>
</g>
</g>
<defs>
<clipPath id="clip0_1_10">
<rect width="143" height="80" fill="white"/>
</clipPath>
</defs>
</svg>
