<svg width="14" height="14" viewBox="0 0 14 14" fill="none" xmlns="http://www.w3.org/2000/svg">
<g clip-path="url(#clip0_301_19376)">
<path d="M7.37448 12.8804C9.79419 12.8804 11.4074 11.9832 11.4074 10.6449C11.4074 9.48601 10.4568 9.18696 10.4568 8.54394C10.4568 7.69908 13.7335 7.42244 13.7335 5.02244C13.7335 2.6 11.3354 1 7.79217 1C3.14712 1 0 3.42243 0 7.04113C0 10.5327 2.98868 12.8804 7.37448 12.8804ZM7.37448 11.729C3.58641 11.729 1.10905 9.85235 1.10905 7.04113C1.10905 4.10281 3.74485 2.15141 7.79217 2.15141C10.716 2.15141 12.6244 3.31776 12.6244 5.02244C12.6244 7.02618 9.32613 6.75702 9.32613 8.55141C9.32613 9.56073 10.2983 9.90472 10.2983 10.5701C10.2983 11.2654 9.13167 11.729 7.37448 11.729ZM6.90637 10.3907C7.74895 10.3907 8.43308 9.67289 8.43308 8.79811C8.43308 7.93085 7.74895 7.21309 6.90637 7.21309C6.07098 7.21309 5.37962 7.93085 5.37962 8.79811C5.37962 9.67289 6.07098 10.3907 6.90637 10.3907ZM6.90637 9.62803C6.46707 9.62803 6.11419 9.26168 6.11419 8.79811C6.11419 8.27478 6.49587 7.99067 6.89196 7.98319C7.30246 7.97571 7.70574 8.25235 7.70574 8.79811C7.70574 9.26168 7.35287 9.62803 6.90637 9.62803Z" fill="black"/>
<path d="M2.92386 7.88619C3.46399 7.88619 3.89608 7.42263 3.89608 6.86189C3.89608 6.30114 3.46399 5.85254 2.92386 5.85254C2.38374 5.85254 1.94444 6.30114 1.94444 6.86189C1.94444 7.42263 2.38374 7.88619 2.92386 7.88619Z" fill="black"/>
<path d="M4.98353 5.9795C5.63888 5.9795 6.1718 5.44118 6.1718 4.73838C6.1718 4.05053 5.63888 3.51221 4.98353 3.51221C4.31378 3.51221 3.77366 4.05053 3.77366 4.73838C3.77366 5.44118 4.31378 5.9795 4.98353 5.9795Z" fill="black"/>
<path d="M7.84261 5.0522C8.38271 5.0522 8.82201 4.59613 8.82201 4.03538C8.82201 3.47463 8.38271 3.01855 7.84261 3.01855C7.30246 3.01855 6.85596 3.47463 6.85596 4.03538C6.85596 4.59613 7.30246 5.0522 7.84261 5.0522Z" fill="black"/>
<path d="M10.4208 5.43356C10.8601 5.43356 11.213 5.05972 11.213 4.59617C11.213 4.14009 10.8601 3.75879 10.4208 3.75879C9.97427 3.75879 9.60695 4.14009 9.60695 4.59617C9.60695 5.05972 9.97427 5.43356 10.4208 5.43356Z" fill="black"/>
</g>
<defs>
<clipPath id="clip0_301_19376">
<rect width="14" height="12" fill="white" transform="translate(0 1)"/>
</clipPath>
</defs>
</svg>
