<?xml version="1.0" encoding="UTF-8"?>
<!--Generator: Apple Native CoreSVG 149-->
<!DOCTYPE svg
PUBLIC "-//W3C//DTD SVG 1.1//EN"
       "http://www.w3.org/Graphics/SVG/1.1/DTD/svg11.dtd">
<svg version="1.1" xmlns="http://www.w3.org/2000/svg" xmlns:xlink="http://www.w3.org/1999/xlink" width="3300" height="2200">
 <!--glyph: "uni100063.medium", point size: 100.000000, font version: "Version 16.0d18e1", template writer version: "8"-->
 <g id="Notes">
  <rect height="2200" id="artboard" style="fill:white;opacity:1" width="3300" x="0" y="0"/>
  <line id="" style="fill:none;stroke:black;opacity:1;stroke-width:0.5;" x1="263" x2="3036" y1="292" y2="292"/>
  <text style="stroke:none;fill:black;font-family:-apple-system,&quot;SF Pro Display&quot;,&quot;SF Pro Text&quot;,Helvetica,sans-serif;font-weight:bold;" transform="matrix(1 0 0 1 263 322)">Weight/Scale Variations</text>
  <text style="stroke:none;fill:black;font-family:-apple-system,&quot;SF Pro Display&quot;,&quot;SF Pro Text&quot;,Helvetica,sans-serif;text-anchor:middle;" transform="matrix(1 0 0 1 559.711 322)">Ultralight</text>
  <text style="stroke:none;fill:black;font-family:-apple-system,&quot;SF Pro Display&quot;,&quot;SF Pro Text&quot;,Helvetica,sans-serif;text-anchor:middle;" transform="matrix(1 0 0 1 856.422 322)">Thin</text>
  <text style="stroke:none;fill:black;font-family:-apple-system,&quot;SF Pro Display&quot;,&quot;SF Pro Text&quot;,Helvetica,sans-serif;text-anchor:middle;" transform="matrix(1 0 0 1 1153.13 322)">Light</text>
  <text style="stroke:none;fill:black;font-family:-apple-system,&quot;SF Pro Display&quot;,&quot;SF Pro Text&quot;,Helvetica,sans-serif;text-anchor:middle;" transform="matrix(1 0 0 1 1449.84 322)">Regular</text>
  <text style="stroke:none;fill:black;font-family:-apple-system,&quot;SF Pro Display&quot;,&quot;SF Pro Text&quot;,Helvetica,sans-serif;text-anchor:middle;" transform="matrix(1 0 0 1 1746.56 322)">Medium</text>
  <text style="stroke:none;fill:black;font-family:-apple-system,&quot;SF Pro Display&quot;,&quot;SF Pro Text&quot;,Helvetica,sans-serif;text-anchor:middle;" transform="matrix(1 0 0 1 2043.27 322)">Semibold</text>
  <text style="stroke:none;fill:black;font-family:-apple-system,&quot;SF Pro Display&quot;,&quot;SF Pro Text&quot;,Helvetica,sans-serif;text-anchor:middle;" transform="matrix(1 0 0 1 2339.98 322)">Bold</text>
  <text style="stroke:none;fill:black;font-family:-apple-system,&quot;SF Pro Display&quot;,&quot;SF Pro Text&quot;,Helvetica,sans-serif;text-anchor:middle;" transform="matrix(1 0 0 1 2636.69 322)">Heavy</text>
  <text style="stroke:none;fill:black;font-family:-apple-system,&quot;SF Pro Display&quot;,&quot;SF Pro Text&quot;,Helvetica,sans-serif;text-anchor:middle;" transform="matrix(1 0 0 1 2933.4 322)">Black</text>
  <line id="" style="fill:none;stroke:black;opacity:1;stroke-width:0.5;" x1="263" x2="3036" y1="1903" y2="1903"/>
  <g id="" transform="matrix(1 0 0 1 263 1933)">
   <path d="M9.24805 0.830078C13.5547 0.830078 17.1387-2.74414 17.1387-7.05078C17.1387-11.3574 13.5449-14.9316 9.23828-14.9316C4.94141-14.9316 1.36719-11.3574 1.36719-7.05078C1.36719-2.74414 4.95117 0.830078 9.24805 0.830078ZM9.24805-0.654297C5.70312-0.654297 2.87109-3.49609 2.87109-7.05078C2.87109-10.6055 5.69336-13.4473 9.23828-13.4473C12.793-13.4473 15.6348-10.6055 15.6445-7.05078C15.6543-3.49609 12.8027-0.654297 9.24805-0.654297ZM6.39648-6.31836L8.50586-6.31836L8.50586-4.19922C8.50586-3.75977 8.79883-3.45703 9.22852-3.45703C9.67773-3.45703 9.9707-3.75977 9.9707-4.19922L9.9707-6.31836L12.0996-6.31836C12.5391-6.31836 12.8418-6.61133 12.8418-7.04102C12.8418-7.48047 12.5391-7.7832 12.0996-7.7832L9.9707-7.7832L9.9707-9.89258C9.9707-10.3418 9.67773-10.6445 9.22852-10.6445C8.79883-10.6445 8.50586-10.3418 8.50586-9.89258L8.50586-7.7832L6.39648-7.7832C5.94727-7.7832 5.64453-7.48047 5.64453-7.04102C5.64453-6.61133 5.94727-6.31836 6.39648-6.31836Z"/>
  </g>
  <g id="" transform="matrix(1 0 0 1 281.506 1933)">
   <path d="M11.709 2.91016C17.1582 2.91016 21.6699-1.61133 21.6699-7.05078C21.6699-12.5 17.1484-17.0117 11.6992-17.0117C6.25977-17.0117 1.74805-12.5 1.74805-7.05078C1.74805-1.61133 6.26953 2.91016 11.709 2.91016ZM11.709 1.25C7.09961 1.25 3.41797-2.44141 3.41797-7.05078C3.41797-11.6602 7.08984-15.3516 11.6992-15.3516C16.3086-15.3516 20-11.6602 20.0098-7.05078C20.0195-2.44141 16.3184 1.25 11.709 1.25ZM7.98828-6.23047L10.8789-6.23047L10.8789-3.32031C10.8789-2.83203 11.2109-2.5 11.6895-2.5C12.1777-2.5 12.5195-2.83203 12.5195-3.32031L12.5195-6.23047L15.4297-6.23047C15.918-6.23047 16.25-6.5625 16.25-7.04102C16.25-7.5293 15.918-7.87109 15.4297-7.87109L12.5195-7.87109L12.5195-10.7617C12.5195-11.2695 12.1777-11.6016 11.6895-11.6016C11.2109-11.6016 10.8789-11.2598 10.8789-10.7617L10.8789-7.87109L7.98828-7.87109C7.48047-7.87109 7.14844-7.5293 7.14844-7.04102C7.14844-6.5625 7.49023-6.23047 7.98828-6.23047Z"/>
  </g>
  <g id="" transform="matrix(1 0 0 1 304.924 1933)">
   <path d="M14.9707 5.66406C21.9336 5.66406 27.6953-0.0976562 27.6953-7.05078C27.6953-14.0137 21.9238-19.7754 14.9609-19.7754C8.00781-19.7754 2.25586-14.0137 2.25586-7.05078C2.25586-0.0976562 8.01758 5.66406 14.9707 5.66406ZM14.9707 3.84766C8.93555 3.84766 4.08203-1.01562 4.08203-7.05078C4.08203-13.0957 8.92578-17.9492 14.9609-17.9492C21.0059-17.9492 25.8594-13.0957 25.8691-7.05078C25.8789-1.01562 21.0156 3.84766 14.9707 3.84766ZM10.0586-6.14258L14.0625-6.14258L14.0625-2.12891C14.0625-1.5918 14.4336-1.2207 14.9512-1.2207C15.4883-1.2207 15.8594-1.5918 15.8594-2.12891L15.8594-6.14258L19.8828-6.14258C20.4102-6.14258 20.791-6.51367 20.791-7.03125C20.791-7.56836 20.4199-7.94922 19.8828-7.94922L15.8594-7.94922L15.8594-11.9531C15.8594-12.5098 15.4883-12.8809 14.9512-12.8809C14.4336-12.8809 14.0625-12.5 14.0625-11.9531L14.0625-7.94922L10.0586-7.94922C9.50195-7.94922 9.13086-7.56836 9.13086-7.03125C9.13086-6.51367 9.51172-6.14258 10.0586-6.14258Z"/>
  </g>
  <text style="stroke:none;fill:black;font-family:-apple-system,&quot;SF Pro Display&quot;,&quot;SF Pro Text&quot;,Helvetica,sans-serif;font-weight:bold;" transform="matrix(1 0 0 1 263 1953)">Design Variations</text>
  <text style="stroke:none;fill:black;font-family:-apple-system,&quot;SF Pro Display&quot;,&quot;SF Pro Text&quot;,Helvetica,sans-serif;" transform="matrix(1 0 0 1 263 1971)">Symbols are supported in up to nine weights and three scales.</text>
  <text style="stroke:none;fill:black;font-family:-apple-system,&quot;SF Pro Display&quot;,&quot;SF Pro Text&quot;,Helvetica,sans-serif;" transform="matrix(1 0 0 1 263 1989)">For optimal layout with text and other symbols, vertically align</text>
  <text style="stroke:none;fill:black;font-family:-apple-system,&quot;SF Pro Display&quot;,&quot;SF Pro Text&quot;,Helvetica,sans-serif;" transform="matrix(1 0 0 1 263 2007)">symbols with the adjacent text.</text>
  <line id="" style="fill:none;stroke:#00AEEF;stroke-width:0.5;opacity:1.0;" x1="776" x2="776" y1="1919" y2="1933"/>
  <g id="" transform="matrix(1 0 0 1 776 1933)">
   <path d="M3.31055 0.126953C3.82812 0.126953 4.08203-0.0683594 4.26758-0.605469L5.52734-4.0625L11.2891-4.0625L12.5488-0.605469C12.7344-0.0683594 12.9883 0.126953 13.4961 0.126953C14.0137 0.126953 14.3457-0.185547 14.3457-0.673828C14.3457-0.839844 14.3164-0.986328 14.2383-1.20117L9.6582-13.3887C9.43359-13.9941 9.0332-14.2871 8.4082-14.2871C7.80273-14.2871 7.39258-13.9941 7.17773-13.3984L2.59766-1.19141C2.51953-0.976562 2.49023-0.830078 2.49023-0.664062C2.49023-0.175781 2.80273 0.126953 3.31055 0.126953ZM6.00586-5.53711L8.37891-12.1094L8.42773-12.1094L10.8008-5.53711Z"/>
  </g>
  <line id="" style="fill:none;stroke:#00AEEF;stroke-width:0.5;opacity:1.0;" x1="792.836" x2="792.836" y1="1919" y2="1933"/>
  <text style="stroke:none;fill:black;font-family:-apple-system,&quot;SF Pro Display&quot;,&quot;SF Pro Text&quot;,Helvetica,sans-serif;font-weight:bold;" transform="matrix(1 0 0 1 776 1953)">Margins</text>
  <text style="stroke:none;fill:black;font-family:-apple-system,&quot;SF Pro Display&quot;,&quot;SF Pro Text&quot;,Helvetica,sans-serif;" transform="matrix(1 0 0 1 776 1971)">Leading and trailing margins on the left and right side of each symbol</text>
  <text style="stroke:none;fill:black;font-family:-apple-system,&quot;SF Pro Display&quot;,&quot;SF Pro Text&quot;,Helvetica,sans-serif;" transform="matrix(1 0 0 1 776 1989)">can be adjusted by modifying the x-location of the margin guidelines.</text>
  <text style="stroke:none;fill:black;font-family:-apple-system,&quot;SF Pro Display&quot;,&quot;SF Pro Text&quot;,Helvetica,sans-serif;" transform="matrix(1 0 0 1 776 2007)">Modifications are automatically applied proportionally to all</text>
  <text style="stroke:none;fill:black;font-family:-apple-system,&quot;SF Pro Display&quot;,&quot;SF Pro Text&quot;,Helvetica,sans-serif;" transform="matrix(1 0 0 1 776 2025)">scales and weights.</text>
  <g id="" transform="matrix(1 0 0 1 1289 1933)">
   <path d="M2.8418 1.86523L4.54102 3.57422C5.40039 4.44336 6.38672 4.38477 7.31445 3.35938L17.4902-7.85156C17.7539-7.76367 18.0273-7.7832 18.3398-7.8418L19.4043-8.03711L20.0684-7.36328L20.0293-6.80664C19.9902-6.30859 20.1172-5.92773 20.6055-5.44922L21.3672-4.70703C21.8457-4.22852 22.4609-4.19922 22.9297-4.66797L25.8398-7.58789C26.3086-8.05664 26.2891-8.65234 25.8105-9.13086L25.0391-9.89258C24.5605-10.3711 24.1895-10.5273 23.7109-10.4883L23.1348-10.4395L22.4902-11.0742L22.7344-12.1973C22.8613-12.7637 22.7051-13.2031 22.1191-13.7891L19.9219-15.9766C16.582-19.2969 12.1484-19.2188 9.25781-16.3281C8.83789-15.918 8.80859-15.3418 9.04297-14.9512C9.27734-14.5898 9.73633-14.3555 10.3809-14.5215C11.8457-14.8633 13.3691-14.9219 14.7949-13.9844L14.209-12.5293C14.0137-12.0508 13.9844-11.6504 14.1113-11.2891L3.04688-0.898438C2.06055 0.0195312 1.98242 0.996094 2.8418 1.86523ZM10.752-15.957C13.1836-17.7344 16.4746-17.4316 18.7012-15.2051L21.1328-12.793C21.3672-12.5586 21.4062-12.373 21.3379-12.0312L21.0156-10.5469L22.5195-9.0625L23.5059-9.12109C23.7598-9.13086 23.8379-9.11133 24.0332-8.91602L24.6094-8.33984L22.168-5.89844L21.5918-6.47461C21.3965-6.66992 21.3672-6.74805 21.377-7.01172L21.4453-7.98828L19.9512-9.47266L18.4277-9.21875C18.1055-9.15039 17.959-9.17969 17.7148-9.41406L15.7129-11.416C15.459-11.6504 15.4297-11.8164 15.5859-12.1875L16.4648-14.2773C14.9023-15.7324 12.8711-16.3574 10.8398-15.7617C10.6836-15.7227 10.625-15.8496 10.752-15.957ZM5.27344 2.30469L4.10156 1.14258C3.63281 0.683594 3.74023 0.341797 4.14062-0.0195312L14.9512-10.1953L16.416-8.71094L6.42578 2.27539C6.07422 2.67578 5.74219 2.77344 5.27344 2.30469Z"/>
  </g>
  <text style="stroke:none;fill:black;font-family:-apple-system,&quot;SF Pro Display&quot;,&quot;SF Pro Text&quot;,Helvetica,sans-serif;font-weight:bold;" transform="matrix(1 0 0 1 1289 1953)">Exporting</text>
  <text style="stroke:none;fill:black;font-family:-apple-system,&quot;SF Pro Display&quot;,&quot;SF Pro Text&quot;,Helvetica,sans-serif;" transform="matrix(1 0 0 1 1289 1971)">Symbols should be outlined when exporting to ensure the</text>
  <text style="stroke:none;fill:black;font-family:-apple-system,&quot;SF Pro Display&quot;,&quot;SF Pro Text&quot;,Helvetica,sans-serif;" transform="matrix(1 0 0 1 1289 1989)">design is preserved when submitting to Xcode.</text>
  <text id="template-version" style="stroke:none;fill:black;font-family:-apple-system,&quot;SF Pro Display&quot;,&quot;SF Pro Text&quot;,Helvetica,sans-serif;text-anchor:end;" transform="matrix(1 0 0 1 3036 1933)">Template v.2.0</text>
  <text style="stroke:none;fill:black;font-family:-apple-system,&quot;SF Pro Display&quot;,&quot;SF Pro Text&quot;,Helvetica,sans-serif;text-anchor:end;" transform="matrix(1 0 0 1 3036 1951)">Requires Xcode 12 or greater</text>
  <text style="stroke:none;fill:black;font-family:-apple-system,&quot;SF Pro Display&quot;,&quot;SF Pro Text&quot;,Helvetica,sans-serif;text-anchor:end;" transform="matrix(1 0 0 1 3036 1969)">Generated from checkmark.circle.fill</text>
  <text style="stroke:none;fill:black;font-family:-apple-system,&quot;SF Pro Display&quot;,&quot;SF Pro Text&quot;,Helvetica,sans-serif;text-anchor:end;" transform="matrix(1 0 0 1 3036 1987)">Typeset at 100 points</text>
  <text style="stroke:none;fill:black;font-family:-apple-system,&quot;SF Pro Display&quot;,&quot;SF Pro Text&quot;,Helvetica,sans-serif;" transform="matrix(1 0 0 1 263 726)">Small</text>
  <text style="stroke:none;fill:black;font-family:-apple-system,&quot;SF Pro Display&quot;,&quot;SF Pro Text&quot;,Helvetica,sans-serif;" transform="matrix(1 0 0 1 263 1156)">Medium</text>
  <text style="stroke:none;fill:black;font-family:-apple-system,&quot;SF Pro Display&quot;,&quot;SF Pro Text&quot;,Helvetica,sans-serif;" transform="matrix(1 0 0 1 263 1586)">Large</text>
 </g>
 <g id="Guides">
  <g id="H-reference" style="fill:#27AAE1;stroke:none;" transform="matrix(1 0 0 1 339 696)">
   <path d="M0.976562 0L3.66211 0L12.9883-24.4629L45.752-24.4629L55.127 0L57.7637 0L30.6152-70.459L28.125-70.459ZM29.3457-67.1387L29.4434-67.1387L44.873-26.709L13.8672-26.709Z"/>
  </g>
  <line id="Baseline-S" style="fill:none;stroke:#27AAE1;opacity:1;stroke-width:0.5;" x1="263" x2="3036" y1="696" y2="696"/>
  <line id="Capline-S" style="fill:none;stroke:#27AAE1;opacity:1;stroke-width:0.5;" x1="263" x2="3036" y1="625.541" y2="625.541"/>
  <g id="H-reference" style="fill:#27AAE1;stroke:none;" transform="matrix(1 0 0 1 339 1126)">
   <path d="M0.976562 0L3.66211 0L12.9883-24.4629L45.752-24.4629L55.127 0L57.7637 0L30.6152-70.459L28.125-70.459ZM29.3457-67.1387L29.4434-67.1387L44.873-26.709L13.8672-26.709Z"/>
  </g>
  <line id="Baseline-M" style="fill:none;stroke:#27AAE1;opacity:1;stroke-width:0.5;" x1="263" x2="3036" y1="1126" y2="1126"/>
  <line id="Capline-M" style="fill:none;stroke:#27AAE1;opacity:1;stroke-width:0.5;" x1="263" x2="3036" y1="1055.54" y2="1055.54"/>
  <g id="H-reference" style="fill:#27AAE1;stroke:none;" transform="matrix(1 0 0 1 339 1556)">
   <path d="M0.976562 0L3.66211 0L12.9883-24.4629L45.752-24.4629L55.127 0L57.7637 0L30.6152-70.459L28.125-70.459ZM29.3457-67.1387L29.4434-67.1387L44.873-26.709L13.8672-26.709Z"/>
  </g>
  <line id="Baseline-L" style="fill:none;stroke:#27AAE1;opacity:1;stroke-width:0.5;" x1="263" x2="3036" y1="1556" y2="1556"/>
  <line id="Capline-L" style="fill:none;stroke:#27AAE1;opacity:1;stroke-width:0.5;" x1="263" x2="3036" y1="1485.54" y2="1485.54"/>
  <line id="left-margin" style="fill:none;stroke:#00AEEF;stroke-width:0.5;opacity:1.0;" x1="1391.3" x2="1391.3" y1="1030.79" y2="1150.12"/>
  <line id="right-margin" style="fill:none;stroke:#00AEEF;stroke-width:0.5;opacity:1.0;" x1="1508.39" x2="1508.39" y1="1030.79" y2="1150.12"/>
 </g>
 <g id="Symbols">
  <g id="Black-L" transform="matrix(1 0 0 1 2854.05 1556)">
   <path d="M79.3457 32.8613C116.748 32.8613 147.412 2.19727 147.412-35.2051C147.412-72.6074 116.748-103.271 79.2969-103.271C41.8945-103.271 11.2793-72.6074 11.2793-35.2051C11.2793 2.19727 41.9434 32.8613 79.3457 32.8613ZM72.4121-3.07617C69.0918-3.07617 66.5039-4.63867 64.2578-7.27539L50.293-23.7305C48.5352-25.8301 47.9004-27.5879 47.9004-29.7363C47.9004-34.3262 51.6602-37.9883 56.25-37.9883C58.8867-37.9883 60.8398-36.9141 62.6953-34.7656L72.3145-23.291L95.1172-59.4238C97.1191-62.5488 99.4629-64.1602 102.441-64.1602C106.982-64.1602 111.035-60.8398 111.035-56.25C111.035-54.4922 110.4-52.5391 109.082-50.6836L80.2734-7.4707C78.418-4.73633 75.5371-3.07617 72.4121-3.07617Z"/>
  </g>
  <g id="Heavy-L" transform="matrix(1 0 0 1 2558.39 1556)">
   <path d="M78.2715 31.7871C115.088 31.7871 145.312 1.5625 145.312-35.2051C145.312-72.0215 115.039-102.246 78.2715-102.246C41.4551-102.246 11.2793-72.0215 11.2793-35.2051C11.2793 1.5625 41.5039 31.7871 78.2715 31.7871ZM71.3379-3.41797C68.3594-3.41797 66.0156-4.83398 63.9648-7.27539L49.4141-24.6094C47.8516-26.4648 47.2656-28.0762 47.2656-29.9805C47.2656-34.082 50.5859-37.3535 54.6387-37.3535C57.0312-37.3535 58.8379-36.377 60.5469-34.3262L71.1914-21.4844L95.2637-59.6191C97.0215-62.4512 99.1699-63.8672 101.807-63.8672C105.811-63.8672 109.424-60.8887 109.424-56.8359C109.424-55.2246 108.789-53.418 107.617-51.7578L78.418-7.42188C76.709-4.93164 74.1699-3.41797 71.3379-3.41797Z"/>
  </g>
  <g id="Bold-L" transform="matrix(1 0 0 1 2262.88 1556)">
   <path d="M77.0996 30.5664C113.232 30.5664 142.92 0.878906 142.92-35.2539C142.92-71.3379 113.184-101.074 77.0508-101.074C40.9668-101.074 11.2793-71.3379 11.2793-35.2539C11.2793 0.878906 41.0156 30.5664 77.0996 30.5664ZM70.1172-3.85742C67.5293-3.85742 65.5273-5.0293 63.6719-7.27539L48.3887-25.5371C47.1191-27.1484 46.5332-28.6133 46.5332-30.3223C46.5332-33.8379 49.3652-36.6211 52.8809-36.6211C54.9316-36.6211 56.543-35.8398 58.1055-33.8867L69.9707-19.3848L95.459-59.9121C96.9727-62.2559 98.8281-63.4766 101.074-63.4766C104.492-63.4766 107.617-60.9863 107.617-57.4707C107.617-56.0059 106.982-54.3945 106.006-52.9297L76.3184-7.37305C74.8047-5.12695 72.6074-3.85742 70.1172-3.85742Z"/>
  </g>
  <g id="Semibold-L" transform="matrix(1 0 0 1 1966.97 1556)">
   <path d="M76.2695 29.7363C111.914 29.7363 141.309 0.390625 141.309-35.2539C141.309-70.8984 111.865-100.244 76.2695-100.244C40.625-100.244 11.2793-70.8984 11.2793-35.2539C11.2793 0.390625 40.6738 29.7363 76.2695 29.7363ZM69.2871-4.15039C66.9922-4.15039 65.1855-5.17578 63.4766-7.27539L47.7051-26.2207C46.582-27.5879 46.0449-29.0039 46.0449-30.5176C46.0449-33.6426 48.5352-36.1328 51.6602-36.1328C53.5156-36.1328 54.9805-35.4492 56.4453-33.5938L69.0918-17.9688L95.6055-60.0586C96.9238-62.1582 98.6328-63.2324 100.586-63.2324C103.613-63.2324 106.396-61.084 106.396-57.9102C106.396-56.5918 105.762-55.0781 104.883-53.7598L74.8535-7.32422C73.4863-5.27344 71.5332-4.15039 69.2871-4.15039Z"/>
  </g>
  <g id="Medium-L" transform="matrix(1 0 0 1 1670.87 1556)">
   <path d="M75.6836 29.1504C110.938 29.1504 140.088 0 140.088-35.2539C140.088-70.5078 110.889-99.6582 75.6348-99.6582C40.3809-99.6582 11.2793-70.5078 11.2793-35.2539C11.2793 0 40.3809 29.1504 75.6836 29.1504ZM68.6523-4.39453C66.5527-4.39453 64.8926-5.27344 63.3301-7.27539L47.168-26.709C46.1914-27.9785 45.6543-29.2969 45.6543-30.6641C45.6543-33.4961 47.9004-35.791 50.7324-35.791C52.4414-35.791 53.8086-35.1562 55.1758-33.3496L68.457-16.8945L95.7031-60.2051C96.875-62.1094 98.4375-63.0859 100.195-63.0859C102.93-63.0859 105.42-61.1328 105.42-58.252C105.42-56.9824 104.785-55.6152 104.004-54.3945L73.7305-7.27539C72.5098-5.37109 70.752-4.39453 68.6523-4.39453Z"/>
  </g>
  <g id="Regular-L" transform="matrix(1 0 0 1 1374.97 1556)">
   <path d="M74.8535 28.3203C109.668 28.3203 138.477-0.488281 138.477-35.2539C138.477-70.0684 109.619-98.877 74.8047-98.877C40.0391-98.877 11.2793-70.0684 11.2793-35.2539C11.2793-0.488281 40.0879 28.3203 74.8535 28.3203ZM67.8223-4.63867C65.9668-4.63867 64.5508-5.41992 63.1348-7.22656L46.4844-27.3438C45.6543-28.418 45.166-29.6387 45.166-30.8594C45.166-33.3008 47.0703-35.3027 49.5117-35.3027C51.0254-35.3027 52.2461-34.7656 53.5645-33.0566L67.627-15.4785L95.8496-60.3516C96.8262-61.9629 98.2422-62.8418 99.707-62.8418C102.051-62.8418 104.199-61.1816 104.199-58.6914C104.199-57.5195 103.564-56.25 102.93-55.2246L72.3145-7.22656C71.1914-5.51758 69.6777-4.63867 67.8223-4.63867Z"/>
  </g>
  <g id="Light-L" transform="matrix(1 0 0 1 1079.18 1556)">
   <path d="M73.9258 27.3926C108.301 27.3926 136.621-0.927734 136.621-35.2539C136.621-69.6289 108.252-97.9492 73.9258-97.9492C39.5508-97.9492 11.2793-69.6289 11.2793-35.2539C11.2793-0.927734 39.5996 27.3926 73.9258 27.3926ZM67.041-4.93164C65.625-4.93164 64.5508-5.46875 63.4766-6.83594L45.7031-27.9297C45.0684-28.7598 44.6777-29.6875 44.6777-30.6641C44.6777-32.5684 46.1426-34.0332 47.998-34.0332C49.1699-34.0332 50.1465-33.5938 51.0742-32.3242L66.8945-13.3301L96.875-60.498C97.6562-61.7188 98.7305-62.4023 99.8535-62.4023C101.611-62.4023 103.271-61.084 103.271-59.2285C103.271-58.3496 102.832-57.373 102.344-56.5918L70.459-6.83594C69.5801-5.56641 68.457-4.93164 67.041-4.93164Z"/>
  </g>
  <g id="Thin-L" transform="matrix(1 0 0 1 783.693 1556)">
   <path d="M72.7051 26.1719C106.494 26.1719 134.18-1.51367 134.18-35.2539C134.18-69.043 106.494-96.7285 72.7051-96.7285C38.9648-96.7285 11.2793-69.043 11.2793-35.2539C11.2793-1.51367 38.9648 26.1719 72.7051 26.1719ZM66.0156-5.27344C65.1367-5.27344 64.5996-5.56641 63.9648-6.29883L44.6777-28.6621C44.2871-29.1992 43.9941-29.7852 43.9941-30.3711C43.9941-31.543 44.9707-32.3242 45.9961-32.3242C46.7285-32.3242 47.3145-32.0801 47.8516-31.3965L65.918-10.4492L98.2422-60.6934C98.7305-61.3281 99.4141-61.8164 100.098-61.8164C101.074-61.8164 102.051-60.8887 102.051-59.8633C102.051-59.4238 101.855-58.8379 101.611-58.4473L67.9688-6.29883C67.4316-5.66406 66.7969-5.27344 66.0156-5.27344Z"/>
  </g>
  <g id="Ultralight-L" transform="matrix(1 0 0 1 487.616 1556)">
   <path d="M72.1191 25.5371C105.566 25.5371 132.91-1.80664 132.91-35.2539C132.91-68.75 105.566-96.0938 72.1191-96.0938C38.623-96.0938 11.2793-68.75 11.2793-35.2539C11.2793-1.80664 38.623 25.5371 72.1191 25.5371ZM65.4785-5.41992C64.8926-5.41992 64.5996-5.61523 64.209-6.00586L44.1406-29.0039C43.8965-29.4434 43.7012-29.834 43.7012-30.2246C43.7012-31.0059 44.3359-31.4941 44.9707-31.4941C45.5078-31.4941 45.8984-31.25 46.1914-30.957L65.3809-8.98438L98.9258-60.791C99.2676-61.1328 99.7559-61.5234 100.195-61.5234C100.83-61.5234 101.465-60.791 101.465-60.2051C101.465-59.9609 101.367-59.6191 101.221-59.375L66.6992-6.00586C66.3086-5.71289 65.9668-5.41992 65.4785-5.41992Z"/>
  </g>
  <g id="Black-M" transform="matrix(1 0 0 1 2870.97 1126)">
   <path d="M62.4023 18.457C91.9922 18.457 116.113-5.61523 116.113-35.2051C116.113-64.7949 91.9922-88.8672 62.4023-88.8672C32.8125-88.8672 8.74023-64.7949 8.74023-35.2051C8.74023-5.61523 32.8125 18.457 62.4023 18.457ZM57.1289-9.91211C54.3457-9.91211 52.1484-11.3281 50.3418-13.3789L39.7949-25.4883C38.2324-27.2949 37.6953-28.6621 37.6953-30.4688C37.6953-34.4238 41.0645-37.5 44.9219-37.5C47.1191-37.5 48.7793-36.5723 50.1953-35.0098L57.1289-27.3438L74.0234-53.7598C75.7812-56.4453 77.7344-57.8613 80.3711-57.8613C84.2773-57.8613 87.7441-54.8828 87.7441-50.9766C87.7441-49.6094 87.3535-48.0469 86.2305-46.4844L63.7695-13.5742C62.207-11.377 59.7656-9.91211 57.1289-9.91211Z"/>
  </g>
  <g id="Heavy-M" transform="matrix(1 0 0 1 2575.19 1126)">
   <path d="M61.5234 17.5293C90.5273 17.5293 114.258-6.20117 114.258-35.2051C114.258-64.2578 90.5273-87.9883 61.4746-87.9883C32.4707-87.9883 8.74023-64.2578 8.74023-35.2051C8.74023-6.20117 32.4707 17.5293 61.5234 17.5293ZM56.1523-10.2539C53.6621-10.2539 51.6602-11.4746 49.9512-13.4766L39.0137-26.2695C37.6465-27.8809 37.1582-29.1992 37.1582-30.8594C37.1582-34.375 40.0879-37.1582 43.6035-37.1582C45.6055-37.1582 47.1191-36.3281 48.4863-34.7656L56.1035-25.8789L73.9258-53.9551C75.4883-56.3965 77.2949-57.6172 79.6387-57.6172C83.1055-57.6172 86.1816-55.0293 86.1816-51.5137C86.1816-50.1953 85.791-48.7305 84.7656-47.3145L62.207-13.623C60.791-11.5723 58.5449-10.2539 56.1523-10.2539Z"/>
  </g>
  <g id="Bold-M" transform="matrix(1 0 0 1 2279.5 1126)">
   <path d="M60.498 16.5039C88.8672 16.5039 112.207-6.83594 112.207-35.2051C112.207-63.623 88.8672-86.9629 60.4492-86.9629C32.0312-86.9629 8.74023-63.623 8.74023-35.2051C8.74023-6.83594 32.0801 16.5039 60.498 16.5039ZM55.0781-10.6445C52.8809-10.6445 51.0742-11.6699 49.5605-13.5742L38.1348-27.1484C36.9629-28.5156 36.5234-29.7852 36.5234-31.25C36.5234-34.3262 39.0137-36.7676 42.0898-36.7676C43.8477-36.7676 45.2148-36.0352 46.5332-34.4727L54.9805-24.2188L73.877-54.1992C75.1953-56.2988 76.8066-57.373 78.7598-57.373C81.7871-57.373 84.5215-55.127 84.5215-52.0508C84.5215-50.8301 84.0332-49.4629 83.1543-48.1934L60.4492-13.6719C59.1797-11.7676 57.2266-10.6445 55.0781-10.6445Z"/>
  </g>
  <g id="Semibold-M" transform="matrix(1 0 0 1 1983.5 1126)">
   <path d="M59.7656 15.8203C87.7441 15.8203 110.791-7.27539 110.791-35.2539C110.791-63.2324 87.6953-86.2793 59.7656-86.2793C31.7871-86.2793 8.74023-63.2324 8.74023-35.2539C8.74023-7.27539 31.7871 15.8203 59.7656 15.8203ZM54.3457-10.9375C52.2949-10.9375 50.6836-11.8164 49.2188-13.623L37.5-27.7344C36.5234-29.0039 36.084-30.1758 36.084-31.4941C36.084-34.2773 38.2812-36.4746 41.0645-36.4746C42.6758-36.4746 43.9453-35.8398 45.2148-34.2773L54.1992-23.0957L73.7793-54.3457C74.9512-56.25 76.4648-57.1777 78.1738-57.1777C80.9082-57.1777 83.3496-55.2246 83.3496-52.4414C83.3496-51.2695 82.8125-50 82.0312-48.8281L59.2285-13.7207C58.0566-11.9141 56.2988-10.9375 54.3457-10.9375Z"/>
  </g>
  <g id="Medium-M" transform="matrix(1 0 0 1 1687.3 1126)">
   <path d="M59.2285 15.2344C86.9141 15.2344 109.766-7.61719 109.766-35.2539C109.766-62.8906 86.8652-85.7422 59.1797-85.7422C31.543-85.7422 8.74023-62.8906 8.74023-35.2539C8.74023-7.61719 31.5918 15.2344 59.2285 15.2344ZM53.7598-11.1328C51.9043-11.1328 50.3906-11.9141 49.0234-13.7207L37.0605-28.2227C36.1816-29.3457 35.7422-30.4688 35.7422-31.6895C35.7422-34.2285 37.7441-36.2793 40.2832-36.2793C41.7969-36.2793 42.9688-35.7422 44.2383-34.1309L53.6133-22.2656L73.7305-54.4922C74.8047-56.2012 76.1719-57.0312 77.7344-57.0312C80.2246-57.0312 82.4707-55.3223 82.4707-52.7344C82.4707-51.6113 81.8848-50.3906 81.2012-49.3164L58.3008-13.7207C57.2266-12.0117 55.6152-11.1328 53.7598-11.1328Z"/>
  </g>
  <g id="Regular-M" transform="matrix(1 0 0 1 1391.3 1126)">
   <path d="M58.5449 14.5508C85.791 14.5508 108.35-8.05664 108.35-35.2539C108.35-62.5 85.7422-85.0586 58.4961-85.0586C31.2988-85.0586 8.74023-62.5 8.74023-35.2539C8.74023-8.05664 31.3477 14.5508 58.5449 14.5508ZM53.0273-11.377C51.3672-11.377 50-12.0605 48.7305-13.7695L36.4746-28.8086C35.7422-29.7852 35.3027-30.8594 35.3027-31.9824C35.3027-34.1797 37.0117-35.9863 39.209-35.9863C40.625-35.9863 41.6992-35.5469 42.9199-33.9355L52.832-21.1426L73.6816-54.6387C74.6094-56.1035 75.8789-56.8848 77.1484-56.8848C79.2969-56.8848 81.2988-55.4199 81.2988-53.125C81.2988-52.0508 80.6641-50.9277 80.0781-49.9023L57.1289-13.7695C56.1035-12.1582 54.6875-11.377 53.0273-11.377Z"/>
  </g>
  <g id="Light-M" transform="matrix(1 0 0 1 1095.42 1126)">
   <path d="M57.7148 13.7207C84.5215 13.7207 106.689-8.44727 106.689-35.2539C106.689-62.1094 84.5215-84.2285 57.666-84.2285C30.8594-84.2285 8.74023-62.1094 8.74023-35.2539C8.74023-8.44727 30.9082 13.7207 57.7148 13.7207ZM52.3438-11.6211C51.0254-11.6211 50.0488-12.1582 49.0234-13.4277L35.791-29.2969C35.2051-30.0781 34.8633-30.9082 34.8633-31.7871C34.8633-33.4961 36.1816-34.8633 37.8906-34.8633C38.9648-34.8633 39.7949-34.4727 40.7227-33.3008L52.1484-19.1895L74.6094-54.7363C75.3418-55.8594 76.3184-56.4941 77.3438-56.4941C78.9551-56.4941 80.4688-55.3223 80.4688-53.5645C80.4688-52.7832 80.0293-51.9043 79.5898-51.1719L55.4199-13.4277C54.6387-12.207 53.6133-11.6211 52.3438-11.6211Z"/>
  </g>
  <g id="Thin-M" transform="matrix(1 0 0 1 799.806 1126)">
   <path d="M56.6406 12.5977C82.9102 12.5977 104.492-8.98438 104.492-35.2539C104.492-61.5723 82.9102-83.1543 56.5918-83.1543C30.3223-83.1543 8.74023-61.5723 8.74023-35.2539C8.74023-8.98438 30.3223 12.5977 56.6406 12.5977ZM51.3672-11.9141C50.5859-11.9141 50.0488-12.207 49.4629-12.9395L34.8633-29.9805C34.5215-30.4688 34.2773-31.0059 34.2773-31.543C34.2773-32.5684 35.1074-33.3496 36.084-33.3496C36.7676-33.3496 37.3047-33.1055 37.793-32.4707L51.2695-16.6504L75.8301-54.9316C76.2695-55.5664 76.9043-55.957 77.5391-55.957C78.4668-55.957 79.3945-55.1758 79.3945-54.1992C79.3945-53.7598 79.1504-53.2227 78.9062-52.832L53.2227-12.9395C52.7344-12.3047 52.1484-11.9141 51.3672-11.9141Z"/>
  </g>
  <g id="Ultralight-M" transform="matrix(1 0 0 1 503.656 1126)">
   <path d="M56.0547 12.0605C82.0801 12.0605 103.369-9.22852 103.369-35.2539C103.369-61.2793 82.0801-82.5684 56.0547-82.5684C30.0293-82.5684 8.74023-61.2793 8.74023-35.2539C8.74023-9.22852 30.0293 12.0605 56.0547 12.0605ZM50.8789-12.1094C50.3418-12.1094 50.0488-12.2559 49.707-12.6953L34.375-30.3223C34.1309-30.6641 33.9355-31.0059 33.9355-31.3965C33.9355-32.1289 34.5703-32.5684 35.1562-32.5684C35.6445-32.5684 35.9863-32.4219 36.2793-32.0312L50.8301-15.332L76.4648-55.0293C76.7578-55.3711 77.1973-55.6641 77.6367-55.6641C78.2227-55.6641 78.8086-55.0781 78.8086-54.4922C78.8086-54.248 78.7109-53.9062 78.5645-53.6621L52.0996-12.6953C51.709-12.3047 51.3672-12.1094 50.8789-12.1094Z"/>
  </g>
  <g id="Black-S" transform="matrix(1 0 0 1 2884.57 696)">
   <path d="M48.8281 6.78711C71.9727 6.78711 90.8203-12.0605 90.8203-35.2051C90.8203-58.3496 71.9727-77.1973 48.8281-77.1973C25.6836-77.1973 6.83594-58.3496 6.83594-35.2051C6.83594-12.0605 25.6836 6.78711 48.8281 6.78711ZM44.6777-15.4297C42.5293-15.4297 40.8203-16.5039 39.4043-18.1152L31.1035-27.6367C29.8828-29.0527 29.4922-30.127 29.4922-31.543C29.4922-34.6191 32.0801-37.0117 35.1074-37.0117C36.8164-37.0117 38.0859-36.2793 39.209-35.0586L44.6777-28.9551L57.959-49.7559C59.3262-51.8555 60.8398-52.9297 62.8906-52.9297C65.918-52.9297 68.6035-50.6348 68.6035-47.6074C68.6035-46.5332 68.3105-45.3125 67.4316-44.0918L49.8535-18.2617C48.6328-16.5527 46.7285-15.4297 44.6777-15.4297Z"/>
  </g>
  <g id="Heavy-S" transform="matrix(1 0 0 1 2588.47 696)">
   <path d="M48.2422 6.15234C70.9961 6.15234 89.5996-12.4512 89.5996-35.2051C89.5996-57.959 70.9961-76.6113 48.1934-76.6113C25.4395-76.6113 6.83594-57.959 6.83594-35.2051C6.83594-12.4512 25.4395 6.15234 48.2422 6.15234ZM43.9941-15.6738C42.041-15.6738 40.4297-16.6504 39.0625-18.2129L30.5664-28.1738C29.4922-29.4434 29.1016-30.5176 29.1016-31.8359C29.1016-34.668 31.4453-36.8652 34.2285-36.8652C35.8398-36.8652 37.0117-36.2305 38.1348-34.9121L43.9941-28.0762L57.8125-49.9023C59.0332-51.8066 60.4492-52.7832 62.3047-52.7832C65.0391-52.7832 67.5293-50.7324 67.5293-47.9492C67.5293-46.875 67.1875-45.7031 66.3574-44.5801L48.8281-18.3594C47.7051-16.6992 45.9473-15.6738 43.9941-15.6738Z"/>
  </g>
  <g id="Bold-S" transform="matrix(1 0 0 1 2292.44 696)">
   <path d="M47.5586 5.46875C69.873 5.46875 88.2324-12.8906 88.2324-35.2539C88.2324-57.5684 69.873-75.9277 47.5098-75.9277C25.1953-75.9277 6.83594-57.5684 6.83594-35.2539C6.83594-12.8906 25.1953 5.46875 47.5586 5.46875ZM43.2617-15.918C41.4551-15.918 39.9902-16.7969 38.7207-18.3594L29.9805-28.8086C29.0527-29.9316 28.6621-30.957 28.6621-32.1777C28.6621-34.668 30.7129-36.7188 33.252-36.7188C34.7168-36.7188 35.8398-36.1328 36.9629-34.8145L43.1641-27.0508L57.6172-50.0488C58.6914-51.8066 60.0098-52.6367 61.6211-52.6367C64.1113-52.6367 66.3574-50.8789 66.3574-48.3398C66.3574-47.3145 65.918-46.1914 65.1855-45.1172L47.7051-18.4082C46.6309-16.8457 45.0684-15.918 43.2617-15.918Z"/>
  </g>
  <g id="Semibold-S" transform="matrix(1 0 0 1 1996.2 696)">
   <path d="M47.0703 4.98047C69.0918 4.98047 87.3047-13.1836 87.3047-35.2539C87.3047-57.2754 69.0918-75.4883 47.0215-75.4883C25-75.4883 6.83594-57.2754 6.83594-35.2539C6.83594-13.1836 25.0488 4.98047 47.0703 4.98047ZM42.7734-16.1133C41.0645-16.1133 39.6973-16.8945 38.4277-18.457L29.5898-29.1992C28.7598-30.2734 28.3691-31.25 28.3691-32.373C28.3691-34.7168 30.2246-36.5723 32.5684-36.5723C33.9355-36.5723 35.0098-36.084 36.1328-34.668L42.627-26.3672L57.4707-50.1465C58.4473-51.7578 59.7168-52.5391 61.1816-52.5391C63.4277-52.5391 65.5273-50.9766 65.5273-48.584C65.5273-47.5586 65.0391-46.4844 64.4043-45.5078L46.9238-18.5059C45.8984-16.9434 44.4336-16.1133 42.7734-16.1133Z"/>
  </g>
  <g id="Medium-S" transform="matrix(1 0 0 1 1699.83 696)">
   <path d="M46.7285 4.63867C68.5547 4.63867 86.6211-13.4277 86.6211-35.2539C86.6211-57.0801 68.5059-75.1465 46.6797-75.1465C24.8535-75.1465 6.83594-57.0801 6.83594-35.2539C6.83594-13.4277 24.9023 4.63867 46.7285 4.63867ZM42.3828-16.2598C40.7715-16.2598 39.4531-16.9434 38.2324-18.5059L29.2969-29.541C28.5156-30.4688 28.1738-31.4941 28.1738-32.5684C28.1738-34.7168 29.834-36.5234 32.0312-36.5234C33.3496-36.5234 34.4238-36.0352 35.498-34.6191L42.2363-25.8301L57.373-50.2441C58.3008-51.7578 59.4727-52.4902 60.8398-52.4902C62.9395-52.4902 64.8926-51.0254 64.8926-48.7793C64.8926-47.8027 64.4043-46.7285 63.7695-45.752L46.3379-18.5547C45.3613-17.041 43.9941-16.2598 42.3828-16.2598Z"/>
  </g>
  <g id="Regular-S" transform="matrix(1 0 0 1 1403.58 696)">
   <path d="M46.2402 4.15039C67.7734 4.15039 85.6934-13.7207 85.6934-35.2539C85.6934-56.7871 67.7246-74.6582 46.1914-74.6582C24.707-74.6582 6.83594-56.7871 6.83594-35.2539C6.83594-13.7207 24.7559 4.15039 46.2402 4.15039ZM41.8945-16.4551C40.3809-16.4551 39.1602-17.041 37.9883-18.6035L28.9062-29.9805C28.2227-30.8105 27.8809-31.7871 27.8809-32.7637C27.8809-34.7656 29.3457-36.377 31.3965-36.377C32.6172-36.377 33.5938-35.9863 34.668-34.5215L41.6992-25.1465L57.2754-50.3418C58.0566-51.709 59.1797-52.3926 60.3516-52.3926C62.3047-52.3926 64.0625-51.123 64.0625-49.0234C64.0625-48.0469 63.5254-47.0215 62.9395-46.1426L45.5566-18.6035C44.6289-17.1387 43.3594-16.4551 41.8945-16.4551Z"/>
  </g>
  <g id="Light-S" transform="matrix(1 0 0 1 1107.6 696)">
   <path d="M45.5078 3.41797C66.6992 3.41797 84.2285-14.0625 84.2285-35.2539C84.2285-56.4453 66.6504-73.9258 45.5078-73.9258C24.3164-73.9258 6.83594-56.4453 6.83594-35.2539C6.83594-14.0625 24.3652 3.41797 45.5078 3.41797ZM41.2598-16.6504C40.0879-16.6504 39.1602-17.0898 38.2812-18.2617L28.2715-30.4199C27.7832-31.0547 27.4414-31.8359 27.4414-32.6172C27.4414-34.1309 28.6621-35.4004 30.1758-35.4004C31.1523-35.4004 31.8848-35.0586 32.7148-33.9844L41.1133-23.4375L58.1055-50.4883C58.7402-51.5137 59.6191-52.0508 60.498-52.0508C61.9629-52.0508 63.3301-51.0254 63.3301-49.4629C63.3301-48.7305 62.9395-47.9004 62.5-47.2168L44.043-18.2617C43.3594-17.1875 42.3828-16.6504 41.2598-16.6504Z"/>
  </g>
  <g id="Thin-S" transform="matrix(1 0 0 1 811.867 696)">
   <path d="M44.5801 2.49023C65.2832 2.49023 82.2754-14.5508 82.2754-35.2539C82.2754-55.957 65.2344-72.998 44.5312-72.998C23.8281-72.998 6.83594-55.957 6.83594-35.2539C6.83594-14.5508 23.877 2.49023 44.5801 2.49023ZM40.4297-16.8945C39.6973-16.8945 39.209-17.1875 38.6719-17.8711L27.4902-30.957C27.1484-31.3965 26.9531-31.8848 26.9531-32.373C26.9531-33.3496 27.6855-34.0332 28.6133-34.0332C29.1992-34.0332 29.6875-33.8379 30.127-33.252L40.332-21.1426L59.1797-50.6348C59.5703-51.2207 60.1074-51.5625 60.6934-51.5625C61.5723-51.5625 62.4023-50.8789 62.4023-49.9512C62.4023-49.5605 62.1582-49.0723 61.9629-48.6816L42.0898-17.8711C41.6504-17.2363 41.1133-16.8945 40.4297-16.8945Z"/>
  </g>
  <g id="Ultralight-S" transform="matrix(1 0 0 1 515.644 696)">
   <path d="M44.043 1.95312C64.502 1.95312 81.2988-14.7949 81.2988-35.2539C81.2988-55.7129 64.502-72.4609 44.043-72.4609C23.584-72.4609 6.83594-55.7129 6.83594-35.2539C6.83594-14.7949 23.584 1.95312 44.043 1.95312ZM39.9902-17.041C39.502-17.041 39.209-17.2363 38.8672-17.627L27.0508-31.2988C26.8066-31.5918 26.6602-31.9336 26.6602-32.2754C26.6602-32.9102 27.1973-33.3496 27.7832-33.3496C28.2227-33.3496 28.5156-33.2031 28.8086-32.8613L39.9414-19.9707L59.7168-50.7324C60.0098-51.0742 60.4004-51.3184 60.791-51.3184C61.3281-51.3184 61.8652-50.7812 61.8652-50.2441C61.8652-50 61.7676-49.6582 61.6211-49.4141L41.1133-17.627C40.7715-17.2852 40.4297-17.041 39.9902-17.041Z"/>
  </g>
 </g>
</svg>
