<svg width="14" height="14" viewBox="0 0 14 14" fill="none" xmlns="http://www.w3.org/2000/svg">
<g clip-path="url(#clip0_127_497)">
<path d="M6.99566 14C10.8619 14 14 10.8686 14 7C14 3.13136 10.8619 0 6.99566 0C3.13807 0 0 3.13136 0 7C0 10.8686 3.13807 14 6.99566 14ZM6.99566 12.6815C3.85759 12.6815 1.32631 10.14 1.32631 7C1.32631 3.85997 3.85759 1.31847 6.99566 1.31847C10.1337 1.31847 12.6737 3.85997 12.6737 7C12.6737 10.14 10.1337 12.6815 6.99566 12.6815Z" fill="black"/>
<path d="M3.23256 5.31781H10.7137L9.76011 3.60902C9.60408 3.3141 9.30067 3.14062 8.97125 3.14062H4.96631C4.6369 3.14062 4.34215 3.3141 4.17745 3.60902L3.23256 5.31781ZM4.33349 6.8358C4.68892 6.8358 5.00099 6.68833 5.21771 6.43679C5.41708 6.68833 5.73783 6.8358 6.09324 6.8358C6.44867 6.8358 6.76074 6.68833 6.96879 6.43679C7.18551 6.68833 7.4889 6.8358 7.84433 6.8358C8.20842 6.8358 8.52049 6.68833 8.72854 6.43679C8.93658 6.68833 9.25733 6.8358 9.60408 6.8358C10.2456 6.8358 10.7657 6.32402 10.7657 5.89898V5.82092H3.17188V5.97706C3.17188 6.40209 3.692 6.8358 4.33349 6.8358ZM4.36816 10.8606H9.58673C10.0895 10.8606 10.3929 10.5657 10.3929 10.0712V7.14806C10.1675 7.2695 9.89882 7.35623 9.61274 7.35623C9.27466 7.35623 8.97993 7.25214 8.72854 7.06999C8.48581 7.25214 8.18241 7.35623 7.84433 7.35623C7.52359 7.35623 7.22018 7.25214 6.97746 7.06999C6.73473 7.25214 6.42266 7.35623 6.1019 7.35623C5.76382 7.35623 5.46043 7.25214 5.21771 7.06999C4.96631 7.25214 4.67157 7.35623 4.33349 7.35623C4.04743 7.35623 3.78736 7.28684 3.56197 7.17409V10.0712C3.56197 10.5743 3.85672 10.8606 4.36816 10.8606ZM5.6338 10.1059V8.31038C5.6338 8.15425 5.7465 8.04149 5.91986 8.04149H8.0437C8.20842 8.04149 8.3211 8.15425 8.3211 8.31038V10.1059H5.6338Z" fill="black"/>
</g>
<defs>
<clipPath id="clip0_127_497">
<rect width="14" height="14" fill="white"/>
</clipPath>
</defs>
</svg>
