<svg clip-rule="evenodd" fill-rule="evenodd" stroke-linecap="round" stroke-linejoin="round" viewBox="0 0 182 60" xmlns="http://www.w3.org/2000/svg"><path d="M7 0H175a7 7 0 0 1 7 7v7H0V7a7 7 0 0 1 7-7z" fill="#fff" fill-opacity=".1"/><g transform="translate(91 7) scale(.667) translate(-130 -13)"><path d="m126.485 16.762c-1.146-.91-2.017-2.226-2.447-3.762.825-2.951 3.281-5.091 6.182-5.091s5.356 2.141 6.181 5.091c-.825 2.951-3.28 5.091-6.182 5.091-.223 0-.443-.013-.661-.037m-2.944-1.418 2.094-2.094m0 0c.405.413.958.648 1.537.652.579.005 1.136-.22 1.548-.626.413-.406.647-.959.652-1.538.005-.578-.22-1.135-.626-1.548-.406-.412-.959-.647-1.538-.652-.579-.004-1.135.221-1.548.627s-.647.959-.652 1.537c-.005.579.221 1.136.627 1.548z" fill="none" stroke="#fff" stroke-width="2.25"/></g><rect x="79" y="22" width="24" height="28" rx="3" ry="3" fill="#fff" fill-opacity=".15"/><path d="M83 28h16m-16 5h16m-16 5h16m-16 5h10" fill="none" stroke="#fff" stroke-opacity=".4" stroke-width="1.25"/></svg>
