<?xml version="1.0" encoding="UTF-8"?>
<!--Generator: Apple Native CoreSVG 149-->
<!DOCTYPE svg
PUBLIC "-//W3C//DTD SVG 1.1//EN"
       "http://www.w3.org/Graphics/SVG/1.1/DTD/svg11.dtd">
<svg version="1.1" xmlns="http://www.w3.org/2000/svg" xmlns:xlink="http://www.w3.org/1999/xlink" width="3300" height="2200">
 <!--glyph: "uni100280.medium", point size: 100.000000, font version: "Version 16.0d18e1", template writer version: "8"-->
 <g id="Notes">
  <rect height="2200" id="artboard" style="fill:white;opacity:1" width="3300" x="0" y="0"/>
  <line id="" style="fill:none;stroke:black;opacity:1;stroke-width:0.5;" x1="263" x2="3036" y1="292" y2="292"/>
  <text style="stroke:none;fill:black;font-family:-apple-system,&quot;SF Pro Display&quot;,&quot;SF Pro Text&quot;,Helvetica,sans-serif;font-weight:bold;" transform="matrix(1 0 0 1 263 322)">Weight/Scale Variations</text>
  <text style="stroke:none;fill:black;font-family:-apple-system,&quot;SF Pro Display&quot;,&quot;SF Pro Text&quot;,Helvetica,sans-serif;text-anchor:middle;" transform="matrix(1 0 0 1 559.711 322)">Ultralight</text>
  <text style="stroke:none;fill:black;font-family:-apple-system,&quot;SF Pro Display&quot;,&quot;SF Pro Text&quot;,Helvetica,sans-serif;text-anchor:middle;" transform="matrix(1 0 0 1 856.422 322)">Thin</text>
  <text style="stroke:none;fill:black;font-family:-apple-system,&quot;SF Pro Display&quot;,&quot;SF Pro Text&quot;,Helvetica,sans-serif;text-anchor:middle;" transform="matrix(1 0 0 1 1153.13 322)">Light</text>
  <text style="stroke:none;fill:black;font-family:-apple-system,&quot;SF Pro Display&quot;,&quot;SF Pro Text&quot;,Helvetica,sans-serif;text-anchor:middle;" transform="matrix(1 0 0 1 1449.84 322)">Regular</text>
  <text style="stroke:none;fill:black;font-family:-apple-system,&quot;SF Pro Display&quot;,&quot;SF Pro Text&quot;,Helvetica,sans-serif;text-anchor:middle;" transform="matrix(1 0 0 1 1746.56 322)">Medium</text>
  <text style="stroke:none;fill:black;font-family:-apple-system,&quot;SF Pro Display&quot;,&quot;SF Pro Text&quot;,Helvetica,sans-serif;text-anchor:middle;" transform="matrix(1 0 0 1 2043.27 322)">Semibold</text>
  <text style="stroke:none;fill:black;font-family:-apple-system,&quot;SF Pro Display&quot;,&quot;SF Pro Text&quot;,Helvetica,sans-serif;text-anchor:middle;" transform="matrix(1 0 0 1 2339.98 322)">Bold</text>
  <text style="stroke:none;fill:black;font-family:-apple-system,&quot;SF Pro Display&quot;,&quot;SF Pro Text&quot;,Helvetica,sans-serif;text-anchor:middle;" transform="matrix(1 0 0 1 2636.69 322)">Heavy</text>
  <text style="stroke:none;fill:black;font-family:-apple-system,&quot;SF Pro Display&quot;,&quot;SF Pro Text&quot;,Helvetica,sans-serif;text-anchor:middle;" transform="matrix(1 0 0 1 2933.4 322)">Black</text>
  <line id="" style="fill:none;stroke:black;opacity:1;stroke-width:0.5;" x1="263" x2="3036" y1="1903" y2="1903"/>
  <g id="" transform="matrix(1 0 0 1 263 1933)">
   <path d="M9.24805 0.830078C13.5547 0.830078 17.1387-2.74414 17.1387-7.05078C17.1387-11.3574 13.5449-14.9316 9.23828-14.9316C4.94141-14.9316 1.36719-11.3574 1.36719-7.05078C1.36719-2.74414 4.95117 0.830078 9.24805 0.830078ZM9.24805-0.654297C5.70312-0.654297 2.87109-3.49609 2.87109-7.05078C2.87109-10.6055 5.69336-13.4473 9.23828-13.4473C12.793-13.4473 15.6348-10.6055 15.6445-7.05078C15.6543-3.49609 12.8027-0.654297 9.24805-0.654297ZM6.39648-6.31836L8.50586-6.31836L8.50586-4.19922C8.50586-3.75977 8.79883-3.45703 9.22852-3.45703C9.67773-3.45703 9.9707-3.75977 9.9707-4.19922L9.9707-6.31836L12.0996-6.31836C12.5391-6.31836 12.8418-6.61133 12.8418-7.04102C12.8418-7.48047 12.5391-7.7832 12.0996-7.7832L9.9707-7.7832L9.9707-9.89258C9.9707-10.3418 9.67773-10.6445 9.22852-10.6445C8.79883-10.6445 8.50586-10.3418 8.50586-9.89258L8.50586-7.7832L6.39648-7.7832C5.94727-7.7832 5.64453-7.48047 5.64453-7.04102C5.64453-6.61133 5.94727-6.31836 6.39648-6.31836Z"/>
  </g>
  <g id="" transform="matrix(1 0 0 1 281.506 1933)">
   <path d="M11.709 2.91016C17.1582 2.91016 21.6699-1.61133 21.6699-7.05078C21.6699-12.5 17.1484-17.0117 11.6992-17.0117C6.25977-17.0117 1.74805-12.5 1.74805-7.05078C1.74805-1.61133 6.26953 2.91016 11.709 2.91016ZM11.709 1.25C7.09961 1.25 3.41797-2.44141 3.41797-7.05078C3.41797-11.6602 7.08984-15.3516 11.6992-15.3516C16.3086-15.3516 20-11.6602 20.0098-7.05078C20.0195-2.44141 16.3184 1.25 11.709 1.25ZM7.98828-6.23047L10.8789-6.23047L10.8789-3.32031C10.8789-2.83203 11.2109-2.5 11.6895-2.5C12.1777-2.5 12.5195-2.83203 12.5195-3.32031L12.5195-6.23047L15.4297-6.23047C15.918-6.23047 16.25-6.5625 16.25-7.04102C16.25-7.5293 15.918-7.87109 15.4297-7.87109L12.5195-7.87109L12.5195-10.7617C12.5195-11.2695 12.1777-11.6016 11.6895-11.6016C11.2109-11.6016 10.8789-11.2598 10.8789-10.7617L10.8789-7.87109L7.98828-7.87109C7.48047-7.87109 7.14844-7.5293 7.14844-7.04102C7.14844-6.5625 7.49023-6.23047 7.98828-6.23047Z"/>
  </g>
  <g id="" transform="matrix(1 0 0 1 304.924 1933)">
   <path d="M14.9707 5.66406C21.9336 5.66406 27.6953-0.0976562 27.6953-7.05078C27.6953-14.0137 21.9238-19.7754 14.9609-19.7754C8.00781-19.7754 2.25586-14.0137 2.25586-7.05078C2.25586-0.0976562 8.01758 5.66406 14.9707 5.66406ZM14.9707 3.84766C8.93555 3.84766 4.08203-1.01562 4.08203-7.05078C4.08203-13.0957 8.92578-17.9492 14.9609-17.9492C21.0059-17.9492 25.8594-13.0957 25.8691-7.05078C25.8789-1.01562 21.0156 3.84766 14.9707 3.84766ZM10.0586-6.14258L14.0625-6.14258L14.0625-2.12891C14.0625-1.5918 14.4336-1.2207 14.9512-1.2207C15.4883-1.2207 15.8594-1.5918 15.8594-2.12891L15.8594-6.14258L19.8828-6.14258C20.4102-6.14258 20.791-6.51367 20.791-7.03125C20.791-7.56836 20.4199-7.94922 19.8828-7.94922L15.8594-7.94922L15.8594-11.9531C15.8594-12.5098 15.4883-12.8809 14.9512-12.8809C14.4336-12.8809 14.0625-12.5 14.0625-11.9531L14.0625-7.94922L10.0586-7.94922C9.50195-7.94922 9.13086-7.56836 9.13086-7.03125C9.13086-6.51367 9.51172-6.14258 10.0586-6.14258Z"/>
  </g>
  <text style="stroke:none;fill:black;font-family:-apple-system,&quot;SF Pro Display&quot;,&quot;SF Pro Text&quot;,Helvetica,sans-serif;font-weight:bold;" transform="matrix(1 0 0 1 263 1953)">Design Variations</text>
  <text style="stroke:none;fill:black;font-family:-apple-system,&quot;SF Pro Display&quot;,&quot;SF Pro Text&quot;,Helvetica,sans-serif;" transform="matrix(1 0 0 1 263 1971)">Symbols are supported in up to nine weights and three scales.</text>
  <text style="stroke:none;fill:black;font-family:-apple-system,&quot;SF Pro Display&quot;,&quot;SF Pro Text&quot;,Helvetica,sans-serif;" transform="matrix(1 0 0 1 263 1989)">For optimal layout with text and other symbols, vertically align</text>
  <text style="stroke:none;fill:black;font-family:-apple-system,&quot;SF Pro Display&quot;,&quot;SF Pro Text&quot;,Helvetica,sans-serif;" transform="matrix(1 0 0 1 263 2007)">symbols with the adjacent text.</text>
  <line id="" style="fill:none;stroke:#00AEEF;stroke-width:0.5;opacity:1.0;" x1="776" x2="776" y1="1919" y2="1933"/>
  <g id="" transform="matrix(1 0 0 1 776 1933)">
   <path d="M3.31055 0.126953C3.82812 0.126953 4.08203-0.0683594 4.26758-0.605469L5.52734-4.0625L11.2891-4.0625L12.5488-0.605469C12.7344-0.0683594 12.9883 0.126953 13.4961 0.126953C14.0137 0.126953 14.3457-0.185547 14.3457-0.673828C14.3457-0.839844 14.3164-0.986328 14.2383-1.20117L9.6582-13.3887C9.43359-13.9941 9.0332-14.2871 8.4082-14.2871C7.80273-14.2871 7.39258-13.9941 7.17773-13.3984L2.59766-1.19141C2.51953-0.976562 2.49023-0.830078 2.49023-0.664062C2.49023-0.175781 2.80273 0.126953 3.31055 0.126953ZM6.00586-5.53711L8.37891-12.1094L8.42773-12.1094L10.8008-5.53711Z"/>
  </g>
  <line id="" style="fill:none;stroke:#00AEEF;stroke-width:0.5;opacity:1.0;" x1="792.836" x2="792.836" y1="1919" y2="1933"/>
  <text style="stroke:none;fill:black;font-family:-apple-system,&quot;SF Pro Display&quot;,&quot;SF Pro Text&quot;,Helvetica,sans-serif;font-weight:bold;" transform="matrix(1 0 0 1 776 1953)">Margins</text>
  <text style="stroke:none;fill:black;font-family:-apple-system,&quot;SF Pro Display&quot;,&quot;SF Pro Text&quot;,Helvetica,sans-serif;" transform="matrix(1 0 0 1 776 1971)">Leading and trailing margins on the left and right side of each symbol</text>
  <text style="stroke:none;fill:black;font-family:-apple-system,&quot;SF Pro Display&quot;,&quot;SF Pro Text&quot;,Helvetica,sans-serif;" transform="matrix(1 0 0 1 776 1989)">can be adjusted by modifying the x-location of the margin guidelines.</text>
  <text style="stroke:none;fill:black;font-family:-apple-system,&quot;SF Pro Display&quot;,&quot;SF Pro Text&quot;,Helvetica,sans-serif;" transform="matrix(1 0 0 1 776 2007)">Modifications are automatically applied proportionally to all</text>
  <text style="stroke:none;fill:black;font-family:-apple-system,&quot;SF Pro Display&quot;,&quot;SF Pro Text&quot;,Helvetica,sans-serif;" transform="matrix(1 0 0 1 776 2025)">scales and weights.</text>
  <g id="" transform="matrix(1 0 0 1 1289 1933)">
   <path d="M2.8418 1.86523L4.54102 3.57422C5.40039 4.44336 6.38672 4.38477 7.31445 3.35938L17.4902-7.85156C17.7539-7.76367 18.0273-7.7832 18.3398-7.8418L19.4043-8.03711L20.0684-7.36328L20.0293-6.80664C19.9902-6.30859 20.1172-5.92773 20.6055-5.44922L21.3672-4.70703C21.8457-4.22852 22.4609-4.19922 22.9297-4.66797L25.8398-7.58789C26.3086-8.05664 26.2891-8.65234 25.8105-9.13086L25.0391-9.89258C24.5605-10.3711 24.1895-10.5273 23.7109-10.4883L23.1348-10.4395L22.4902-11.0742L22.7344-12.1973C22.8613-12.7637 22.7051-13.2031 22.1191-13.7891L19.9219-15.9766C16.582-19.2969 12.1484-19.2188 9.25781-16.3281C8.83789-15.918 8.80859-15.3418 9.04297-14.9512C9.27734-14.5898 9.73633-14.3555 10.3809-14.5215C11.8457-14.8633 13.3691-14.9219 14.7949-13.9844L14.209-12.5293C14.0137-12.0508 13.9844-11.6504 14.1113-11.2891L3.04688-0.898438C2.06055 0.0195312 1.98242 0.996094 2.8418 1.86523ZM10.752-15.957C13.1836-17.7344 16.4746-17.4316 18.7012-15.2051L21.1328-12.793C21.3672-12.5586 21.4062-12.373 21.3379-12.0312L21.0156-10.5469L22.5195-9.0625L23.5059-9.12109C23.7598-9.13086 23.8379-9.11133 24.0332-8.91602L24.6094-8.33984L22.168-5.89844L21.5918-6.47461C21.3965-6.66992 21.3672-6.74805 21.377-7.01172L21.4453-7.98828L19.9512-9.47266L18.4277-9.21875C18.1055-9.15039 17.959-9.17969 17.7148-9.41406L15.7129-11.416C15.459-11.6504 15.4297-11.8164 15.5859-12.1875L16.4648-14.2773C14.9023-15.7324 12.8711-16.3574 10.8398-15.7617C10.6836-15.7227 10.625-15.8496 10.752-15.957ZM5.27344 2.30469L4.10156 1.14258C3.63281 0.683594 3.74023 0.341797 4.14062-0.0195312L14.9512-10.1953L16.416-8.71094L6.42578 2.27539C6.07422 2.67578 5.74219 2.77344 5.27344 2.30469Z"/>
  </g>
  <text style="stroke:none;fill:black;font-family:-apple-system,&quot;SF Pro Display&quot;,&quot;SF Pro Text&quot;,Helvetica,sans-serif;font-weight:bold;" transform="matrix(1 0 0 1 1289 1953)">Exporting</text>
  <text style="stroke:none;fill:black;font-family:-apple-system,&quot;SF Pro Display&quot;,&quot;SF Pro Text&quot;,Helvetica,sans-serif;" transform="matrix(1 0 0 1 1289 1971)">Symbols should be outlined when exporting to ensure the</text>
  <text style="stroke:none;fill:black;font-family:-apple-system,&quot;SF Pro Display&quot;,&quot;SF Pro Text&quot;,Helvetica,sans-serif;" transform="matrix(1 0 0 1 1289 1989)">design is preserved when submitting to Xcode.</text>
  <text id="template-version" style="stroke:none;fill:black;font-family:-apple-system,&quot;SF Pro Display&quot;,&quot;SF Pro Text&quot;,Helvetica,sans-serif;text-anchor:end;" transform="matrix(1 0 0 1 3036 1933)">Template v.2.0</text>
  <text style="stroke:none;fill:black;font-family:-apple-system,&quot;SF Pro Display&quot;,&quot;SF Pro Text&quot;,Helvetica,sans-serif;text-anchor:end;" transform="matrix(1 0 0 1 3036 1951)">Requires Xcode 12 or greater</text>
  <text style="stroke:none;fill:black;font-family:-apple-system,&quot;SF Pro Display&quot;,&quot;SF Pro Text&quot;,Helvetica,sans-serif;text-anchor:end;" transform="matrix(1 0 0 1 3036 1969)">Generated from hand.thumbsup.fill</text>
  <text style="stroke:none;fill:black;font-family:-apple-system,&quot;SF Pro Display&quot;,&quot;SF Pro Text&quot;,Helvetica,sans-serif;text-anchor:end;" transform="matrix(1 0 0 1 3036 1987)">Typeset at 100 points</text>
  <text style="stroke:none;fill:black;font-family:-apple-system,&quot;SF Pro Display&quot;,&quot;SF Pro Text&quot;,Helvetica,sans-serif;" transform="matrix(1 0 0 1 263 726)">Small</text>
  <text style="stroke:none;fill:black;font-family:-apple-system,&quot;SF Pro Display&quot;,&quot;SF Pro Text&quot;,Helvetica,sans-serif;" transform="matrix(1 0 0 1 263 1156)">Medium</text>
  <text style="stroke:none;fill:black;font-family:-apple-system,&quot;SF Pro Display&quot;,&quot;SF Pro Text&quot;,Helvetica,sans-serif;" transform="matrix(1 0 0 1 263 1586)">Large</text>
 </g>
 <g id="Guides">
  <g id="H-reference" style="fill:#27AAE1;stroke:none;" transform="matrix(1 0 0 1 339 696)">
   <path d="M0.976562 0L3.66211 0L12.9883-24.4629L45.752-24.4629L55.127 0L57.7637 0L30.6152-70.459L28.125-70.459ZM29.3457-67.1387L29.4434-67.1387L44.873-26.709L13.8672-26.709Z"/>
  </g>
  <line id="Baseline-S" style="fill:none;stroke:#27AAE1;opacity:1;stroke-width:0.5;" x1="263" x2="3036" y1="696" y2="696"/>
  <line id="Capline-S" style="fill:none;stroke:#27AAE1;opacity:1;stroke-width:0.5;" x1="263" x2="3036" y1="625.541" y2="625.541"/>
  <g id="H-reference" style="fill:#27AAE1;stroke:none;" transform="matrix(1 0 0 1 339 1126)">
   <path d="M0.976562 0L3.66211 0L12.9883-24.4629L45.752-24.4629L55.127 0L57.7637 0L30.6152-70.459L28.125-70.459ZM29.3457-67.1387L29.4434-67.1387L44.873-26.709L13.8672-26.709Z"/>
  </g>
  <line id="Baseline-M" style="fill:none;stroke:#27AAE1;opacity:1;stroke-width:0.5;" x1="263" x2="3036" y1="1126" y2="1126"/>
  <line id="Capline-M" style="fill:none;stroke:#27AAE1;opacity:1;stroke-width:0.5;" x1="263" x2="3036" y1="1055.54" y2="1055.54"/>
  <g id="H-reference" style="fill:#27AAE1;stroke:none;" transform="matrix(1 0 0 1 339 1556)">
   <path d="M0.976562 0L3.66211 0L12.9883-24.4629L45.752-24.4629L55.127 0L57.7637 0L30.6152-70.459L28.125-70.459ZM29.3457-67.1387L29.4434-67.1387L44.873-26.709L13.8672-26.709Z"/>
  </g>
  <line id="Baseline-L" style="fill:none;stroke:#27AAE1;opacity:1;stroke-width:0.5;" x1="263" x2="3036" y1="1556" y2="1556"/>
  <line id="Capline-L" style="fill:none;stroke:#27AAE1;opacity:1;stroke-width:0.5;" x1="263" x2="3036" y1="1485.54" y2="1485.54"/>
  <line id="left-margin" style="fill:none;stroke:#00AEEF;stroke-width:0.5;opacity:1.0;" x1="1389.59" x2="1389.59" y1="1030.79" y2="1150.12"/>
  <line id="right-margin" style="fill:none;stroke:#00AEEF;stroke-width:0.5;opacity:1.0;" x1="1510.1" x2="1510.1" y1="1030.79" y2="1150.12"/>
 </g>
 <g id="Symbols">
  <g id="Black-L" transform="matrix(1 0 0 1 2847.66 1556)">
   <path d="M48.291-8.93555C47.8516 18.8965 70.6055 38.9648 104.053 39.209L113.672 39.3066C122.363 39.3555 129.639 38.7207 134.082 37.6953C141.504 35.9375 146.68 31.0059 146.68 23.877C146.68 21.4844 146.143 19.5312 145.459 17.9688C145.117 17.3828 145.264 17.0898 145.605 16.8945C150.586 14.0137 153.516 9.57031 153.516 4.15039C153.516 1.17188 152.783-1.70898 151.367-4.05273C151.074-4.54102 151.172-5.0293 151.66-5.32227C154.98-7.8125 157.129-12.1582 157.129-16.9922C157.129-20.6543 156.104-24.0723 154.395-26.1719C153.955-26.709 154.004-27.0996 154.492-27.4902C156.836-29.7363 158.008-33.4961 158.008-37.3535C158.008-45.6055 151.562-52.0508 143.457-52.0508L118.457-52.0508C113.232-52.0508 110.107-54.541 110.107-58.3008C110.107-67.1875 122.07-84.668 122.07-97.8027C122.07-105.371 116.992-110.498 109.961-110.498C104.541-110.498 101.221-107.373 97.5586-100.439C87.1094-80.2246 73.3398-63.6719 62.5-49.3652C52.5879-36.2305 48.5352-25.1953 48.291-8.93555ZM12.0117-8.34961C12.0117 14.5996 26.0254 32.5195 44.4824 32.5195L54.9805 32.5195C43.2129 22.2168 36.8164 7.61719 37.1094-9.08203C37.3047-25.3418 41.6992-37.8906 49.5117-49.3652L41.8457-49.3652C24.8047-49.3652 12.0117-31.543 12.0117-8.34961Z"/>
  </g>
  <g id="Heavy-L" transform="matrix(1 0 0 1 2553.22 1556)">
   <path d="M47.2168-10.0098C46.8262 16.8457 68.7012 36.3281 101.318 36.5723L110.742 36.6699C119.336 36.7676 126.318 36.1328 130.566 35.1074C137.402 33.4473 142.529 28.9551 142.529 22.1191C142.529 19.6777 141.943 17.7734 141.211 16.2109C140.869 15.625 141.016 15.1855 141.455 14.9902C146.191 12.4023 149.219 8.10547 149.219 2.7832C149.219-0.195312 148.438-2.97852 147.021-5.17578C146.631-5.81055 146.729-6.34766 147.363-6.73828C150.586-9.0332 152.686-13.2324 152.686-17.9199C152.686-21.3867 151.709-24.7559 150-26.7578C149.414-27.3438 149.512-27.832 150.146-28.3203C152.393-30.4688 153.564-33.9844 153.564-37.8418C153.564-45.6055 147.51-51.709 139.795-51.709L115.381-51.709C110.01-51.709 106.738-54.2969 106.738-58.3008C106.738-67.1387 118.408-84.2285 118.408-96.9727C118.408-104.102 113.672-108.887 107.08-108.887C101.855-108.887 98.7793-105.762 95.4102-99.3164C85.1562-79.4922 71.6309-63.2324 61.0352-49.2676C51.5137-36.6211 47.4609-26.0254 47.2168-10.0098ZM12.2559-9.42383C12.2559 12.5977 25.7324 30.0781 43.6035 30.0781L54.4434 30.0781C42.6758 20.2148 36.5234 6.05469 36.8164-10.1562C37.0117-26.4648 41.8457-38.6719 49.1211-49.1211L41.0156-49.1211C24.6094-49.1211 12.2559-31.8359 12.2559-9.42383Z"/>
  </g>
  <g id="Bold-L" transform="matrix(1 0 0 1 2259.02 1556)">
   <path d="M46.0449-11.1816C45.6543 14.502 66.5527 33.3984 98.1934 33.6426L107.422 33.7402C115.918 33.8379 122.607 33.2031 126.611 32.2266C132.812 30.6641 137.842 26.6602 137.842 20.1172C137.842 17.6758 137.256 15.7715 136.475 14.3066C136.084 13.623 136.182 13.1348 136.768 12.8418C141.211 10.5957 144.385 6.49414 144.385 1.2207C144.385-1.70898 143.555-4.39453 142.188-6.49414C141.65-7.22656 141.797-7.86133 142.578-8.34961C145.703-10.4492 147.754-14.4043 147.754-18.9453C147.754-22.2656 146.777-25.5859 145.068-27.3926C144.336-28.125 144.482-28.6133 145.264-29.2969C147.412-31.25 148.633-34.6191 148.633-38.3301C148.633-45.5566 143.018-51.3184 135.742-51.3184L111.914-51.3184C106.445-51.3184 102.93-54.0527 102.93-58.3008C102.93-67.0898 114.355-83.7402 114.355-95.9961C114.355-102.734 109.863-107.08 103.857-107.08C98.8281-107.08 96.0449-103.906 92.9688-98.0469C82.959-78.6133 69.6777-62.793 59.4238-49.1699C50.293-37.1094 46.2891-26.9043 46.0449-11.1816ZM12.5-10.6445C12.5 10.3516 25.3906 27.2949 42.5781 27.2949L53.8574 27.2949C42.0898 18.0176 36.2305 4.3457 36.4746-11.3281C36.6699-27.6855 42.041-39.5508 48.6328-48.8281L40.0879-48.8281C24.3652-48.8281 12.5-32.1777 12.5-10.6445Z"/>
  </g>
  <g id="Semibold-L" transform="matrix(1 0 0 1 1964.04 1556)">
   <path d="M45.2148-12.0117C44.873 12.8906 65.0391 31.3965 96.0938 31.6406L105.127 31.7383C113.574 31.7871 120.068 31.2012 123.877 30.2246C129.639 28.7598 134.619 25.0977 134.619 18.7012C134.619 16.2598 134.033 14.4043 133.203 12.9395C132.812 12.207 132.91 11.6699 133.545 11.377C137.842 9.375 141.016 5.41992 141.016 0.195312C141.016-2.73438 140.186-5.37109 138.818-7.37305C138.232-8.20312 138.33-8.88672 139.307-9.47266C142.334-11.377 144.336-15.2832 144.336-19.6777C144.336-22.8516 143.408-26.123 141.65-27.832C140.869-28.6133 141.016-29.1992 141.895-29.9316C143.994-31.8359 145.215-35.0098 145.215-38.7207C145.215-45.5566 139.893-51.0742 132.959-51.0742L109.57-51.0742C103.955-51.0742 100.342-53.9062 100.342-58.3008C100.342-67.041 111.523-83.3984 111.523-95.3125C111.523-101.807 107.275-105.811 101.611-105.811C96.7285-105.811 94.1406-102.637 91.3086-97.168C81.4453-78.0273 68.3594-62.4512 58.252-49.1211C49.4629-37.4512 45.4102-27.5391 45.2148-12.0117ZM12.6953-11.4746C12.6953 8.78906 25.1465 25.3906 41.8945 25.3906L53.4668 25.3906C41.6992 16.4551 35.9863 3.125 36.2305-12.1582C36.4746-28.5156 42.1387-40.1855 48.3398-48.584L39.4531-48.584C24.2188-48.584 12.6953-32.373 12.6953-11.4746Z"/>
  </g>
  <g id="Medium-L" transform="matrix(1 0 0 1 1668.65 1556)">
   <path d="M44.5801-12.5977C44.2871 11.6211 63.916 29.8828 94.4824 30.127L103.369 30.1758C111.816 30.2734 118.115 29.6387 121.826 28.7109C127.197 27.2949 132.178 23.9258 132.178 17.6758C132.178 15.1855 131.592 13.3789 130.762 11.9141C130.322 11.1816 130.371 10.5957 131.104 10.2539C135.254 8.39844 138.525 4.54102 138.525-0.634766C138.525-3.51562 137.646-6.15234 136.279-8.05664C135.645-8.93555 135.742-9.66797 136.768-10.3027C139.746-12.1094 141.797-15.8691 141.797-20.2148C141.797-23.291 140.82-26.5137 139.111-28.1738C138.184-29.0039 138.379-29.5898 139.355-30.4688C141.406-32.2266 142.627-35.3516 142.627-38.9648C142.627-45.5566 137.5-50.8789 130.811-50.8789L107.764-50.8789C102.1-50.8789 98.3887-53.7598 98.3887-58.3008C98.3887-67.041 109.375-83.1543 109.375-94.8242C109.375-101.074 105.322-104.883 99.9023-104.883C95.166-104.883 92.7246-101.709 90.0391-96.4844C80.3223-77.5879 67.334-62.2559 57.4219-49.0723C48.8281-37.6953 44.8242-27.9785 44.5801-12.5977ZM12.8418-12.1094C12.8418 7.61719 25 23.9258 41.4062 23.9258L53.1738 23.9258C41.4062 15.2832 35.8398 2.24609 36.084-12.793C36.3281-29.1504 42.2363-40.625 48.0957-48.4375L38.9648-48.4375C24.0723-48.4375 12.8418-32.5195 12.8418-12.1094Z"/>
  </g>
  <g id="Regular-L" transform="matrix(1 0 0 1 1373.67 1556)">
   <path d="M43.7988-13.4277C43.5059 10.0586 62.4512 27.8809 92.334 28.125L101.123 28.1738C109.473 28.2715 115.576 27.6855 119.141 26.709C124.072 25.4395 129.004 22.3633 129.004 16.3086C129.004 13.8184 128.369 12.0117 127.539 10.5957C127.051 9.81445 127.1 9.13086 127.881 8.83789C131.885 7.17773 135.205 3.4668 135.205-1.66016C135.205-4.54102 134.375-7.08008 132.959-8.93555C132.227-9.91211 132.373-10.6934 133.545-11.4258C136.426-13.0859 138.428-16.6992 138.428-20.8984C138.428-23.877 137.5-27.0508 135.742-28.6133C134.717-29.541 134.912-30.1758 135.986-31.1035C137.988-32.8125 139.258-35.7422 139.258-39.3555C139.258-45.5566 134.424-50.6348 128.076-50.6348L105.42-50.6348C99.6582-50.6348 95.8008-53.6133 95.8008-58.3008C95.8008-66.9922 106.592-82.8125 106.592-94.1406C106.592-100.146 102.734-103.613 97.7051-103.613C93.1152-103.613 90.8691-100.439 88.3789-95.6055C78.8086-77.002 66.0156-61.9141 56.2988-49.0234C47.998-38.0371 43.9941-28.6133 43.7988-13.4277ZM12.9883-12.9395C12.9883 6.10352 24.7559 22.0703 40.7227 22.0703L52.7832 22.0703C40.9668 13.7695 35.5957 1.02539 35.8398-13.5742C36.084-30.0293 42.3828-41.2598 47.7539-48.2422L38.2812-48.2422C23.9258-48.2422 12.9883-32.7637 12.9883-12.9395Z"/>
  </g>
  <g id="Light-L" transform="matrix(1 0 0 1 1079.11 1556)">
   <path d="M41.9434-14.6484C41.748 8.34961 60.2539 25.8301 89.5508 26.0742L98.1445 26.123C106.348 26.2207 112.305 25.6348 115.771 24.707C120.605 23.4375 125.488 20.459 125.488 14.502C125.488 12.0605 124.854 10.3027 124.023 8.88672C123.535 8.10547 123.584 7.4707 124.365 7.17773C128.271 5.51758 131.543 1.9043 131.543-3.125C131.543-5.9082 130.713-8.44727 129.346-10.2539C128.613-11.1816 128.76-11.9629 129.883-12.6465C132.715-14.2578 134.668-17.8711 134.668-21.9727C134.668-24.9023 133.74-28.0273 132.031-29.541C131.055-30.4199 131.25-31.0547 132.324-31.9824C134.277-33.6426 135.498-36.4746 135.498-40.0391C135.498-46.1426 130.762-51.123 124.512-51.123L102.295-51.123C96.6797-51.123 92.9199-54.0039 92.9199-58.6426C92.9199-67.1387 103.516-82.666 103.516-93.7988C103.516-99.6582 99.707-103.076 94.7754-103.076C90.2832-103.076 88.0859-99.9512 85.6445-95.2148C76.2695-76.9531 63.7207-62.1582 54.1992-49.5117C46.0449-38.7695 42.041-29.541 41.9434-14.6484ZM12.5-14.1602C12.5 4.49219 23.877 20.1172 39.4531 20.1172L52.3438 20.1172C40.3809 12.207 34.9121-0.244141 35.1562-14.7949C35.4004-31.2988 41.6016-41.9434 46.6309-48.7793L37.1094-48.7793C23.0469-48.7793 12.5-33.5938 12.5-14.1602Z"/>
  </g>
  <g id="Thin-L" transform="matrix(1 0 0 1 785.231 1556)">
   <path d="M39.502-16.2598C39.4531 6.10352 57.3242 23.0957 85.8398 23.3398L94.1895 23.4375C102.197 23.5352 107.959 22.9492 111.328 22.0703C116.064 20.8496 120.801 17.9199 120.801 12.1094C120.801 9.7168 120.166 8.05664 119.385 6.64062C118.896 5.85938 118.945 5.27344 119.678 4.98047C123.486 3.27148 126.66-0.146484 126.66-5.0293C126.66-7.76367 125.83-10.2051 124.561-11.9629C123.828-12.9395 123.975-13.6719 125.098-14.3066C127.881-15.8691 129.736-19.4336 129.736-23.3887C129.736-26.2207 128.857-29.2969 127.148-30.7617C126.172-31.5918 126.416-32.2266 127.441-33.1055C129.346-34.7168 130.566-37.5 130.566-40.9668C130.566-46.875 125.928-51.7578 119.873-51.7578L98.2422-51.7578C92.7734-51.7578 89.0625-54.5898 89.0625-59.0332C89.0625-67.3828 99.4141-82.4707 99.4141-93.3105C99.4141-98.9746 95.7031-102.295 90.918-102.295C86.5723-102.295 84.375-99.3164 82.0312-94.6777C72.9492-76.8555 60.6934-62.5 51.416-50.1953C43.457-39.7461 39.502-30.7617 39.502-16.2598ZM11.8164-15.7715C11.8164 2.34375 22.6562 17.5781 37.8418 17.5781L51.709 17.5781C39.5996 10.0586 34.0332-2.00195 34.2285-16.4062C34.4727-32.959 40.5762-42.8223 45.1172-49.4629L35.5469-49.4629C21.875-49.4629 11.8164-34.7168 11.8164-15.7715Z"/>
  </g>
  <g id="Ultralight-L" transform="matrix(1 0 0 1 489.96 1556)">
   <path d="M38.2324-17.0898C38.2812 4.93164 55.8105 21.7285 83.9355 21.9727L92.1387 22.0215C100.049 22.1191 105.713 21.582 109.082 20.7031C113.721 19.4824 118.408 16.6016 118.408 10.8398C118.408 8.54492 117.773 6.88477 116.992 5.51758C116.504 4.6875 116.602 4.15039 117.285 3.85742C121.045 2.14844 124.17-1.2207 124.17-6.00586C124.17-8.69141 123.389-11.084 122.07-12.8418C121.387-13.8184 121.533-14.5508 122.656-15.1855C125.391-16.6992 127.197-20.2148 127.197-24.1211C127.197-26.9043 126.318-29.9316 124.658-31.3965C123.682-32.1777 123.926-32.8125 124.951-33.6914C126.807-35.3027 127.979-37.9883 127.979-41.4551C127.979-47.2656 123.438-52.0508 117.48-52.0508L96.1426-52.0508C90.7715-52.0508 87.1094-54.8828 87.1094-59.2773C87.1094-67.4805 97.3145-82.3242 97.3145-93.0664C97.3145-98.6328 93.6523-101.904 88.9648-101.904C84.6191-101.904 82.4707-98.9746 80.1758-94.3848C71.2402-76.8066 59.1797-62.6953 49.9512-50.5371C42.1387-40.2344 38.1836-31.3965 38.2324-17.0898ZM11.4746-16.6016C11.4746 1.26953 22.0703 16.3086 36.9629 16.3086L51.3672 16.3086C39.209 8.98438 33.5449-2.88086 33.7891-17.2363C34.0332-33.8379 40.0391-43.3105 44.3359-49.8535L34.7656-49.8535C21.2402-49.8535 11.4746-35.3027 11.4746-16.6016Z"/>
  </g>
  <g id="Black-M" transform="matrix(1 0 0 1 2865.07 1126)">
   <path d="M37.8906-14.0625C37.5488 8.64258 56.1523 24.707 82.9102 24.9023L90.5273 24.9512C97.2168 25 103.174 24.5117 106.885 23.7305C113.379 22.2168 117.432 17.7734 117.432 12.0605C117.432 10.2539 117.041 8.69141 116.553 7.42188C116.357 7.08008 116.504 6.93359 116.602 6.83594C120.752 4.24805 122.852 0.585938 122.852-3.61328C122.852-5.95703 122.266-8.25195 121.24-10.2051C121.094-10.4492 121.24-10.6934 121.338-10.791C124.023-12.9395 125.732-16.5039 125.732-20.459C125.732-23.4375 124.902-26.123 123.584-27.9297C123.486-28.1738 123.486-28.418 123.682-28.5156C125.537-30.4199 126.416-33.5449 126.416-36.6211C126.416-43.5547 120.947-48.9746 114.16-48.9746L94.3359-48.9746C90.4785-48.9746 88.3301-50.6836 88.3301-53.2715C88.3301-60.1562 97.8516-74.0723 97.8516-84.7168C97.8516-90.9668 93.6035-95.4102 87.5488-95.4102C83.1055-95.4102 80.2246-93.0664 77.0996-87.1094C68.7988-71.0938 57.9102-57.959 49.3164-46.582C41.1621-35.791 38.0371-26.8555 37.8906-14.0625ZM8.74023-13.5742C8.74023 5.22461 20.0684 19.5801 35.0098 19.5801L43.0176 19.5801C33.8867 11.1328 28.5645-0.634766 28.8086-14.209C28.9062-26.7578 31.6895-36.5723 38.3301-46.8262L32.959-46.8262C19.043-46.8262 8.74023-32.4707 8.74023-13.5742Z"/>
  </g>
  <g id="Heavy-M" transform="matrix(1 0 0 1 2570.26 1126)">
   <path d="M37.207-14.8926C36.9141 6.78711 54.6387 22.3633 80.6152 22.5586L88.0371 22.6074C94.7266 22.7051 100.439 22.2168 103.906 21.3867C109.766 20.0195 113.77 16.0645 113.77 10.5469C113.77 8.69141 113.379 7.17773 112.842 5.95703C112.598 5.56641 112.744 5.32227 112.939 5.17578C116.846 2.88086 119.092-0.585938 119.092-4.73633C119.092-7.03125 118.506-9.27734 117.432-11.1328C117.236-11.4746 117.334-11.8164 117.627-12.0117C120.215-13.9648 121.875-17.3828 121.875-21.1426C121.875-24.0234 121.094-26.6602 119.775-28.3203C119.482-28.6621 119.531-29.0039 119.873-29.248C121.68-31.0059 122.559-33.9355 122.559-36.9629C122.559-43.4082 117.48-48.4863 111.133-48.4863L91.748-48.4863C87.7441-48.4863 85.4004-50.3418 85.4004-53.2227C85.4004-60.0586 94.6777-73.6328 94.6777-83.8379C94.6777-89.7461 90.7227-93.7988 85.1562-93.7988C80.9082-93.7988 78.3203-91.4062 75.4395-85.9375C67.334-70.3125 56.6406-57.4219 48.2422-46.3379C40.5273-36.084 37.4023-27.4902 37.207-14.8926ZM9.13086-14.4531C9.13086 3.4668 19.9707 17.3828 34.375 17.3828L42.627 17.3828C33.4473 9.375 28.418-1.95312 28.6621-15.0391C28.8086-27.6367 32.0801-37.2559 38.1836-46.3867L32.3242-46.3867C19.043-46.3867 9.13086-32.5684 9.13086-14.4531Z"/>
  </g>
  <g id="Bold-M" transform="matrix(1 0 0 1 2275.67 1126)">
   <path d="M36.4258-15.8691C36.1328 4.73633 52.9297 19.7754 78.0273 19.9707L85.3027 20.0195C91.9434 20.0684 97.3633 19.5801 100.586 18.7988C105.762 17.5293 109.717 14.1602 109.717 8.88672C109.717 6.98242 109.277 5.51758 108.691 4.3457C108.447 3.85742 108.545 3.51562 108.887 3.32031C112.5 1.41602 114.893-1.85547 114.893-6.00586C114.893-8.30078 114.258-10.4492 113.184-12.1582C112.842-12.6465 112.939-13.0859 113.477-13.4277C115.967-15.1367 117.578-18.3594 117.578-21.9727C117.578-24.6582 116.797-27.2461 115.479-28.7598C115.039-29.248 115.088-29.5898 115.625-30.0293C117.334-31.6406 118.262-34.375 118.262-37.3047C118.262-43.2617 113.623-47.9492 107.715-47.9492L88.916-47.9492C84.7168-47.9492 82.1289-49.9512 82.1289-53.125C82.1289-59.9609 91.1621-73.1445 91.1621-82.9102C91.1621-88.3789 87.5-91.9922 82.5195-91.9922C78.4668-91.9922 76.123-89.5508 73.584-84.668C65.6738-69.3848 55.2246-56.8359 47.0703-46.0938C39.7949-36.377 36.6211-28.2227 36.4258-15.8691ZM9.57031-15.4297C9.57031 1.46484 19.9219 14.9414 33.6426 14.9414L42.1387 14.9414C33.0078 7.37305 28.2715-3.51562 28.5156-15.9668C28.6621-28.6133 32.5195-38.0371 38.0371-45.8984L31.6895-45.8984C19.0918-45.8984 9.57031-32.666 9.57031-15.4297Z"/>
  </g>
  <g id="Semibold-M" transform="matrix(1 0 0 1 1980.45 1126)">
   <path d="M35.9375-16.5039C35.6445 3.32031 51.7578 17.9688 76.2695 18.1641L83.4473 18.2129C90.0391 18.3105 95.2148 17.8223 98.291 17.041C102.979 15.8691 106.934 12.8418 106.934 7.71484C106.934 5.81055 106.494 4.39453 105.859 3.22266C105.566 2.68555 105.615 2.29492 106.055 2.05078C109.521 0.390625 111.963-2.7832 111.963-6.88477C111.963-9.17969 111.328-11.2793 110.254-12.8418C109.863-13.4277 109.961-13.9648 110.596-14.3555C112.988-15.9668 114.6-19.043 114.6-22.5586C114.6-25.0977 113.867-27.6367 112.5-29.0527C111.914-29.6387 112.012-30.0293 112.646-30.5664C114.355-32.0801 115.283-34.668 115.283-37.5488C115.283-43.1152 110.986-47.5586 105.371-47.5586L86.9141-47.5586C82.6172-47.5586 79.8828-49.707 79.8828-53.0273C79.8828-59.8633 88.6719-72.7539 88.6719-82.2754C88.6719-87.4512 85.3027-90.7715 80.6641-90.7715C76.8066-90.7715 74.6582-88.2812 72.3145-83.7891C64.5508-68.75 54.248-56.4453 46.2891-45.8984C39.2578-36.6211 36.1328-28.7109 35.9375-16.5039ZM9.86328-16.1133C9.86328 0.0976562 19.873 13.2324 33.1543 13.2324L41.7969 13.2324C32.7148 6.05469 28.1738-4.54102 28.418-16.6504C28.5645-29.2969 32.8125-38.5742 37.8906-45.6055L31.2012-45.6055C19.0918-45.6055 9.86328-32.7148 9.86328-16.1133Z"/>
  </g>
  <g id="Medium-M" transform="matrix(1 0 0 1 1684.84 1126)">
   <path d="M35.5469-16.9922C35.2539 2.24609 50.8789 16.6016 74.9512 16.7969L81.9824 16.8457C88.5742 16.9434 93.6035 16.4551 96.5332 15.6738C100.928 14.5996 104.785 11.8164 104.785 6.88477C104.785 4.93164 104.346 3.51562 103.711 2.39258C103.369 1.80664 103.418 1.31836 103.955 1.12305C107.275-0.390625 109.766-3.4668 109.766-7.51953C109.766-9.81445 109.131-11.8652 108.057-13.3789C107.568-14.0625 107.666-14.6484 108.447-15.0879C110.791-16.6016 112.354-19.5312 112.354-22.9492C112.354-25.3906 111.621-27.9785 110.254-29.2969C109.619-29.9316 109.717-30.3711 110.449-31.0059C112.061-32.4219 113.037-34.9121 113.037-37.7441C113.037-43.0176 108.936-47.2656 103.613-47.2656L85.4492-47.2656C81.0547-47.2656 78.1738-49.4629 78.1738-53.0273C78.1738-59.8145 86.8164-72.5098 86.8164-81.7383C86.8164-86.7188 83.5938-89.7949 79.248-89.7949C75.4883-89.7949 73.5352-87.3047 71.3379-83.1543C63.6719-68.2617 53.5156-56.1523 45.6543-45.8008C38.8672-36.7676 35.7422-29.1016 35.5469-16.9922ZM10.1074-16.6016C10.1074-0.927734 19.8242 11.9629 32.7637 11.9629L41.5527 11.9629C32.4707 4.98047 28.125-5.32227 28.3203-17.1387C28.5156-29.7852 33.0078-38.9648 37.8418-45.3125L30.8594-45.3125C19.0918-45.3125 10.1074-32.7637 10.1074-16.6016Z"/>
  </g>
  <g id="Regular-M" transform="matrix(1 0 0 1 1389.59 1126)">
   <path d="M35.0098-17.627C34.7168 0.830078 49.707 14.8438 73.1934 15.0391L80.127 15.0879C86.6699 15.1367 91.5039 14.6484 94.2383 13.916C98.1934 12.8906 102.051 10.498 102.051 5.71289C102.051 3.75977 101.562 2.39258 100.879 1.26953C100.488 0.634766 100.537 0.0976562 101.172-0.146484C104.297-1.41602 106.934-4.3457 106.934-8.39844C106.934-10.6445 106.25-12.6953 105.176-14.1113C104.59-14.8438 104.688-15.4785 105.566-16.0645C107.861-17.3828 109.424-20.2148 109.424-23.5352C109.424-25.8301 108.691-28.3691 107.324-29.5898C106.543-30.3223 106.689-30.8105 107.52-31.543C109.131-32.8613 110.107-35.2051 110.107-38.0371C110.107-42.9199 106.299-46.875 101.318-46.875L83.4961-46.875C78.9551-46.875 75.9766-49.2188 75.9766-52.9297C75.9766-59.7656 84.4238-72.168 84.4238-81.1035C84.4238-85.791 81.3965-88.5742 77.4414-88.5742C73.8281-88.5742 72.0215-86.084 70.0684-82.2754C62.5977-67.627 52.5391-55.7617 44.873-45.6055C38.3789-36.9629 35.2051-29.5898 35.0098-17.627ZM10.4004-17.2852C10.4004-2.29492 19.7754 10.2539 32.2754 10.2539L41.2109 10.2539C32.1289 3.66211 28.0273-6.34766 28.2227-17.7734C28.418-30.4688 33.3008-39.502 37.7441-45.0195L30.4199-45.0195C19.0918-45.0195 10.4004-32.8125 10.4004-17.2852Z"/>
  </g>
  <g id="Light-M" transform="matrix(1 0 0 1 1094.81 1126)">
   <path d="M33.3496-18.75C33.1543-0.683594 47.7051 12.9883 70.6543 13.1836L77.3926 13.2324C83.8379 13.3301 88.5254 12.8418 91.2598 12.1094C95.0684 11.1328 98.877 8.78906 98.877 4.10156C98.877 2.19727 98.3398 0.830078 97.7051-0.244141C97.3145-0.878906 97.4121-1.36719 97.998-1.61133C101.025-2.92969 103.613-5.76172 103.613-9.66797C103.613-11.9141 102.93-13.8672 101.904-15.2832C101.318-16.0156 101.416-16.6504 102.344-17.1875C104.541-18.457 106.055-21.2402 106.055-24.4629C106.055-26.7578 105.371-29.1992 104.004-30.4199C103.223-31.1035 103.369-31.5918 104.248-32.3242C105.762-33.6426 106.738-35.8887 106.738-38.6719C106.738-43.4082 103.027-47.3145 98.0957-47.3145L80.7129-47.3145C76.2695-47.3145 73.3398-49.6094 73.3398-53.2227C73.3398-59.9121 81.6406-72.0215 81.6406-80.7617C81.6406-85.3516 78.6621-88.0371 74.8047-88.0371C71.2891-88.0371 69.5312-85.5957 67.627-81.8848C60.3027-67.5781 50.4395-56.0059 42.9688-46.0938C36.6211-37.6465 33.4961-30.4199 33.3496-18.75ZM9.91211-18.3594C9.91211-3.71094 18.9453 8.54492 31.1523 8.54492L40.7715 8.54492C31.5918 2.24609 27.3926-7.56836 27.5879-18.8477C27.7832-31.5918 32.6172-40.1367 36.6699-45.459L29.3457-45.459C18.2617-45.459 9.91211-33.5938 9.91211-18.3594Z"/>
  </g>
  <g id="Thin-M" transform="matrix(1 0 0 1 800.636 1126)">
   <path d="M31.1523-20.166C31.0547-2.73438 45.0684 10.5469 67.334 10.7422L73.8281 10.8398C80.0781 10.8887 84.6191 10.4492 87.2559 9.7168C90.918 8.78906 94.6289 6.49414 94.6289 1.95312C94.6289 0.0976562 94.1406-1.2207 93.5059-2.29492C93.1152-2.88086 93.2129-3.36914 93.75-3.61328C96.7285-4.88281 99.2188-7.61719 99.2188-11.377C99.2188-13.5254 98.584-15.4297 97.5586-16.8457C97.0215-17.5781 97.1191-18.1641 97.998-18.6523C100.146-19.873 101.611-22.6562 101.611-25.7324C101.611-27.9785 100.928-30.3711 99.6094-31.4941C98.8281-32.1289 99.0234-32.666 99.8535-33.3496C101.318-34.6191 102.246-36.7676 102.246-39.502C102.246-44.0918 98.6328-47.9004 93.8965-47.9004L77.002-47.9004C72.7539-47.9004 69.873-50.0977 69.873-53.6133C69.873-60.1074 77.9297-71.875 77.9297-80.3223C77.9297-84.7656 75.0488-87.3535 71.2891-87.3535C67.8711-87.3535 66.1621-85.0098 64.3555-81.3965C57.2266-67.5293 47.7051-56.2988 40.4297-46.6797C34.2285-38.5254 31.1523-31.4941 31.1523-20.166ZM9.32617-19.8242C9.32617-5.61523 17.8223 6.25 29.6875 6.25L40.1855 6.25C30.8594 0.341797 26.5625-9.08203 26.7578-20.3125C26.9043-33.1055 31.6406-40.918 35.3027-46.0938L27.8809-46.0938C17.1875-46.0938 9.32617-34.6191 9.32617-19.8242Z"/>
  </g>
  <g id="Ultralight-M" transform="matrix(1 0 0 1 505.243 1126)">
   <path d="M29.9805-20.9473C29.9805-3.75977 43.7012 9.32617 65.5762 9.52148L72.0215 9.57031C78.1738 9.61914 82.5684 9.17969 85.2051 8.49609C88.8184 7.56836 92.4805 5.32227 92.4805 0.878906C92.4805-0.927734 91.9922-2.24609 91.3574-3.32031C90.9668-3.95508 91.0645-4.3457 91.6016-4.63867C94.5312-5.9082 96.9727-8.54492 96.9727-12.2559C96.9727-14.4043 96.3379-16.2598 95.3613-17.627C94.7754-18.3594 94.9219-18.9453 95.8008-19.4336C97.9004-20.6055 99.3164-23.3398 99.3164-26.416C99.3164-28.5645 98.6328-30.957 97.3145-32.0801C96.582-32.666 96.7773-33.2031 97.6074-33.8867C99.0234-35.1074 99.9512-37.207 99.9512-39.8926C99.9512-44.4336 96.3867-48.1934 91.748-48.1934L75.0977-48.1934C70.9473-48.1934 68.0664-50.3418 68.0664-53.8086C68.0664-60.2051 76.0742-71.7773 76.0742-80.127C76.0742-84.4727 73.1934-87.0117 69.5312-87.0117C66.1621-87.0117 64.4531-84.7168 62.6465-81.1523C55.7129-67.4805 46.2891-56.4453 39.1602-47.0215C33.0566-38.9648 29.9805-32.0801 29.9805-20.9473ZM8.98438-20.5566C8.98438-6.5918 17.2852 5.07812 28.9062 5.07812L39.8926 5.07812C30.4688-0.634766 26.123-9.91211 26.3184-21.0449C26.5137-33.8867 31.1523-41.3574 34.5703-46.4355L27.1484-46.4355C16.6504-46.4355 8.98438-35.1074 8.98438-20.5566Z"/>
  </g>
  <g id="Black-S" transform="matrix(1 0 0 1 2879.98 696)">
   <path d="M29.6387-18.7012C29.3945-0.976562 43.8965 11.5723 64.7949 11.7188L70.752 11.7676C76.0254 11.8164 80.6641 11.4258 83.5449 10.791C88.5742 9.61914 91.748 6.20117 91.748 1.70898C91.748 0.292969 91.4551-0.927734 91.0645-1.9043C90.918-2.19727 91.0156-2.29492 91.1133-2.39258C94.3359-4.39453 95.9961-7.22656 95.9961-10.5469C95.9961-12.3535 95.5566-14.1602 94.7266-15.6738C94.6289-15.8691 94.7266-16.0645 94.8242-16.1621C96.9238-17.8223 98.2422-20.6055 98.2422-23.6816C98.2422-26.0254 97.6074-28.125 96.582-29.541C96.4844-29.7363 96.4844-29.9316 96.6309-30.0293C98.0957-31.4941 98.7793-33.9355 98.7793-36.3281C98.7793-41.748 94.5312-45.9473 89.2578-45.9473L73.7305-45.9473C70.7031-45.9473 68.9941-47.3145 68.9941-49.3652C68.9941-54.7363 76.4648-65.625 76.4648-73.9258C76.4648-78.8086 73.1445-82.2754 68.457-82.2754C64.9902-82.2754 62.7441-80.4199 60.3027-75.7812C53.8086-63.2812 45.3125-52.9785 38.5742-44.0918C32.2266-35.6934 29.7852-28.7109 29.6387-18.7012ZM6.88477-18.3105C6.88477-3.66211 15.7227 7.56836 27.3926 7.56836L33.6914 7.56836C26.5137 0.976562 22.3633-8.20312 22.5586-18.7988C22.6562-28.6621 24.8535-36.3281 30.0293-44.2871L25.7812-44.2871C14.9414-44.2871 6.88477-33.0566 6.88477-18.3105Z"/>
  </g>
  <g id="Heavy-S" transform="matrix(1 0 0 1 2584.52 696)">
   <path d="M29.2969-19.2383C29.0527-2.19727 42.9688 10.0098 63.3301 10.1562L69.1895 10.2051C74.4629 10.2539 78.9062 9.86328 81.5918 9.22852C86.1816 8.1543 89.3555 5.07812 89.3555 0.732422C89.3555-0.683594 89.0137-1.9043 88.5742-2.83203C88.4277-3.17383 88.4766-3.36914 88.6719-3.4668C91.748-5.22461 93.5059-7.95898 93.5059-11.2793C93.5059-13.0859 93.0176-14.8438 92.1875-16.2598C91.9922-16.5527 92.0898-16.7969 92.334-16.9922C94.3848-18.5059 95.7031-21.1426 95.7031-24.1211C95.7031-26.3672 95.0684-28.418 94.043-29.7363C93.7988-30.0293 93.7988-30.2734 94.0918-30.4688C95.5078-31.8359 96.2402-34.1797 96.2402-36.5234C96.2402-41.5527 92.2852-45.5078 87.3047-45.5078L72.0703-45.5078C68.9453-45.5078 67.041-47.0215 67.041-49.2676C67.041-54.6387 74.3652-65.2832 74.3652-73.291C74.3652-77.9297 71.2402-81.1035 66.9434-81.1035C63.623-81.1035 61.5723-79.1992 59.3262-74.9512C52.9297-62.6465 44.5801-52.5391 37.9883-43.8477C31.9336-35.8398 29.4922-29.1016 29.2969-19.2383ZM7.22656-18.8477C7.22656-4.83398 15.7715 6.05469 27.0508 6.05469L33.3984 6.05469C26.2695-0.195312 22.3633-9.13086 22.5098-19.3359C22.6562-29.1992 25.2441-36.7676 30.0293-43.8965L25.4395-43.8965C15.0391-43.8965 7.22656-33.0566 7.22656-18.8477Z"/>
  </g>
  <g id="Bold-S" transform="matrix(1 0 0 1 2289.2 696)">
   <path d="M28.9551-19.8242C28.7109-3.61328 41.9434 8.25195 61.7188 8.39844L67.4316 8.44727C72.6562 8.49609 76.9043 8.10547 79.4434 7.4707C83.4961 6.49414 86.6211 3.80859 86.6211-0.341797C86.6211-1.80664 86.2793-2.97852 85.8398-3.90625C85.5957-4.29688 85.6934-4.54102 85.9863-4.6875C88.8184-6.20117 90.6738-8.78906 90.6738-12.0605C90.6738-13.8672 90.2344-15.5762 89.3555-16.8945C89.1113-17.2852 89.1602-17.627 89.5996-17.9199C91.5039-19.2871 92.8223-21.7773 92.8223-24.6582C92.8223-26.709 92.1875-28.7598 91.1621-29.9805C90.7715-30.3711 90.8691-30.6641 91.2598-31.0059C92.627-32.2754 93.3594-34.4238 93.3594-36.7188C93.3594-41.3574 89.7461-45.0684 85.1074-45.0684L70.2637-45.0684C66.9434-45.0684 64.8926-46.6797 64.8926-49.1699C64.8926-54.541 71.9727-64.9414 71.9727-72.6074C71.9727-76.9531 69.1406-79.7852 65.2344-79.7852C62.0605-79.7852 60.2051-77.832 58.2031-74.0234C52.002-61.9629 43.75-52.0996 37.3535-43.6035C31.5918-35.9863 29.1016-29.541 28.9551-19.8242ZM7.66602-19.4824C7.66602-6.20117 15.8203 4.39453 26.6113 4.39453L33.1055 4.39453C25.9766-1.5625 22.3145-10.1074 22.5098-19.9219C22.6074-29.7852 25.6836-37.3047 30.0781-43.457L25.0977-43.457C15.1367-43.457 7.66602-33.0078 7.66602-19.4824Z"/>
  </g>
  <g id="Semibold-S" transform="matrix(1 0 0 1 1993.44 696)">
   <path d="M28.7109-20.2148C28.4668-4.58984 41.2109 7.03125 60.5957 7.17773L66.2109 7.22656C71.4355 7.27539 75.5371 6.88477 77.9297 6.25C81.6895 5.32227 84.7656 2.97852 84.7656-1.07422C84.7656-2.58789 84.4238-3.71094 83.9355-4.63867C83.6914-5.07812 83.7402-5.37109 84.082-5.56641C86.8164-6.83594 88.7695-9.375 88.7695-12.5977C88.7695-14.4043 88.2812-16.0645 87.4023-17.334C87.0605-17.7734 87.1582-18.2129 87.6465-18.5547C89.5508-19.8242 90.8203-22.2168 90.8203-25C90.8203-27.002 90.2344-29.0039 89.209-30.127C88.7207-30.5664 88.7695-30.9082 89.3066-31.3477C90.625-32.5195 91.3574-34.5703 91.3574-36.8652C91.3574-41.2598 87.9883-44.7266 83.5938-44.7266L68.9941-44.7266C65.5762-44.7266 63.4277-46.4355 63.4277-49.0723C63.4277-54.4922 70.3613-64.6973 70.3613-72.168C70.3613-76.2695 67.6758-78.8574 64.0137-78.8574C60.9863-78.8574 59.2773-76.9043 57.4707-73.3887C51.3184-61.4746 43.1641-51.7578 36.9141-43.457C31.3477-36.084 28.9062-29.8828 28.7109-20.2148ZM7.91016-19.873C7.91016-7.12891 15.8691 3.27148 26.3672 3.27148L32.9102 3.27148C25.7812-2.49023 22.3145-10.8398 22.4609-20.3125C22.6074-30.2246 25.9766-37.6465 30.0781-43.1641L24.8047-43.1641C15.2344-43.1641 7.91016-33.0078 7.91016-19.873Z"/>
  </g>
  <g id="Medium-S" transform="matrix(1 0 0 1 1697.46 696)">
   <path d="M28.5156-20.5078C28.2715-5.27344 40.6738 6.10352 59.7168 6.25L65.2832 6.29883C70.5078 6.34766 74.5117 5.95703 76.8066 5.37109C80.2734 4.49219 83.3496 2.29492 83.3496-1.61133C83.3496-3.17383 82.959-4.29688 82.4707-5.17578C82.2266-5.61523 82.2754-6.00586 82.666-6.20117C85.3027-7.37305 87.3047-9.81445 87.3047-13.0371C87.3047-14.8438 86.7676-16.4551 85.9375-17.6758C85.5469-18.1641 85.5957-18.6523 86.2305-19.043C88.0859-20.2148 89.3555-22.5586 89.3555-25.2441C89.3555-27.1973 88.7695-29.1992 87.6953-30.2246C87.1582-30.7617 87.2559-31.1035 87.8418-31.5918C89.1113-32.7637 89.8926-34.7168 89.8926-36.9629C89.8926-41.1133 86.6211-44.4824 82.4219-44.4824L68.0176-44.4824C64.5508-44.4824 62.2559-46.2402 62.2559-49.0234C62.2559-54.4434 69.1406-64.502 69.1406-71.7773C69.1406-75.7324 66.5527-78.1738 63.1348-78.1738C60.1562-78.1738 58.5938-76.2207 56.8848-72.9004C50.8301-61.1328 42.7246-51.5137 36.5723-43.3105C31.2012-36.1816 28.7109-30.0781 28.5156-20.5078ZM8.10547-20.2148C8.10547-7.8125 15.8691 2.39258 26.123 2.39258L32.7148 2.39258C25.6836-3.17383 22.3145-11.377 22.4609-20.6055C22.6074-30.5176 26.1719-37.9395 30.0781-42.9688L24.6094-42.9688C15.2832-42.9688 8.10547-33.0078 8.10547-20.2148Z"/>
  </g>
  <g id="Regular-S" transform="matrix(1 0 0 1 1401.68 696)">
   <path d="M28.2715-20.8984C27.9785-6.25 39.9414 4.88281 58.5938 5.0293L64.1113 5.07812C69.2871 5.12695 73.1445 4.73633 75.3418 4.15039C78.4668 3.32031 81.4941 1.46484 81.4941-2.34375C81.4941-3.90625 81.1035-5.0293 80.5664-5.9082C80.2734-6.39648 80.3223-6.83594 80.8105-7.03125C83.3008-8.00781 85.4004-10.3516 85.4004-13.5742C85.4004-15.3809 84.8633-16.9922 83.9844-18.1152C83.5449-18.7012 83.5938-19.2383 84.3262-19.6777C86.1328-20.7031 87.4023-22.9492 87.4023-25.5859C87.4023-27.4414 86.8164-29.4434 85.7422-30.4199C85.1074-31.0059 85.2051-31.3965 85.8887-31.9336C87.1582-33.0078 87.9395-34.8633 87.9395-37.1094C87.9395-41.0156 84.9121-44.1406 80.9082-44.1406L66.7969-44.1406C63.1836-44.1406 60.791-45.9961 60.791-48.9746C60.791-54.3457 67.5293-64.2578 67.5293-71.3379C67.5293-75.0977 65.1367-77.2461 61.9629-77.2461C59.082-77.2461 57.666-75.293 56.1523-72.2656C50.1465-60.6445 42.1875-51.2207 36.084-43.1152C30.957-36.2793 28.4668-30.4199 28.2715-20.8984ZM8.39844-20.6055C8.39844-8.74023 15.918 1.26953 25.8789 1.26953L32.5195 1.26953C25.4883-4.10156 22.2656-12.0605 22.4121-20.9961C22.5586-30.957 26.4648-38.2812 30.0781-42.6758L24.3652-42.6758C15.3809-42.6758 8.39844-32.959 8.39844-20.6055Z"/>
  </g>
  <g id="Light-S" transform="matrix(1 0 0 1 1106.67 696)">
   <path d="M26.8066-21.875C26.6113-7.56836 38.1836 3.27148 56.3477 3.41797L61.7188 3.4668C66.7969 3.51562 70.5078 3.125 72.6562 2.58789C75.6836 1.75781 78.6621-0.0976562 78.6621-3.80859C78.6621-5.32227 78.2715-6.39648 77.7832-7.22656C77.4902-7.71484 77.5391-8.1543 77.9785-8.34961C80.4199-9.32617 82.4707-11.6211 82.4707-14.7461C82.4707-16.4551 81.9336-18.0176 81.1035-19.1406C80.6641-19.7266 80.7129-20.2148 81.4453-20.6543C83.2031-21.6797 84.4238-23.877 84.4238-26.416C84.4238-28.2227 83.8379-30.1758 82.7637-31.1523C82.1777-31.6895 82.2754-32.0801 82.959-32.666C84.1797-33.6914 84.9121-35.4492 84.9121-37.6465C84.9121-41.4551 81.9824-44.5312 78.0762-44.5312L64.3066-44.5312C60.791-44.5312 58.4473-46.3379 58.4473-49.2188C58.4473-54.4922 65.0391-64.1113 65.0391-71.0449C65.0391-74.6582 62.6953-76.8066 59.6191-76.8066C56.8359-76.8066 55.4688-74.8535 53.9551-71.9238C48.1445-60.5957 40.332-51.416 34.4238-43.5547C29.3457-36.8652 26.9043-31.1523 26.8066-21.875ZM7.95898-21.582C7.95898-10.0098 15.1855-0.292969 24.8535-0.292969L32.1289-0.292969C25-5.32227 21.7285-13.0859 21.875-21.9727C22.0215-31.9336 25.8301-38.8184 29.1504-43.0664L23.3887-43.0664C14.6484-43.0664 7.95898-33.6426 7.95898-21.582Z"/>
  </g>
  <g id="Thin-S" transform="matrix(1 0 0 1 812.233 696)">
   <path d="M24.8047-23.1445C24.7559-9.375 35.791 1.12305 53.3691 1.26953L58.5449 1.31836C63.4766 1.36719 67.041 1.02539 69.0918 0.439453C72.0215-0.292969 74.9512-2.09961 74.9512-5.66406C74.9512-7.12891 74.5605-8.20312 74.0723-9.0332C73.7793-9.52148 73.8281-9.86328 74.2676-10.0586C76.6113-11.084 78.5645-13.2324 78.5645-16.2109C78.5645-17.9199 78.0762-19.4336 77.2461-20.5078C76.8066-21.0938 76.9043-21.582 77.5879-21.9727C79.2969-22.9492 80.4688-25.0977 80.4688-27.5391C80.4688-29.2969 79.8828-31.2012 78.8574-32.0801C78.2715-32.6172 78.418-33.0078 79.0527-33.5449C80.2246-34.5703 80.957-36.2793 80.957-38.3789C80.957-42.041 78.125-45.0195 74.3652-45.0195L61.0352-45.0195C57.666-45.0195 55.3711-46.7773 55.3711-49.5605C55.3711-54.6875 61.7676-63.9648 61.7676-70.6543C61.7676-74.1699 59.4727-76.2207 56.543-76.2207C53.8086-76.2207 52.4902-74.3652 51.0254-71.5332C45.4102-60.5469 37.8906-51.6602 32.1777-44.0918C27.2949-37.6465 24.8535-32.0801 24.8047-23.1445ZM7.42188-22.8516C7.42188-11.6699 14.1602-2.29492 23.5352-2.29492L31.5918-2.29492C24.3164-6.98242 20.9473-14.4531 21.0938-23.2422C21.2402-33.3008 25-39.5508 27.9297-43.6523L22.1191-43.6523C13.6719-43.6523 7.42188-34.5215 7.42188-22.8516Z"/>
  </g>
  <g id="Ultralight-S" transform="matrix(1 0 0 1 516.694 696)">
   <path d="M23.7793-23.8281C23.7793-10.3027 34.5703 0 51.8555 0.146484L56.8848 0.195312C61.7676 0.244141 65.2344-0.0976562 67.2852-0.634766C70.1172-1.36719 73.0469-3.125 73.0469-6.64062C73.0469-8.10547 72.6562-9.13086 72.168-9.96094C71.875-10.4492 71.9238-10.791 72.3633-10.9863C74.6582-12.0117 76.5625-14.0625 76.5625-16.9922C76.5625-18.6523 76.0742-20.166 75.293-21.2402C74.8535-21.8262 74.9512-22.2656 75.6348-22.6562C77.2949-23.584 78.418-25.7324 78.418-28.125C78.418-29.834 77.8809-31.7383 76.8555-32.6172C76.2695-33.1055 76.416-33.4961 77.0508-34.0332C78.1738-35.0098 78.9062-36.6699 78.9062-38.7695C78.9062-42.3828 76.123-45.3125 72.4609-45.3125L59.375-45.3125C56.0547-45.3125 53.8086-47.0215 53.8086-49.707C53.8086-54.7852 60.1074-63.8672 60.1074-70.459C60.1074-73.877 57.8125-75.8789 54.9316-75.8789C52.2949-75.8789 50.9766-74.0723 49.5605-71.2891C44.043-60.498 36.6211-51.8066 31.0059-44.3848C26.2207-38.0371 23.8281-32.6172 23.7793-23.8281ZM7.12891-23.5352C7.12891-12.5488 13.6719-3.32031 22.8516-3.32031L31.3477-3.32031C23.9746-7.86133 20.5566-15.1855 20.7031-23.9258C20.8496-33.9844 24.5605-39.8926 27.2949-43.9453L21.4844-43.9453C13.1836-43.9453 7.12891-35.0098 7.12891-23.5352Z"/>
  </g>
 </g>
</svg>
