<svg width="14" height="14" viewBox="0 0 14 14" fill="none" xmlns="http://www.w3.org/2000/svg">
<g clip-path="url(#clip0_127_494)">
<path d="M6.99566 14C10.8619 14 14 10.8686 14 7C14 3.13136 10.8619 0 6.99566 0C3.13807 0 0 3.13136 0 7C0 10.8686 3.13807 14 6.99566 14ZM6.99566 12.6815C3.85759 12.6815 1.32631 10.14 1.32631 7C1.32631 3.85997 3.85759 1.31847 6.99566 1.31847C10.1337 1.31847 12.6737 3.85997 12.6737 7C12.6737 10.14 10.1337 12.6815 6.99566 12.6815Z" fill="black"/>
<path d="M6.99458 10.4515C7.1593 10.4515 7.28932 10.3994 7.44536 10.2433L9.67322 8.11812C9.78592 7.99668 9.85526 7.87525 9.85526 7.71044C9.85526 7.38951 9.61254 7.16397 9.2918 7.16397C9.13576 7.16397 8.97973 7.22469 8.86703 7.34613L7.91347 8.38702L7.56672 8.76001L7.61874 7.7278V4.14538C7.61874 3.82445 7.33266 3.54688 6.99458 3.54688C6.66518 3.54688 6.3791 3.82445 6.3791 4.14538V7.7278L6.43112 8.76001L6.07571 8.38702L5.12215 7.34613C5.01811 7.22469 4.84475 7.16397 4.69738 7.16397C4.37662 7.16397 4.14258 7.38951 4.14258 7.71044C4.14258 7.87525 4.20326 7.99668 4.32462 8.11812L6.54382 10.2433C6.70852 10.3994 6.83854 10.4515 6.99458 10.4515Z" fill="black"/>
</g>
<defs>
<clipPath id="clip0_127_494">
<rect width="14" height="14" fill="white"/>
</clipPath>
</defs>
</svg>
