<svg width="14" height="14" viewBox="0 0 14 14" fill="none" xmlns="http://www.w3.org/2000/svg">
<path d="M3.62267 9.48254C3.58468 12.0042 5.64307 13.8499 8.71924 13.8727L9.6079 13.8803C10.4206 13.8879 11.0814 13.8272 11.4764 13.7284C12.1068 13.5765 12.5929 13.1588 12.5929 12.5131C12.5929 12.2853 12.5398 12.103 12.4714 11.9587C12.4334 11.8979 12.4486 11.8599 12.4942 11.8371C12.9347 11.6017 13.2234 11.1991 13.2234 10.6902C13.2234 10.4092 13.155 10.1433 13.0183 9.93827C12.9803 9.8775 12.9879 9.82433 13.0563 9.77877C13.3525 9.56609 13.5576 9.17873 13.5576 8.73059C13.5576 8.41157 13.4588 8.09256 13.2993 7.90267C13.2386 7.84191 13.2537 7.79633 13.3145 7.74317C13.5272 7.54569 13.6411 7.21149 13.6411 6.85449C13.6411 6.13293 13.079 5.55566 12.3575 5.55566H10.0485C9.53196 5.55566 9.21295 5.30502 9.21295 4.91765C9.21295 4.08215 10.3143 2.46431 10.3143 1.27182C10.3143 0.595823 9.87375 0.155273 9.26612 0.155273C8.7724 0.155273 8.48378 0.459105 8.17236 1.05155C7.20774 2.92763 5.9241 4.46192 4.92909 5.78354C4.03282 6.96844 3.64546 7.97104 3.62267 9.48254ZM0.311035 9.53571C0.311035 11.6017 1.57948 13.2499 3.25808 13.2499H4.26829C3.15935 12.3232 2.58969 10.994 2.62007 9.46734C2.63525 7.93305 3.11377 6.76335 3.79736 5.80633H3.02263C1.47314 5.80633 0.311035 7.43176 0.311035 9.53571Z" fill="black"/>
</svg>
