<svg width="14" height="14" viewBox="0 0 14 14" fill="none" xmlns="http://www.w3.org/2000/svg">
<path d="M1.49719 9.14366C0.994414 9.14366 0.854752 9.55567 1.16201 9.98163L2.64241 12.0067C2.88682 12.3419 3.28485 12.3489 3.52926 12.0067L5.00268 9.97466C5.30995 9.55567 5.1633 9.14366 4.67448 9.14366H3.81557V5.28204C3.81557 4.44407 4.32533 3.91336 5.04459 3.91336C5.75686 3.91336 6.27361 4.43709 6.27361 5.28204V9.01797C6.27361 10.7498 7.39788 11.9578 8.96208 11.9578C10.5891 11.9578 11.6436 10.7637 11.6436 9.01797V5.12142H12.5095C13.0053 5.12142 13.1449 4.70943 12.8377 4.29045L11.3643 2.2514C11.1198 1.9162 10.7218 1.9162 10.4774 2.2514L9.00399 4.28345C8.69672 4.70943 8.82941 5.12142 9.33219 5.12142H10.1911V9.12271C10.1911 9.96068 9.68134 10.4914 8.96208 10.4914C8.24283 10.4914 7.72608 9.96068 7.72608 9.12271V5.38678C7.72608 3.65498 6.60181 2.44691 5.04459 2.44691C3.41055 2.44691 2.35611 3.63403 2.35611 5.38678V9.14366H1.49719Z" fill="black"/>
</svg>
