<svg clip-rule="evenodd" fill-rule="evenodd" stroke-linecap="round" stroke-linejoin="round" viewBox="0 0 223 56" xmlns="http://www.w3.org/2000/svg"><path d="m1 19c0-8.485 0-12.728 2.636-15.364 2.636-2.636 6.879-2.636 15.364-2.636h184.5c8.485 0 12.728 0 15.364 2.636s2.636 6.879 2.636 15.364v6h-220.5z" fill="#fff" fill-opacity=".1" fill-rule="nonzero"/><path d="m107.985 16.762c-1.146-.91-2.017-2.226-2.447-3.762.825-2.951 3.281-5.091 6.182-5.091s5.356 2.141 6.181 5.091c-.825 2.951-3.28 5.091-6.182 5.091-.223 0-.443-.013-.661-.037m-2.944-1.418 2.094-2.094m0 0c.405.413.958.648 1.537.652.579.005 1.136-.22 1.548-.626.413-.406.647-.959.652-1.538.005-.578-.22-1.135-.626-1.548-.406-.412-.959-.647-1.538-.652-.579-.004-1.135.221-1.548.627s-.647.959-.652 1.537c-.005.579.221 1.136.627 1.548z" fill="none" stroke="#fff" stroke-width="1.5"/></svg>