<svg width="143" height="78" viewBox="0 0 143 78" fill="none" xmlns="http://www.w3.org/2000/svg">
<mask id="mask0_12_25" style="mask-type:alpha" maskUnits="userSpaceOnUse" x="0" y="0" width="141" height="78">
<rect width="141" height="78" rx="9" fill="#D9D9D9"/>
</mask>
<g mask="url(#mask0_12_25)">
<rect x="4" y="51" width="135" height="24" rx="6" fill="#0B0B0B" fill-opacity="0.05"/>
<g clip-path="url(#clip0_12_25)">
<path d="M67.2643 67.2316C65.9748 66.2089 64.9955 64.728 64.5111 63C65.4397 59.6806 68.2027 57.2727 71.4657 57.2727C74.7294 57.2727 77.4916 59.6806 78.4202 63C77.4916 66.3194 74.7294 68.7273 71.4657 68.7273C71.2145 68.7273 70.9666 68.7134 70.7211 68.6856M67.4091 67.0909L69.7647 64.7354M69.7647 64.7354C70.2212 65.1995 70.8435 65.4633 71.4945 65.4687C72.1455 65.474 72.772 65.2206 73.2362 64.764C73.7004 64.3075 73.9641 63.6852 73.9695 63.0342C73.9749 62.3831 73.7214 61.7566 73.2648 61.2925C72.8083 60.8283 72.186 60.5645 71.535 60.5592C70.884 60.5538 70.2574 60.8073 69.7933 61.2638C69.3291 61.7204 69.0654 62.3426 69.06 62.9937C69.0546 63.6447 69.3081 64.2712 69.7647 64.7354Z" stroke="#0B0B0B" stroke-width="1.5" stroke-linecap="round" stroke-linejoin="round"/>
</g>
</g>
<defs>
<clipPath id="clip0_12_25">
<path d="M63.5 63C63.5 59.2288 63.5 57.3431 64.6716 56.1716C65.8431 55 67.7288 55 71.5 55V55C75.2712 55 77.1569 55 78.3284 56.1716C79.5 57.3431 79.5 59.2288 79.5 63V63C79.5 66.7712 79.5 68.6569 78.3284 69.8284C77.1569 71 75.2712 71 71.5 71V71C67.7288 71 65.8431 71 64.6716 69.8284C63.5 68.6569 63.5 66.7712 63.5 63V63Z" fill="white"/>
</clipPath>
</defs>
</svg>
