<svg xmlns="http://www.w3.org/2000/svg" width="22" height="22" viewBox="0 0 22 22">
  <path fill="none" stroke="#000" stroke-linecap="round" stroke-linejoin="round" stroke-width="2" d="M5.82328232,16.1723402 C4.24728423,14.9221735 3.0488187,13.1120428 2.45801,11 C3.59288798,6.943 6.96990715,4 10.95801,4 C14.9470037,4 18.323132,6.943 19.45801,11 C18.323132,15.057 14.9470037,18 10.95801,18 C10.6510504,18 10.347711,17.9825651 10.0487354,17.9485292 M6,16 L8.879,13.121 M8.879,13.121 C9.15671,13.4033 9.48757,13.6279 9.85249,13.7817 C10.2174,13.9355 10.6092,14.0156 11.0052,14.0172276 C11.4012,14.0189 11.7936,13.9421 12.1599,13.7914 C12.5261,13.6406 12.8588,13.4188 13.1388,13.1388 C13.4189,12.8588 13.6408,12.5262 13.7916,12.16 C13.9425,11.79384 14.0193,11.40143 14.0177245,11.00541 C14.0162,10.6094 13.9362,10.21761 13.7825,9.85265 C13.6287,9.48768 13.4043,9.15677 13.122,8.879 C12.5579,8.32389 11.7973,8.01417 11.0059,8.01727651 C10.2145,8.02043 9.45638,8.33615 8.8967,8.89571 C8.33702,9.45526 8.02111,10.2133 8.01777357,11.00471 C8.01448,11.79612 8.32402,12.5568 8.879,13.121 Z"/>
</svg>
