<svg width="14" height="14" viewBox="0 0 14 14" fill="none" xmlns="http://www.w3.org/2000/svg">
<path d="M2 11.3369C2 12.4123 2.58766 13 3.65721 13H7.91185C8.98139 13 9.56317 12.4123 9.56317 11.3369V10.4966H10.2801C11.3497 10.4966 11.9314 9.90304 11.9314 8.82762V5.40745C11.9314 4.69049 11.7787 4.22624 11.3673 3.80313L9.1812 1.57003C8.78747 1.17042 8.29971 1 7.66503 1H6.02547C4.95593 1 4.36827 1.58766 4.36827 2.66307V3.50343H3.65721C2.58766 3.50343 2 4.09696 2 5.17237V11.3369ZM9.02841 6.43585L6.66602 4.03819C6.3428 3.71499 6.04897 3.57982 5.64349 3.52694V2.80411C5.64349 2.4574 5.81391 2.27522 6.17826 2.27522H7.8766V4.11459C7.8766 4.76689 8.27032 5.16063 8.92263 5.16063H10.6562V8.68659C10.6562 9.0333 10.4917 9.21548 10.1215 9.21548H9.56317V7.94025C9.56317 7.24093 9.46915 6.87659 9.02841 6.43585ZM8.84623 3.98531V2.68657L10.333 4.19098H9.05779C8.91088 4.19098 8.84623 4.12634 8.84623 3.98531ZM3.27522 11.1959V5.31341C3.27522 4.9667 3.44564 4.78452 3.80999 4.78452H4.98531V6.97062C4.98531 7.80509 5.38492 8.20471 6.21939 8.20471H8.28795V11.1959C8.28795 11.5426 8.12341 11.7248 7.75319 11.7248H3.80999C3.44564 11.7248 3.27522 11.5426 3.27522 11.1959ZM6.31342 7.15867C6.11949 7.15867 6.03134 7.07051 6.03134 6.87659V4.97258L8.19393 7.15867H6.31342Z" fill="black"/>
</svg>
